<?xml version="1.0" encoding="utf-8"?>
<!-- Generator: Adobe Illustrator 16.0.0, SVG Export Plug-In . SVG Version: 6.00 Build 0)  -->
<!DOCTYPE svg PUBLIC "-//W3C//DTD SVG 1.1//EN" "http://www.w3.org/Graphics/SVG/1.1/DTD/svg11.dtd">
<svg version="1.1" id="Layer_1" xmlns="http://www.w3.org/2000/svg" xmlns:xlink="http://www.w3.org/1999/xlink" x="0px" y="0px"
	 width="283.46px" height="12.023px" viewBox="0 0 283.46 12.023" enable-background="new 0 0 283.46 12.023" xml:space="preserve">
<path fill="#FFFFFF" d="M202.385,9.041c0,0.309-0.257,0.561-0.555,0.561l-7.5,0.008c-0.317,0-0.563-0.256-0.563-0.569V2.978
	c0-0.311,0.246-0.557,0.563-0.557h7.5c0.298,0,0.555,0.255,0.555,0.562V9.041z M201.83,0.004h-7.5V0c-1.63,0-2.953,1.34-2.953,2.978
	V8.95c0,1.644,1.323,3.071,2.953,3.071v-0.002h7.5c1.627,0,2.94-1.335,2.94-2.978V2.982C204.771,1.34,203.457,0.004,201.83,0.004
	 M169.89,4.79h-8.623v-1.82c0.013-0.302,0.253-0.536,0.547-0.546V0.004c-1.615,0.008-2.928,1.336-2.936,2.965v9.049h2.389V7.2h8.623
	v1.86c-0.019,0.298-0.253,0.537-0.551,0.542v2.417c1.615-0.008,2.915-1.329,2.932-2.959V0.004h-2.381V4.79z M186.606,0.004V7.66
	c0,0.312-0.386,0.789-0.754,0.439l-8.797-8.095c-1.364,0.28-2.397,1.524-2.397,2.978v9.037h2.397V4.332
	c0-0.309,0.365-0.781,0.741-0.429l8.81,8.091c1.355-0.28,2.383-1.528,2.383-2.978V0.004H186.606z M146.095,2.42h7.472
	c0.298,0.002,0.53,0.247,0.534,0.549h2.394c-0.013-1.64-1.323-2.957-2.928-2.965h-7.472c-1.621,0-2.946,1.336-2.946,2.978v6.059
	c0,1.642,1.325,2.978,2.946,2.978l7.461,0.004c1.615-0.004,2.92-1.333,2.938-2.959h-2.394c-0.004,0.298-0.251,0.538-0.545,0.546
	l-7.461-0.008c-0.309,0-0.555-0.252-0.555-0.561V2.982C145.54,2.675,145.786,2.42,146.095,2.42 M228.894,9.041
	c0,0.309-0.248,0.561-0.563,0.561l-7.504,0.008c-0.296,0-0.547-0.256-0.547-0.569V2.978c0-0.311,0.251-0.557,0.547-0.557h7.504
	c0.315,0,0.563,0.255,0.563,0.562V9.041z M228.33,0.004h-7.504V0c-1.621,0-2.94,1.34-2.94,2.978V8.95
	c0,1.644,1.319,3.071,2.94,3.071v-0.002h7.504c1.626,0,2.949-1.335,2.949-2.978V2.982C231.279,1.34,229.956,0.004,228.33,0.004
	 M257.173,2.42h7.471c0.29,0.002,0.53,0.247,0.534,0.549h2.4c-0.013-1.64-1.323-2.957-2.935-2.969l-7.471,0.004
	c-1.623,0-2.946,1.336-2.946,2.978v6.059c0,1.636,1.323,2.978,2.946,2.978l7.463,0.004c1.619-0.004,2.93-1.333,2.942-2.959h-2.4
	c-0.004,0.298-0.248,0.538-0.542,0.546l-7.463-0.008c-0.305,0-0.553-0.252-0.553-0.561V7.2h8.023V4.79h-8.023V2.982
	C256.62,2.675,256.868,2.42,257.173,2.42 M209.551,9.041l0.005-6.072c0.012-0.302,0.248-0.536,0.542-0.546V0.004
	c-1.615,0.008-2.919,1.336-2.932,2.965v6.072c0,1.642,1.316,2.978,2.942,2.978h5.384V9.61l-5.384-0.008
	C209.804,9.602,209.551,9.35,209.551,9.041 M280.408,4.79l-7.504-0.008c-0.303,0-0.56-0.252-0.56-0.557V2.982
	c0-0.307,0.261-0.562,0.567-0.562l7.509,0.002c0.292,0.002,0.529,0.244,0.542,0.536h2.39c-0.019-1.629-1.325-2.947-2.932-2.955
	h-7.509c-1.63,0-2.953,1.336-2.953,2.978v1.242c0,1.642,1.323,2.976,2.945,2.976h7.504c0.305,0,0.555,0.253,0.555,0.561v1.28
	c0,0.309-0.25,0.561-0.555,0.561V9.61h-10.283v2.408l10.399-0.008c1.569-0.06,2.828-1.277,2.828-2.868V7.761
	C283.353,6.11,282.027,4.79,280.408,4.79 M236.621,2.417l7.519,0.004c0.292,0.013,0.528,0.251,0.536,0.551h2.388
	c0-1.631-1.311-2.959-2.924-2.967h-7.519c-1.627,0-2.948,1.336-2.948,2.978v6.059c0,1.642,1.321,2.978,2.948,2.978h7.496
	c1.621,0,2.946-1.342,2.946-2.978v-1.28c0-1.65-1.325-2.971-2.946-2.971h-5.67V7.2h5.67c0.311,0,0.559,0.253,0.559,0.561v1.28
	c0,0.309-0.248,0.561-0.559,0.561h-7.496c-0.312,0-0.555-0.252-0.555-0.561V2.982C236.066,2.675,236.309,2.417,236.621,2.417
	 M249.46,12.019h2.381V0.004h-2.381V12.019z M67.867,12.019h2.389V0.004h-2.389V12.019z M34.518,2.42l7.514,0.002
	c0.285,0.002,0.532,0.244,0.542,0.536h2.389c-0.008-1.629-1.325-2.947-2.93-2.955h-7.514c-1.627,0-2.952,1.336-2.952,2.978v1.242
	c0,1.642,1.325,2.982,2.951,2.982h7.494c0.306,0,0.563,0.247,0.563,0.555v1.28c0,0.309-0.257,0.561-0.563,0.561V9.61H31.737v2.408
	l10.397-0.008c1.572-0.06,2.829-1.277,2.829-2.868V7.761c0-1.65-1.325-2.976-2.952-2.976l-7.494-0.004
	c-0.306,0-0.559-0.252-0.559-0.557V2.982C33.958,2.675,34.21,2.42,34.518,2.42 M47.351,12.019h2.388V0.004h-2.388V12.019z
	 M10.447,0.004H2.946H2.93C1.315,0.012,0.008,1.34,0,2.971H2.39c0.007-0.3,0.242-0.538,0.54-0.551h7.518
	c0.306,0,0.555,0.251,0.555,0.562v1.242c0,0.305-0.249,0.557-0.555,0.557L2.93,4.785C1.315,4.798,0.008,6.11,0,7.749v4.27H2.39
	v-4.27c0.007-0.296,0.242-0.541,0.54-0.542h7.518c1.627,0,2.947-1.34,2.947-2.982V2.982C13.395,1.34,12.075,0.004,10.447,0.004
	 M52.128,2.42h5.484V9.06c0.008,1.63,1.321,2.951,2.93,2.959V9.602c-0.293-0.006-0.533-0.244-0.545-0.542V2.42h5.484V0.004H52.128
	V2.42z M26.786,9.041c0,0.309-0.248,0.561-0.556,0.561L18.736,9.61c-0.312,0-0.564-0.256-0.564-0.569V2.978
	c0-0.311,0.252-0.557,0.564-0.557h7.494c0.309,0,0.556,0.255,0.556,0.562V9.041z M26.23,0.004h-7.494
	c-1.63,0-2.949,1.336-2.949,2.974V8.95c0,1.644,1.319,3.071,2.949,3.071v-0.002h7.494c1.628,0,2.951-1.335,2.951-2.978V2.982
	C29.181,1.34,27.858,0.004,26.23,0.004 M91.162,2.42h7.467c0.297,0.002,0.528,0.247,0.537,0.549h2.386
	c-0.002-1.64-1.31-2.957-2.923-2.965h-7.467c-1.631,0-2.948,1.336-2.948,2.978v6.059c0,1.642,1.317,2.978,2.948,2.978l7.455,0.004
	c1.614-0.004,2.926-1.333,2.935-2.959h-2.386c-0.013,0.298-0.25,0.538-0.549,0.546l-7.455-0.008c-0.311,0-0.562-0.252-0.562-0.561
	l-0.004-1.835h8.032V4.785h-8.032L90.6,2.982C90.6,2.675,90.851,2.42,91.162,2.42 M111.666,2.42h5.481V9.06
	c0.01,1.63,1.32,2.951,2.934,2.959V9.602c-0.301-0.006-0.542-0.244-0.543-0.542V2.42h5.478V0.004h-13.35V2.42z M80.231,8.227
	c-0.339,0.613-0.604,0.567-0.854,0.083l-4.112-8.306h-2.62l5.947,12.015c1.688,0,3.002-1.068,4.314-3.895l4.015-8.12h-2.613
	L80.231,8.227z M130.351,2.42h7.471c0.289,0.002,0.527,0.247,0.536,0.549h2.388c-0.009-1.64-1.31-2.957-2.924-2.965h-7.471
	c-1.625,0-2.945,1.336-2.945,2.978v6.059c0,1.642,1.32,2.978,2.945,2.978l7.466,0.004c1.61-0.004,2.92-1.333,2.929-2.959h-2.388
	c-0.009,0.298-0.251,0.538-0.542,0.546l-7.466-0.008c-0.311,0-0.555-0.252-0.555-0.561V7.2h8.026V4.79h-8.026V2.982
	C129.796,2.675,130.041,2.42,130.351,2.42"/>
</svg>
