<?xml version="1.0" standalone="no"?>
<!DOCTYPE svg PUBLIC "-//W3C//DTD SVG 20010904//EN"
 "http://www.w3.org/TR/2001/REC-SVG-20010904/DTD/svg10.dtd">
<svg version="1.0" xmlns="http://www.w3.org/2000/svg"
 width="512.000000pt" height="512.000000pt" viewBox="0 0 512.000000 512.000000"
 preserveAspectRatio="xMidYMid meet">
<metadata>
Created by potrace 1.11, written by Peter Selinger 2001-2013
</metadata>
<g transform="translate(0.000000,512.000000) scale(0.100000,-0.100000)"
fill="#000000" stroke="none">
<path d="M1695 5109 c-777 -34 -1292 -126 -1513 -268 -96 -62 -130 -123 -163
-286 -21 -107 -19 -586 5 -780 95 -800 330 -1598 621 -2110 432 -762 1063
-1404 1570 -1598 146 -56 226 -70 378 -65 159 6 256 32 422 113 208 101 402
244 629 465 349 339 656 749 887 1185 188 355 363 886 474 1438 75 372 105
626 112 939 6 276 -4 395 -44 522 -20 64 -33 87 -71 125 -180 179 -691 280
-1617 321 -256 11 -1427 11 -1690 -1z m1515 -1254 c152 -34 270 -113 302 -202
7 -18 15 -33 20 -33 4 0 5 -7 2 -15 -4 -9 -1 -15 7 -15 10 0 10 -3 1 -12 -7
-7 -12 -18 -12 -25 0 -13 34 -49 70 -73 12 -8 28 -19 34 -25 6 -5 27 -22 47
-37 110 -82 240 -243 262 -325 6 -24 15 -43 19 -43 4 0 8 -11 8 -25 0 -14 -4
-25 -9 -25 -5 0 -11 -10 -15 -22 -3 -13 -16 -35 -28 -49 -21 -23 -110 -89
-122 -89 -2 0 -3 24 -2 53 2 28 -2 60 -8 70 -17 29 -74 87 -84 87 -6 0 -12 7
-16 15 -3 8 -12 15 -20 15 -8 0 -16 4 -18 9 -2 7 -85 49 -110 56 -5 2 -9 3
-10 5 -2 1 -10 3 -18 5 -8 2 -26 7 -40 10 -34 8 -92 17 -110 17 -8 0 -56 4
-107 10 -160 18 -495 -23 -728 -88 -178 -50 -507 -190 -605 -257 -42 -29 -174
-156 -211 -204 -33 -41 -117 -169 -150 -228 l-34 -60 -8 50 c-4 28 -4 79 -1
115 4 36 8 92 10 125 4 65 10 122 19 170 3 17 7 39 9 50 2 11 4 20 5 20 2 0 4
11 7 24 2 14 9 30 15 38 6 7 8 13 4 13 -4 0 -2 6 4 13 6 8 8 17 4 20 -3 4 -1
7 6 7 7 0 9 5 6 10 -3 6 -1 10 5 10 6 0 8 5 5 10 -3 6 -1 10 5 10 6 0 8 5 5
10 -3 6 -1 10 5 10 6 0 8 5 5 10 -3 6 -1 10 4 10 6 0 11 6 11 14 0 8 7 17 16
20 9 4 14 9 11 13 -4 3 3 14 15 24 11 11 18 19 14 19 -9 0 131 140 141 140 4
0 19 12 33 27 13 14 37 30 52 35 16 6 28 14 28 18 0 4 11 11 25 14 14 4 25 11
25 17 0 6 5 7 10 4 6 -3 10 -2 10 3 0 10 80 49 92 44 5 -1 8 3 8 10 0 6 3 8 6
5 4 -3 16 -1 28 5 11 7 23 13 26 13 3 1 18 7 34 14 16 6 36 13 45 14 9 1 21 6
27 10 6 3 29 9 50 12 22 4 50 8 64 11 103 20 293 27 447 16 153 -11 197 -24
267 -81 53 -43 106 -43 136 -2 22 32 34 111 17 111 -6 0 -7 3 -4 6 7 7 -40 48
-58 50 -5 0 -265 2 -577 2 -313 1 -568 5 -568 10 0 6 52 34 73 38 4 1 9 3 12
4 3 1 10 4 15 5 6 1 12 4 15 5 3 1 10 4 15 5 6 1 12 4 15 5 3 1 10 4 15 5 6 1
13 4 18 5 4 2 12 4 17 5 6 2 12 4 15 5 3 1 14 4 25 6 25 6 36 9 55 17 8 4 29
9 45 12 35 7 44 10 65 18 8 4 26 9 40 11 14 3 36 8 50 11 14 4 36 9 50 11 14
3 36 7 50 10 14 3 47 7 75 10 27 3 51 7 53 9 12 12 355 -5 422 -20z m4 -765
c60 -6 115 -14 123 -18 9 -5 -19 -24 -84 -57 -437 -221 -752 -548 -907 -942
-70 -176 -142 -507 -114 -524 10 -7 10 -9 -1 -9 -9 0 -12 -8 -9 -25 3 -14 1
-25 -3 -25 -13 0 -11 -44 3 -58 9 -9 9 -12 -1 -12 -11 0 -13 -14 -8 -65 4 -41
3 -64 -3 -60 -6 4 -10 -8 -10 -27 0 -19 -5 -39 -12 -46 -15 -15 -48 -16 -48
-1 0 5 -4 8 -9 5 -5 -3 -12 1 -15 10 -3 8 -10 12 -16 9 -5 -3 -10 -1 -10 6 0
7 -32 44 -70 83 -131 133 -140 143 -140 154 0 6 -9 16 -20 22 -11 6 -20 17
-20 24 0 8 -7 16 -15 20 -8 3 -15 12 -15 21 0 8 -5 15 -11 15 -5 0 -8 4 -4 9
3 5 -4 16 -15 24 -11 7 -17 17 -14 20 4 4 -1 9 -10 13 -9 3 -16 12 -16 20 0 8
-5 14 -11 14 -5 0 -7 5 -4 10 3 6 -1 13 -9 16 -9 3 -13 10 -10 15 3 5 0 9 -6
9 -6 0 -8 5 -5 10 3 5 1 10 -5 10 -6 0 -8 4 -5 10 3 5 1 10 -5 10 -6 0 -8 5
-5 10 3 6 2 10 -4 10 -6 0 -8 7 -5 15 4 8 1 15 -6 15 -6 0 -8 5 -5 10 4 6 2
17 -4 24 -6 7 -9 20 -5 29 3 8 1 17 -3 20 -13 8 -5 218 9 232 4 4 4 13 1 21
-3 8 0 14 7 14 7 0 10 7 7 15 -4 8 -2 17 4 20 5 4 7 11 4 16 -4 5 -1 9 5 9 7
0 10 7 6 15 -3 8 -1 15 5 15 6 0 7 5 4 10 -3 6 -1 10 5 10 6 0 8 5 5 10 -3 6
-1 10 5 10 6 0 8 5 5 10 -3 6 -1 10 5 10 6 0 8 5 5 10 -3 6 -1 10 5 10 6 0 8
5 5 10 -3 6 -1 10 5 10 6 0 9 4 6 9 -3 5 1 12 10 15 8 3 12 10 9 16 -3 5 -1
10 4 10 6 0 11 6 11 14 0 8 7 17 16 20 8 3 13 10 10 15 -3 5 1 11 9 15 8 3 15
12 15 20 0 9 9 20 20 26 11 6 20 15 20 20 0 12 168 180 181 180 4 0 13 9 19
20 6 11 17 20 26 20 8 0 17 7 20 15 4 8 10 12 15 9 5 -3 12 2 15 10 3 9 12 16
20 16 8 0 14 5 14 10 0 6 7 10 15 10 8 0 15 5 15 11 0 5 5 7 10 4 6 -3 10 -1
10 4 0 6 7 11 15 11 8 0 15 5 15 11 0 5 5 7 10 4 6 -3 10 -1 10 6 0 7 3 10 6
6 4 -3 13 1 21 9 8 8 19 12 24 9 5 -4 9 -1 9 5 0 6 5 8 10 5 6 -3 10 -1 10 5
0 6 5 8 10 5 6 -3 10 -1 10 5 0 6 5 8 10 5 6 -3 10 -1 10 6 0 7 3 9 7 6 3 -4
17 0 30 8 13 9 23 13 23 10 0 -3 10 0 23 7 12 7 25 13 30 14 4 1 9 3 12 4 3 1
10 4 15 5 6 1 12 4 15 5 3 1 10 4 15 5 6 1 12 4 15 5 3 1 10 4 15 5 6 1 13 4
18 5 4 2 12 4 17 5 6 2 12 4 15 5 6 2 38 9 68 15 12 3 34 7 50 10 55 11 78 15
142 20 35 4 67 8 69 11 8 7 122 4 235 -6z"/>
</g>
</svg>
