<svg width="1255" height="902" viewBox="0 0 1255 902" fill="none" xmlns="http://www.w3.org/2000/svg">
<path fill-rule="evenodd" clip-rule="evenodd" d="M505.988 66.9911L486.976 78.9511L498.516 58.1395C495.248 55.5554 491.205 54.1241 487.025 54.0719H486.719C485.398 54.0955 484.078 54.0021 482.774 53.7926L476.331 57.836L479.087 52.8577C474.52 51.274 470.575 48.2989 467.817 44.3582L456.29 51.6435L463.616 38.4936C456.878 30.4798 447.789 25.55 437.781 25.55C425.788 25.55 415.106 32.6289 408.21 43.6418C404.057 50.3745 396.566 54.3657 388.61 54.084H387.973C374.731 54.084 364 68.9703 364 87.317C364 105.664 374.731 120.55 387.973 120.55C390.881 120.539 393.743 119.831 396.315 118.486C404.951 114.03 416.295 113.945 425.335 117.915C433.186 121.388 442.156 121.388 450.006 117.915C459.217 113.958 469.706 114.158 478.757 118.462C481.31 119.782 484.145 120.478 487.025 120.489C500.267 120.489 510.998 105.615 510.998 87.2563C511.065 80.1922 509.342 73.2243 505.988 66.9911Z" fill="#F2F2F2"/>
<path opacity="0.03" fill-rule="evenodd" clip-rule="evenodd" d="M471 115.656C464.092 114.345 456.95 115.125 450.487 117.895C442.653 121.394 433.7 121.394 425.865 117.895C416.59 113.826 405.998 114.032 396.888 118.458C394.323 119.823 391.464 120.541 388.558 120.55C376.804 120.55 367.043 108.719 365 93.1063C367.347 91.392 369.341 89.2399 370.871 86.7684C377.758 75.671 388.424 68.55 400.399 68.55C412.373 68.55 422.917 75.5853 429.755 86.5726C433.934 93.3152 441.334 97.3806 449.264 97.2908H449.57C458.964 97.2296 467.061 104.73 471 115.656Z" fill="black"/>
<path fill-rule="evenodd" clip-rule="evenodd" d="M344.673 587.198L336.996 582.424C336.264 581.972 335.543 581.484 334.811 581.02C368.464 575.229 393.619 546.895 395.388 512.786C397.157 478.676 375.069 447.89 342.195 438.647L342.574 468.753L326.035 435.998H325.828C285.528 434.127 251.337 465.277 249.446 505.585C249.373 506.989 249.446 508.357 249.446 509.736C243.698 503.168 238.462 496.124 235.007 488.408C228.014 472.794 227.879 455.104 228.429 433.593C229.527 390.986 231.37 348.038 233.762 305.236C269.438 301.263 296.942 271.952 298.646 236.088C298.744 233.854 298.707 231.657 298.646 229.459C298.646 228.91 298.646 228.373 298.561 227.823C298.415 225.699 298.219 223.599 297.89 221.524C297.89 221.182 297.768 220.852 297.707 220.523C297.414 218.765 297.048 217.031 296.633 215.322C296.474 214.675 296.315 214.04 296.144 213.405C295.632 211.537 295.07 209.743 294.411 207.887C294.191 207.289 293.935 206.666 293.703 206.105C293.191 204.774 292.629 203.455 292.031 202.161C291.714 201.478 291.409 200.794 291.079 200.123C290.981 199.952 290.92 199.769 290.823 199.598C274.905 168.171 238.831 152.584 205.043 162.533L205.531 201.722L189.176 169.346C161.575 185.133 147.431 217.028 154.256 248.089H154.183C154.293 248.614 154.452 249.114 154.574 249.627C154.806 250.592 155.05 251.544 155.318 252.496C155.66 253.717 156.051 254.938 156.453 256.158C156.759 257.062 157.051 257.953 157.393 258.844C157.894 260.138 158.455 261.396 159.017 262.653C159.346 263.386 159.639 264.143 159.993 264.863C160.921 266.751 161.93 268.595 163.02 270.393C163.398 271.028 163.825 271.614 164.24 272.237C165.022 273.458 165.803 274.678 166.682 275.814C167.206 276.534 167.768 277.23 168.317 277.926C169.123 278.939 169.94 279.94 170.758 280.905C171.356 281.601 171.979 282.272 172.601 282.931C173.504 283.883 174.42 284.799 175.372 285.69C176.006 286.288 176.592 286.911 177.288 287.473C178.362 288.437 179.485 289.341 180.62 290.232C181.194 290.683 181.755 291.147 182.341 291.587C184.074 292.808 185.856 294.029 187.699 295.249C188.041 295.457 188.419 295.628 188.761 295.835C190.311 296.739 191.873 297.606 193.485 298.387C194.18 298.729 194.888 299.034 195.596 299.351C196.914 299.937 198.245 300.511 199.612 301.036L202.053 301.891C203.395 302.342 204.762 302.77 206.142 303.111C206.947 303.331 207.765 303.563 208.583 303.758C210.072 304.113 211.597 304.406 213.135 304.674L213.428 304.735C212.427 322.795 211.532 340.859 210.743 358.928C201.945 340.844 186.082 327.189 166.893 321.182C147.704 315.174 126.888 317.347 109.353 327.186L122.266 362.59L95.6948 337.075C81.4498 350.103 72.9594 368.256 72.0896 387.544C71.7505 394.308 72.3752 401.087 73.9448 407.675C80.7978 436.823 104.74 458.837 134.353 463.219C163.967 467.601 193.256 453.465 208.253 427.55C208.253 429.381 208.131 431.213 208.082 433.056C207.594 452.028 206.984 475.639 216.443 496.722C222.851 511.006 233.152 522.616 243.295 533.017C249.922 539.781 256.794 546.336 263.837 552.673C270.77 561.983 279.814 569.514 290.225 574.647C301.795 583.559 313.781 591.947 326.17 599.687L333.908 604.497C340.865 608.806 347.993 613.238 354.974 617.84C353.754 617.718 352.533 617.584 351.313 617.523C319.529 616.042 290.438 635.295 279.374 665.135L325.047 702.236L274.834 690.589C274.861 715.709 287.779 739.055 309.043 752.419C330.308 765.783 356.943 767.292 379.581 756.416L376.248 760.628C374.003 763.42 371.785 766.195 369.597 768.954C339.889 806.592 331.625 842.313 346.333 869.55L364.226 859.893C349.848 833.377 371.366 799.438 385.488 781.59C387.636 778.879 389.817 776.153 392.03 773.41C411.009 749.824 432.515 723.088 431.991 690.296C431.173 640.841 383.218 611.101 344.673 587.198Z" fill="#F2F2F2"/>
<path fill-rule="evenodd" clip-rule="evenodd" d="M674.934 533.546L684.499 527.593C685.414 527.02 686.305 526.373 687.22 525.837C645.078 518.591 613.644 483.023 611.64 440.318C610.948 426.066 613.645 411.853 619.509 398.845C630.584 374.176 652.033 355.688 678.07 348.371L677.594 385.904L698.176 345.078H698.42C748.689 342.739 791.34 381.581 793.69 431.84C793.776 433.585 793.69 435.292 793.69 437.012C800.876 428.828 807.391 420.045 811.698 410.433C820.433 390.917 820.604 368.961 819.908 342.126C818.542 289.004 816.248 235.48 813.259 182.127C768.766 177.177 734.466 140.635 732.348 95.9251C732.226 93.1441 732.263 90.3995 732.348 87.6672C732.348 86.9842 732.385 86.3011 732.458 85.618C732.629 82.9711 732.885 80.3485 733.275 77.7748C733.336 77.3479 733.434 76.9332 733.507 76.555C733.881 74.3594 734.333 72.1963 734.861 70.0658C735.057 69.2729 735.252 68.4679 735.459 67.6262C736.106 65.3087 736.801 63.0033 737.619 60.7589C737.887 60.0026 738.204 59.2829 738.497 58.5389C739.156 56.8678 739.851 55.2333 740.595 53.6598C740.986 52.8181 741.364 51.9643 741.815 51.1226C741.913 50.9152 742.011 50.6835 742.12 50.4761C761.954 11.2845 806.957 -8.14909 849.091 4.28304L848.481 53.0743L868.879 12.7239C903.299 32.4017 920.925 72.1682 912.385 110.88H912.483C912.348 111.526 912.141 112.099 911.995 112.795C911.702 114.014 911.397 115.234 911.067 116.369C910.64 117.893 910.152 119.382 909.652 120.87C909.274 121.992 908.908 123.114 908.432 124.224C907.81 125.834 907.115 127.408 906.407 128.969C905.992 129.884 905.626 130.823 905.187 131.726C903.967 134.08 902.747 136.385 901.417 138.617C900.954 139.41 900.417 140.154 899.917 140.923C898.941 142.435 897.952 143.924 896.891 145.375C896.232 146.278 895.537 147.132 894.853 148.01C893.853 149.23 892.84 150.523 891.767 151.73C891.019 152.543 890.25 153.385 889.461 154.255C888.351 155.475 887.192 156.573 886.021 157.695C885.228 158.439 884.447 159.195 883.581 159.915C882.226 161.135 880.836 162.232 879.408 163.342C878.701 163.904 878.005 164.501 877.273 165.038C875.114 166.624 872.893 168.136 870.587 169.539C870.16 169.795 869.697 170.015 869.258 170.271C867.346 171.409 865.386 172.47 863.377 173.454C862.511 173.881 861.62 174.247 860.742 174.674C859.095 175.418 857.436 176.126 855.74 176.772C854.74 177.15 853.739 177.504 852.739 177.846C851.055 178.419 849.359 178.931 847.639 179.407C846.626 179.687 845.614 179.968 844.577 180.224C842.71 180.663 840.819 181.029 838.904 181.359L838.526 181.432C839.794 203.949 840.913 226.47 841.881 248.995C852.854 226.455 872.641 209.437 896.572 201.957C920.504 194.477 946.462 197.197 968.323 209.475L952.328 253.594L985.451 221.794C1003.22 238.03 1013.81 260.657 1014.89 284.698C1015.31 293.101 1014.53 301.52 1012.58 309.704C1004.06 346.064 974.198 373.536 937.248 379.008C900.299 384.48 863.753 366.843 845.053 334.514C845.053 336.795 845.211 339.101 845.272 341.382C845.882 365.033 846.639 394.466 834.853 420.74C826.862 438.561 814.003 453.016 801.291 465.982C793.019 474.423 784.479 482.591 775.671 490.488C767.012 502.086 755.722 511.463 742.73 517.847C728.298 528.959 713.353 539.413 697.907 549.074L688.269 555.087C679.595 560.454 670.713 565.98 661.99 571.713C663.527 571.566 665.04 571.396 666.602 571.322C706.225 569.472 742.497 593.451 756.309 630.628L699.383 676.98L762.007 662.477C761.963 693.787 745.849 722.884 719.33 739.538C692.811 756.193 659.598 758.073 631.368 744.519C632.783 746.276 634.186 748.032 635.601 749.776C638.395 753.253 641.189 756.717 643.91 760.157C680.949 807.057 691.258 851.64 672.909 885.55L650.607 873.511C668.456 840.455 641.604 798.153 623.999 775.928C621.327 772.55 618.594 769.146 615.849 765.731C592.181 736.334 565.353 703.01 566.012 662.135C567.025 600.402 626.854 563.333 674.934 533.546Z" fill="#F2F2F2"/>
<path fill-rule="evenodd" clip-rule="evenodd" d="M1073 230.34V657.76C1073 660.091 1072.07 662.327 1070.42 663.975C1068.77 665.624 1066.53 666.55 1064.2 666.55H191.79C189.457 666.55 187.219 665.624 185.57 663.975C183.921 662.326 182.997 660.09 183 657.76V230.34C182.997 228.01 183.921 225.774 185.57 224.125C187.219 222.477 189.457 221.55 191.79 221.55H1064.2C1069.06 221.55 1073 225.486 1073 230.34Z" fill="#3F3D56"/>
<path fill-rule="evenodd" clip-rule="evenodd" d="M1073 226.505V246.55H183V226.505C183 223.216 185.629 220.55 188.872 220.55H1067.13C1070.37 220.55 1073 223.216 1073 226.505Z" fill="#CBCEDA"/>
<path fill-rule="evenodd" clip-rule="evenodd" d="M202 239.55C205.314 239.55 208 236.864 208 233.55C208 230.236 205.314 227.55 202 227.55C198.686 227.55 196 230.236 196 233.55C196 236.864 198.686 239.55 202 239.55Z" fill="#6C63FF"/>
<path fill-rule="evenodd" clip-rule="evenodd" d="M219 239.55C222.314 239.55 225 236.864 225 233.55C225 230.236 222.314 227.55 219 227.55C215.686 227.55 213 230.236 213 233.55C213 236.864 215.686 239.55 219 239.55Z" fill="#6C63FF"/>
<path fill-rule="evenodd" clip-rule="evenodd" d="M237 239.55C240.314 239.55 243 236.864 243 233.55C243 230.236 240.314 227.55 237 227.55C233.686 227.55 231 230.236 231 233.55C231 236.864 233.686 239.55 237 239.55Z" fill="#6C63FF"/>
<path opacity="0.2" fill-rule="evenodd" clip-rule="evenodd" d="M929 533.905V607.221L324.549 607.55L324 460.99C330.384 479.764 346.142 483.138 373.887 450.025C441.692 369.204 533.861 347.933 605.206 345.703C654.031 344.168 702.746 354.231 749.239 374.223C768.55 382.544 822.5 380.52 878.5 352C898 342.069 928.957 291.524 929 310.5V533.905Z" fill="#6C63FF"/>
<path opacity="0.2" fill-rule="evenodd" clip-rule="evenodd" d="M929 321.5V607.55H324V575.785C341.296 571.423 405.989 554.648 437.005 508.319C474.112 452.852 524.548 438.264 563.571 436.737C590.315 435.674 616.936 442.553 642.35 456.285C670.937 471.728 726.048 490.36 767.915 436.273C814.225 376.468 792.5 403.5 852 387C889.5 361 929 321.5 929 321.5Z" fill="#6C63FF"/>
<path d="M324 306.55V605.55H929" stroke="#6C63FF" stroke-width="2"/>
<path d="M400.5 605.55V423.55" stroke="#6C63FF"/>
<path d="M474.5 605.55V374.55" stroke="#6C63FF"/>
<path d="M547.5 604.55V351.55" stroke="#6C63FF"/>
<path d="M621.5 605.55V344.55" stroke="#6C63FF"/>
<path d="M694.5 605.55V352.55" stroke="#6C63FF"/>
<path d="M767.5 605.55V382.55" stroke="#6C63FF"/>
<path d="M841.5 605.55V377.5" stroke="#6C63FF"/>
<path fill-rule="evenodd" clip-rule="evenodd" d="M400.5 434.55C407.956 434.55 414 428.506 414 421.05C414 413.594 407.956 407.55 400.5 407.55C393.044 407.55 387 413.594 387 421.05C387 428.506 393.044 434.55 400.5 434.55Z" fill="#6C63FF"/>
<path fill-rule="evenodd" clip-rule="evenodd" d="M473.5 387.55C480.956 387.55 487 381.506 487 374.05C487 366.594 480.956 360.55 473.5 360.55C466.044 360.55 460 366.594 460 374.05C460 381.506 466.044 387.55 473.5 387.55Z" fill="#6C63FF"/>
<path fill-rule="evenodd" clip-rule="evenodd" d="M547.5 365.55C554.956 365.55 561 359.506 561 352.05C561 344.594 554.956 338.55 547.5 338.55C540.044 338.55 534 344.594 534 352.05C534 359.506 540.044 365.55 547.5 365.55Z" fill="#6C63FF"/>
<path fill-rule="evenodd" clip-rule="evenodd" d="M620.5 357.55C627.956 357.55 634 351.506 634 344.05C634 336.594 627.956 330.55 620.5 330.55C613.044 330.55 607 336.594 607 344.05C607 351.506 613.044 357.55 620.5 357.55Z" fill="#6C63FF"/>
<path fill-rule="evenodd" clip-rule="evenodd" d="M694.5 365.55C701.956 365.55 708 359.506 708 352.05C708 344.594 701.956 338.55 694.5 338.55C687.044 338.55 681 344.594 681 352.05C681 359.506 687.044 365.55 694.5 365.55Z" fill="#6C63FF"/>
<path fill-rule="evenodd" clip-rule="evenodd" d="M767.5 396.55C774.956 396.55 781 390.506 781 383.05C781 375.594 774.956 369.55 767.5 369.55C760.044 369.55 754 375.594 754 383.05C754 390.506 760.044 396.55 767.5 396.55Z" fill="#6C63FF"/>
<path fill-rule="evenodd" clip-rule="evenodd" d="M842.5 380C849.956 380 856 373.956 856 366.5C856 359.044 849.956 353 842.5 353C835.044 353 829 359.044 829 366.5C829 373.956 835.044 380 842.5 380Z" fill="#6C63FF"/>
<path fill-rule="evenodd" clip-rule="evenodd" d="M627.5 901.55C974.059 901.55 1255 890.133 1255 876.05C1255 861.967 974.059 850.55 627.5 850.55C280.941 850.55 0 861.967 0 876.05C0 890.133 280.941 901.55 627.5 901.55Z" fill="#3F3D56"/>
<path fill-rule="evenodd" clip-rule="evenodd" d="M70.7562 430.323C70.7073 431.38 70.3653 432.404 69.7684 433.278C72.9545 433.182 75.9064 431.779 78.8248 430.392L78.8249 430.392C80.3747 429.655 81.915 428.923 83.4759 428.394C82.671 433.131 83.4759 438.748 84.0857 442.777C84.6738 446.685 85.646 450.525 86.9882 454.242C89.6108 465.524 94.0663 476.647 98.4371 487.559C99.2083 489.484 99.9769 491.403 100.732 493.314C102.904 498.367 104.539 503.634 105.61 509.029C107.705 521.602 104.092 533.924 100.454 546.335C98.1382 554.233 95.8122 562.167 94.9395 570.226C94.7686 571.367 94.7686 572.527 94.9395 573.669C94.7378 573.882 94.558 574.115 94.4029 574.365C86.1223 587.088 87.1955 608.382 88.6833 623.449C90.0708 637.501 94.3116 651.085 98.527 664.589C98.8317 665.565 99.1362 666.54 99.4396 667.515C100.78 671.503 101.828 675.584 102.574 679.725C103.289 685.395 103.403 691.125 102.915 696.819C102.594 702.542 102.168 708.275 101.742 714.011C100.195 734.844 98.646 755.706 102.098 776.185C103.336 783.531 105.139 790.621 106.93 797.666C109.78 808.877 112.602 819.975 113.074 831.814C113.654 830.391 114.576 829.133 115.757 828.151L117.074 878.786C116.951 879.745 117.307 880.704 118.025 881.35C118.713 881.788 119.551 881.585 120.386 881.382C120.691 881.308 120.996 881.234 121.294 881.191C123.935 880.871 125.797 883.173 127.559 885.352C127.945 885.828 128.325 886.299 128.708 886.735C131.916 890.398 136.855 892.131 141.696 892.51C146.57 892.693 151.447 892.25 156.209 891.191C158.44 890.788 160.806 890.324 162.477 888.749C164.211 886.981 164.999 884.491 164.599 882.046C164.002 877.363 160.617 873.945 157.182 870.475L157.181 870.475C155.144 868.418 153.089 866.343 151.587 863.975C149.179 860.177 148.27 855.727 147.36 851.274C146.468 846.908 145.575 842.539 143.269 838.774C142.565 837.626 141.742 836.558 140.919 835.49L140.919 835.489C139.876 834.136 138.835 832.785 138.038 831.277C137.318 829.614 136.751 827.889 136.343 826.124C137.79 826.561 139.164 827.216 140.416 828.065C140.209 826.206 140 824.344 139.791 822.48L139.791 822.478C139.555 820.377 139.319 818.275 139.087 816.173L138.891 814.463C138.851 814.102 138.811 813.74 138.77 813.378L138.672 812.505C138.145 807.8 137.618 803.101 137.233 798.383C136.582 790.711 137.157 783.105 137.73 775.531C138.478 765.652 139.221 755.826 137.233 745.977C136.509 742.352 137.648 738.57 138.724 735.001L138.757 734.89C144.923 714.371 148.685 693.203 149.965 671.813C150.032 670.662 150.088 669.517 150.144 668.378C150.457 662.05 150.76 655.899 152.806 649.835C154.618 657.224 158.855 663.611 163.112 670.029C165.504 673.634 167.901 677.249 169.88 681.056C171.39 683.993 172.646 687.051 173.901 690.108C175.464 693.913 177.026 697.714 179.075 701.276C179.558 702.123 180.069 702.96 180.58 703.797C181.956 706.047 183.334 708.301 184.16 710.776C185.874 715.959 185.033 721.572 184.22 726.992L184.16 727.393C180.197 756.087 180.66 785.294 181.929 814.231C180.724 825.304 178.181 836.19 174.355 846.649C172.843 850.776 171.197 855.587 173.538 859.311C174.526 860.676 175.768 861.837 177.197 862.73C180.663 865.198 184.307 867.406 188.099 869.335C189.226 870.076 190.58 870.388 191.917 870.214C192.746 869.926 193.527 869.514 194.234 868.993C197.197 867.211 201.026 867.492 204.295 868.639C206.22 869.316 208.036 870.259 209.851 871.202L209.852 871.202C211.117 871.86 212.383 872.517 213.685 873.084C220.332 875.945 227.751 876.47 234.734 874.573C237.686 873.755 240.832 872.193 241.747 869.299C242.661 866.405 240.978 863.352 238.649 861.448C236.994 860.095 235.063 859.185 233.126 858.273L233.123 858.272C232.334 857.9 231.544 857.528 230.771 857.125C224.917 854.069 220.138 849.293 217.075 843.438C215.235 839.576 213.789 835.539 212.758 831.386C211.344 826.405 209.933 821.423 208.527 816.441C209.33 816.97 210.096 817.554 210.819 818.187C212.807 793.523 214.819 768.786 220.1 744.61C220.448 743.014 220.811 741.415 221.175 739.814L221.176 739.808C223.447 729.81 225.74 719.712 224.637 709.579C224.009 703.795 222.28 698.193 220.561 692.623C220.444 692.243 220.326 691.863 220.21 691.484C214.519 672.932 209.535 654.186 205.258 635.244C206.853 633.459 208.094 631.388 208.917 629.139C210.289 624.957 211.041 620.597 211.149 616.196C213.194 586.518 213.113 556.73 210.905 527.063C210.344 519.542 209.466 511.642 206.514 504.804H208.246C206.324 504.804 203.267 486.983 202.537 482.73C202.484 482.423 202.444 482.186 202.417 482.032C201.767 478.3 201.209 474.557 200.651 470.815L200.651 470.814C200.027 466.623 199.402 462.433 198.648 458.259C197.953 454.413 197.173 450.567 196.209 446.782C196.059 446.21 195.807 444.959 195.483 443.348L195.483 443.348C194.38 437.878 192.439 428.253 190.819 426.904C190.593 426.716 190.338 426.567 190.063 426.464C189.011 422.955 186.706 419.956 183.587 418.039C180.209 416.135 176.185 416.074 172.246 416.379C171.132 414.751 170.018 413.143 168.904 411.556C166.857 408.926 165.293 405.954 164.282 402.777C163.966 401.447 163.779 400.089 163.721 398.723C163.721 398.069 163.69 397.415 163.659 396.761C163.646 396.499 163.634 396.238 163.623 395.976V394.596C163.581 393.683 163.483 392.774 163.331 391.873C163.209 391.128 163.026 390.408 162.831 389.675C162.77 389.458 162.697 389.234 162.624 389.012C162.595 388.924 162.566 388.835 162.538 388.748C162.333 388.072 162.114 387.401 161.896 386.729L161.896 386.729C161.518 385.566 161.14 384.405 160.831 383.229C159.613 378.36 159.882 373.299 160.151 368.259L160.151 368.259C160.213 367.093 160.275 365.928 160.319 364.767C160.55 358.589 160.148 352.044 156.66 346.891C155.72 345.495 154.57 344.223 153.425 342.956C151.467 340.79 149.522 338.638 148.66 335.902C148.396 335.06 148.246 334.184 148.096 333.308C147.879 332.038 147.662 330.771 147.099 329.614C145.863 327.442 143.89 325.787 141.538 324.95C138.782 323.729 133.245 322.117 130.281 323.546C129.726 323.822 129.236 324.213 128.842 324.694C128.434 324.714 128.025 324.739 127.617 324.765L127.617 324.765C124.892 324.933 122.19 325.1 119.794 323.9C118.675 323.34 117.719 322.515 116.763 321.691C115.906 320.951 115.048 320.211 114.074 319.663C109.196 316.928 102.976 319.663 98.6347 323.228C91.7333 328.889 86.69 336.495 84.1588 345.06C83.77 346.393 83.4279 347.771 83.0841 349.156C81.7239 354.635 80.3368 360.222 75.927 363.546C75.1146 364.156 74.2195 364.669 73.3279 365.181L73.3279 365.181C71.7035 366.113 70.091 367.038 69.0123 368.528C67.8755 370.406 67.2452 372.547 67.183 374.743C66.6098 379.749 66.1342 384.901 67.4635 389.761C68.0288 391.832 68.9022 393.778 69.7749 395.723C70.4459 397.218 71.1164 398.712 71.6465 400.262C74.9666 410.563 71.9785 421.858 64 429.163C66.0153 430.415 68.4392 430.832 70.7562 430.323ZM188.026 578.467C191.386 576.646 193.786 573.45 194.6 569.713C194.689 570.03 194.768 570.347 194.846 570.665C194.885 570.824 194.925 570.982 194.965 571.141C196.53 577.517 196.212 584.21 194.051 590.409C192.432 586.243 190.414 582.244 188.026 578.467ZM185.343 542.118C186.717 545.396 188.434 548.519 190.465 551.434H190.502C188.11 538.692 186.638 525.793 186.099 512.838C185.172 517 184.584 521.231 184.343 525.488C183.892 531.129 183.465 536.843 185.343 542.118Z" fill="url(#paint0_linear)"/>
<path fill-rule="evenodd" clip-rule="evenodd" d="M142.876 328.517C145.211 329.354 147.165 330.995 148.384 333.141C149.318 335.081 149.293 337.339 149.933 339.389C151.285 343.708 155.342 346.563 157.85 350.37C161.268 355.483 161.673 361.999 161.44 368.124C161.206 374.25 160.469 380.509 161.956 386.427C162.682 389.319 163.936 392.089 164.415 395.03C165.03 398.617 164.513 402.351 165.411 405.877C166.409 409.027 167.962 411.977 169.997 414.589L178 426.206C174.426 425.353 170.907 424.285 167.464 423.009C168.527 426.327 170.503 429.285 173.168 431.55L167.378 424.595C166.204 422.996 164.746 421.623 163.075 420.544C160.948 419.324 158.44 419.153 156.055 418.677C151.457 417.75 146.871 415.419 144.622 411.356C141.634 405.889 143.54 399.032 141.88 393.053C140.651 388.685 137.626 385.085 135.536 381.046C130.815 371.931 131.098 361.169 129.623 351.005C128.996 346.698 128.025 342.464 128 338.046C128 334.837 128.32 328.712 131.688 327.065C134.651 325.698 140.134 327.358 142.876 328.517Z" fill="#3F3D56"/>
<path fill-rule="evenodd" clip-rule="evenodd" d="M206.437 809.579L212.497 831.35C213.5 835.49 214.913 839.516 216.715 843.369C219.671 849.194 224.324 853.962 230.047 857.029C232.652 858.414 235.476 859.48 237.742 861.342C240.009 863.204 241.633 866.328 240.76 869.171C239.888 872.013 236.797 873.618 233.913 874.439C227.076 876.328 219.806 875.797 213.309 872.932C210.219 871.548 207.334 869.636 204.147 868.497C200.959 867.357 197.202 867.063 194.318 868.852C193.627 869.373 192.863 869.786 192.051 870.077C190.744 870.258 189.416 869.948 188.319 869.207C184.609 867.283 181.048 865.08 177.665 862.616C176.286 861.723 175.092 860.566 174.151 859.21C171.848 855.535 173.472 850.634 174.939 846.579C178.835 835.715 181.371 824.4 182.489 812.899C182.446 811.87 182.849 810.872 183.592 810.167C184.129 809.882 184.731 809.747 185.337 809.775L211.225 808.55" fill="#575A89"/>
<path fill-rule="evenodd" clip-rule="evenodd" d="M138.932 832.327C140.326 835.017 142.496 837.24 144.048 839.832C148.595 847.435 147.516 857.508 152.183 865.025C156.123 871.388 163.967 875.65 164.901 883.106C165.29 885.544 164.521 888.024 162.828 889.8C161.191 891.336 158.875 891.79 156.693 892.183C152.046 893.248 147.282 893.693 142.521 893.51C137.78 893.129 132.955 891.36 129.827 887.724C127.73 885.268 125.729 881.792 122.553 882.197C121.462 882.332 120.273 882.946 119.352 882.344C118.656 881.693 118.313 880.742 118.431 879.789L117 823.937C121.583 823.434 129.524 821.591 133.973 823.188C137.804 824.552 137.186 828.924 138.932 832.327Z" fill="#575A89"/>
<path fill-rule="evenodd" clip-rule="evenodd" d="M185.034 575.649C196.282 589.641 199.613 608.172 203.224 625.763C207.876 648.453 213.593 670.892 220.376 693.078C222.182 698.982 224.036 704.911 224.732 711.047C225.952 722.734 222.755 734.359 220.267 745.839C215.082 769.859 213.105 794.428 211.154 818.924C203.132 812.088 191.525 811.473 182.826 817.423C181.508 787.889 180.91 758.05 184.912 728.748C185.668 723.246 186.583 717.525 184.912 712.255C183.79 708.863 181.667 705.923 179.898 702.825C176.238 696.432 174.188 689.284 170.858 682.733C165.502 672.217 156.901 663.214 154.12 651.723C151.741 658.847 151.753 666.069 151.326 673.559C150.087 694.821 146.403 715.869 140.346 736.287C139.273 739.873 138.126 743.606 138.846 747.266C142.262 764.564 137.333 781.765 138.846 799.332C139.285 804.663 139.883 809.982 140.468 815.301L140.664 817.008L141.981 828.817C137.101 825.487 131.941 825.963 126.048 826.268C124.06 826.268 122.087 826.615 120.217 827.292C117.823 828.258 115.925 830.156 114.959 832.55C114.251 813.397 107.358 796.197 104.211 777.3C99.8799 751.292 103.54 724.722 105.016 698.396C105.495 692.727 105.38 687.024 104.674 681.379C103.939 677.244 102.908 673.167 101.588 669.18C97.1716 654.809 92.4747 640.378 91.0107 625.409C89.5468 610.441 88.4976 589.3 96.6348 576.613C99.1479 572.709 105.333 574.466 109.237 571.928C112.313 570.001 115.697 568.614 119.241 567.829C140.578 562.877 163.221 573.77 185.034 575.649Z" fill="#3C354C"/>
<path fill-rule="evenodd" clip-rule="evenodd" d="M147.096 401.385C147.572 406.7 148.697 412.965 153.562 415.203C156.324 416.419 159.527 415.993 162.509 416.48C168.156 417.392 172.801 421.71 175.417 426.77C178.032 431.831 178.937 437.584 179.548 443.24C180.306 450.332 180.55 458.019 176.639 463.991C173.485 468.857 168.083 471.764 162.411 473.26C151.006 476.235 138.863 474.006 129.274 467.178C124.748 463.664 120.646 459.639 117.051 455.185C108.935 445.782 100.757 435.48 99.0951 423.194C98.8995 421.795 98.9117 420.105 100.061 419.278C100.855 418.832 101.772 418.653 102.676 418.767L110.463 418.9C112.431 418.9 114.655 418.9 116 417.429C117.344 415.957 117.222 414.084 117.222 412.283L116.696 389.793C116.581 388.996 116.769 388.185 117.222 387.518C117.714 387.071 118.342 386.801 119.007 386.752C123.297 386.034 127.783 386.752 131.975 385.596C135.972 384.501 142.243 379.94 145.177 384.623C147.621 388.649 146.692 396.848 147.096 401.385Z" fill="#FFC1C7"/>
<path opacity="0.1" fill-rule="evenodd" clip-rule="evenodd" d="M147.096 401.385C147.572 406.7 148.697 412.965 153.562 415.203C156.324 416.419 159.527 415.993 162.509 416.48C168.156 417.392 172.801 421.71 175.417 426.77C178.032 431.831 178.937 437.584 179.548 443.24C180.306 450.332 180.55 458.019 176.639 463.991C173.485 468.857 168.083 471.764 162.411 473.26C151.006 476.235 138.863 474.006 129.274 467.178C124.748 463.664 120.646 459.639 117.051 455.185C108.935 445.782 100.757 435.48 99.0951 423.194C98.8995 421.795 98.9117 420.105 100.061 419.278C100.855 418.832 101.772 418.653 102.676 418.767L110.463 418.9C112.431 418.9 114.655 418.9 116 417.429C117.344 415.957 117.222 414.084 117.222 412.283L116.696 389.793C116.581 388.996 116.769 388.185 117.222 387.518C117.714 387.071 118.342 386.801 119.007 386.752C123.297 386.034 127.783 386.752 131.975 385.596C135.972 384.501 142.243 379.94 145.177 384.623C147.621 388.649 146.692 396.848 147.096 401.385Z" fill="black"/>
<path fill-rule="evenodd" clip-rule="evenodd" d="M126.5 400.55C142.792 400.55 156 387.342 156 371.05C156 354.758 142.792 341.55 126.5 341.55C110.208 341.55 97 354.758 97 371.05C97 387.342 110.208 400.55 126.5 400.55Z" fill="#FFC1C7"/>
<path fill-rule="evenodd" clip-rule="evenodd" d="M158.96 453.48C163.775 453.565 169.214 452.261 171.542 448.019C173.135 445.142 172.878 441.643 172.571 438.376L170.844 420.092C175.524 419.604 180.559 419.19 184.639 421.494C190.066 424.553 191.99 431.331 192.627 437.499C193.766 449.079 191.916 460.769 192.553 472.386C193.093 482.138 195.359 492.206 192.468 501.556C191.243 505.457 189.209 509.053 187.886 512.917C186.232 517.793 185.803 523.034 185.435 528.191C184.982 533.725 184.553 539.454 186.415 544.695C187.971 549.084 191.01 552.777 193.178 556.885C196.731 563.687 197.491 572.854 192.149 578.376C187.249 583.422 179.187 583.629 172.338 582.033C165.49 580.436 158.862 577.388 151.878 577.096C139.48 576.572 128.429 584.58 116.349 587.177C114.729 587.608 113.033 587.667 111.387 587.347C109.931 586.879 108.576 586.143 107.393 585.178L100.753 580.424C99.4256 579.634 98.3213 578.523 97.5428 577.193C96.9866 575.715 96.8427 574.114 97.1262 572.561C99.356 551.985 111.056 532.238 107.675 511.82C106.624 506.467 105.014 501.237 102.872 496.217C94.4554 474.787 84.3601 452.529 87.6313 429.746C88.3419 424.7 89.8366 419.543 93.3283 415.813C96.8199 412.083 102.725 410.23 107.246 412.62C111.767 415.009 113.372 420.323 115.369 424.943C119.217 433.924 125.327 441.767 133.109 447.714C136.392 450.225 140.374 453.431 144.674 453.54C149.159 453.699 154.059 453.382 158.96 453.48Z" fill="#FF6584"/>
<path fill-rule="evenodd" clip-rule="evenodd" d="M202.058 498.856C209.152 506.845 210.547 518.371 211.328 529.08C213.478 558.547 213.555 588.131 211.557 617.608C211.455 621.98 210.73 626.314 209.404 630.476C207.889 634.562 205.052 638.343 201.06 639.977C198.499 641.026 194.928 640.746 193.773 638.197C192.715 635.867 194.29 633.318 195.481 631C198.215 625.793 199.13 619.8 198.078 613.997C196.623 615.071 196.106 617.01 195.673 618.791L193.353 628.695C190.214 628.232 189.036 624.341 188.543 621.169C187.629 615.412 186.752 609.277 189.024 603.923C190.226 601.068 192.27 598.641 193.485 595.787C196.551 588.615 197.753 580.418 195.781 572.856C189.134 547.325 186.233 520.939 187.172 494.55C191.726 497.166 196.829 498.642 202.058 498.856Z" fill="#FFC1C7"/>
<path fill-rule="evenodd" clip-rule="evenodd" d="M209 507.061C200.113 507.151 191.269 508.322 182.663 510.55C181.525 504.923 182.075 499.1 182.663 493.35L186.457 454.037C186.738 451.125 186.2 424.379 191.817 429.109C193.886 430.854 196.492 446.481 197.141 449C198.12 452.783 198.891 456.617 199.589 460.474C200.996 468.374 201.951 476.347 203.26 484.259C203.64 486.606 206.968 507.061 209 507.061Z" fill="#FF6584"/>
<path fill-rule="evenodd" clip-rule="evenodd" d="M137.95 333.133C137.986 332.202 137.778 331.279 137.345 330.456C136.571 329.476 135.426 328.869 134.188 328.781C129.93 328.109 125.272 329.845 121.437 327.877C119.357 326.813 117.881 324.821 115.861 323.659C111.022 320.933 104.973 323.659 100.8 327.217C94.0587 332.868 89.1462 340.43 86.6943 348.927C84.8071 355.504 84.045 363.193 78.6617 367.337C76.4237 369.049 73.5446 370.002 71.9115 372.3C70.8125 374.151 70.2003 376.255 70.1332 378.413C69.5767 383.4 69.1049 388.535 70.3993 393.375C71.3792 397.043 73.2906 400.27 74.4882 403.815C77.7615 414.089 74.8403 425.348 67 432.677C68.9635 433.919 71.3312 434.332 73.593 433.826C73.5422 434.877 73.212 435.895 72.6373 436.772C79.5206 436.552 85.5087 429.768 92.2469 431.247C97.4003 432.371 100.267 437.738 104.102 441.393C109.05 446.087 116.732 448.055 122.938 445.268C129.143 442.481 132.918 434.56 130.281 428.227C127.28 421.027 118.026 418.179 114.82 411.113C112.34 405.612 114.179 399.17 113.611 393.143C113.163 387.972 110.949 383.144 109.57 378.131C108.191 373.119 107.743 367.398 110.55 363.046C113.526 358.413 119.224 356.616 124.413 354.905C136.136 351.054 138.386 345.089 137.95 333.133Z" fill="#3F3D56"/>
<path fill-rule="evenodd" clip-rule="evenodd" d="M131.027 439.512C131.876 435.368 132.725 430.981 131.212 427.007C128.419 419.694 119.253 417.342 112.917 412.601C109.247 409.837 106.426 406.115 104.773 401.851C103.629 398.853 103.469 394.733 106.298 393.197C107.399 392.686 108.618 392.471 109.829 392.576C119.672 392.807 128.763 398.121 136.33 404.423C140.734 408.079 144.942 412.272 147.107 417.537C148.481 421.332 149.31 425.299 149.567 429.323L151.155 442.596C152.195 450.215 152.811 457.884 153 465.57C153.005 469.967 152.725 474.36 152.163 478.721C151.77 481.817 151.179 485.023 149.346 487.558C145.938 492.287 139.356 493.347 133.488 493.505C131.268 493.631 129.042 493.492 126.856 493.091C117.1 490.995 109.694 477.454 117.088 469.093C120.225 465.546 124.925 465.436 126.721 460.561C129.034 454.089 129.625 446.252 131.027 439.512Z" fill="#FFC1C7"/>
<path fill-rule="evenodd" clip-rule="evenodd" d="M123.372 441.325L131.041 453.781C131.497 454.423 131.816 455.153 131.977 455.924C132.183 457.544 130.98 458.98 130.02 460.308C123.457 469.269 125.158 481.616 127.103 492.55C105.742 485.79 90.1313 467.373 86.9341 445.16C85.9739 438.646 84.4304 427.919 90.2035 423.682C104.047 413.454 116.857 430.647 123.372 441.325Z" fill="#FF6584"/>
<path fill-rule="evenodd" clip-rule="evenodd" d="M161.709 416.218C158.686 415.737 155.44 416.218 152.64 414.956C147.685 412.746 146.57 406.549 146.087 401.312C146.087 400.819 146.025 400.291 146 399.726C147.768 397.97 149.687 396.363 151.736 394.922C153.585 393.872 155.551 393.03 157.596 392.412L163.072 390.55C163.595 391.955 164.009 393.397 164.31 394.862C164.93 398.393 164.41 402.069 165.314 405.54C166.32 408.641 167.884 411.544 169.935 414.116L178 425.55C176.538 425.214 175.089 424.841 173.652 424.433C170.839 420.289 166.664 416.998 161.709 416.218Z" fill="#3F3D56"/>
<path fill-rule="evenodd" clip-rule="evenodd" d="M1235.77 456.982C1236.9 460.609 1238.03 464.239 1238.8 467.961C1241.21 479.706 1239.98 491.908 1235.26 502.934C1234.84 503.897 1234.4 504.852 1233.95 505.808C1232.63 508.637 1231.3 511.471 1230.65 514.531C1230.53 515.138 1230.43 515.753 1230.33 516.367C1230.17 517.348 1230.01 518.33 1229.74 519.284C1229.03 521.444 1228.04 523.499 1226.79 525.394L1207.5 557.435C1207.12 556.37 1206.58 555.363 1205.93 554.441C1204.02 561.003 1200.83 567.211 1197.69 573.321L1193.3 581.874V581.997C1193.65 592.568 1193.28 603.151 1192.17 613.671C1191.42 619.977 1190.75 626.368 1190.07 632.781C1188.76 645.243 1187.43 657.793 1185.51 669.992C1184.98 673.348 1184.96 676.772 1184.95 680.19C1184.92 684.651 1184.9 689.1 1183.74 693.369C1183.38 694.698 1182.91 695.994 1182.44 697.289C1181.78 699.136 1181.12 700.98 1180.76 702.912C1179.96 707.203 1180.75 711.585 1181.53 715.902C1181.66 716.6 1181.79 717.297 1181.91 717.992C1184.03 730.419 1184.03 743.189 1184.03 755.873V755.873C1184.01 762.704 1183.92 769.596 1182.7 776.305C1181.84 780.761 1180.45 785.07 1179.05 789.382C1177.89 792.944 1176.73 796.509 1175.88 800.158C1173.46 810.374 1173.69 821.97 1174.51 832.467C1172.31 831.636 1169.87 832.443 1167.75 833.506L1165.7 834.557C1165.9 836.427 1166.1 838.329 1166.29 840.224L1166.33 840.667H1165.45C1165.87 841.128 1166.2 841.668 1166.41 842.255C1167.83 845.33 1167.72 849.177 1167.62 853.023C1167.53 856.148 1167.44 859.272 1168.18 861.978C1168.6 863.537 1169.22 865.054 1169.83 866.568C1170.91 869.231 1171.99 871.884 1171.99 874.736C1172.03 878.125 1170.58 881.362 1168.02 883.583C1163.36 887.505 1156.63 886.736 1150.71 885.77C1146.84 885.135 1142.4 884.121 1140.64 880.455C1139.16 877.397 1140.22 874.054 1141.3 870.655C1142.24 867.723 1143.18 864.749 1142.52 861.88C1142.15 860.277 1141.31 858.848 1140.47 857.423C1139.51 855.808 1138.56 854.199 1138.32 852.349C1138.2 850.51 1138.45 848.666 1139.05 846.923C1139.56 844.562 1140.44 842.294 1141.65 840.202C1142.85 838.111 1145 836.741 1147.4 836.536H1147.91C1147.77 836.029 1147.71 835.499 1147.75 834.972C1147.77 834.175 1147.72 833.31 1147.68 832.435C1147.64 831.646 1147.59 830.849 1147.59 830.084L1146.37 829.278L1146.36 829.137C1144.34 810.915 1142.33 792.632 1142.41 774.288C1142.41 770.724 1142.5 767.143 1142.59 763.561C1142.77 756.397 1142.96 749.234 1142.41 742.211C1142.12 738.506 1141.65 734.811 1141.17 731.118C1140.3 724.314 1139.42 717.516 1139.72 710.672C1139.87 707.366 1140.3 704.089 1140.73 700.809C1140.92 699.336 1141.11 697.863 1141.27 696.387C1142.81 681.206 1142.96 665.917 1141.73 650.709C1140.68 650.978 1140.3 652.689 1140.68 653.703C1139.2 655.118 1138.02 656.819 1137.22 658.701C1135.35 662.966 1134.94 668.122 1134.7 672.9L1133.19 702.692C1133.18 702.95 1133.16 703.208 1133.14 703.466C1133.11 703.917 1133.07 704.368 1133.07 704.819C1132.98 706.94 1132.68 709.048 1132.18 711.112C1132.05 711.601 1131.9 712.089 1131.74 712.566C1131.59 713.049 1131.42 713.525 1131.26 714.002C1131.1 714.478 1130.94 714.955 1130.79 715.438C1130.64 715.914 1130.49 716.403 1130.38 716.892C1130.17 717.776 1130.02 718.674 1129.93 719.58C1129.84 720.478 1129.81 721.379 1129.83 722.281C1129.88 725.543 1130.52 728.85 1131.17 732.164C1131.6 734.337 1132.02 736.512 1132.28 738.68C1132.54 740.939 1132.64 743.213 1132.6 745.486C1132.55 749.164 1132.19 752.841 1131.84 756.507L1131.8 756.875C1130.54 769.494 1129.28 782.121 1128.04 794.757C1127.61 799.058 1127.18 803.396 1126.89 807.734C1126.83 808.602 1126.78 809.469 1126.74 810.337C1126.7 811.205 1126.65 812.072 1126.59 812.94C1126.49 814.409 1126.48 815.869 1126.48 817.335C1126.47 817.601 1126.47 817.867 1126.47 818.133C1126.46 819.869 1126.48 821.592 1126.56 823.315C1126.57 823.649 1126.59 823.982 1126.62 824.315C1126.65 824.844 1126.69 825.372 1126.69 825.905C1126.81 827.616 1126.97 829.339 1127.19 831.038C1127.41 832.736 1127.68 834.435 1128.02 836.133C1128.19 836.976 1128.38 837.832 1128.59 838.675C1127.94 838.871 1127.28 839.026 1126.62 839.139C1125.54 839.327 1124.45 839.417 1123.35 839.408C1123.37 839.566 1123.4 839.724 1123.42 839.881C1123.47 840.222 1123.53 840.56 1123.53 840.887C1123.99 843.493 1124.73 846.044 1125.71 848.5C1129.14 849.089 1129.24 851.891 1129.38 855.78C1129.4 856.406 1129.43 857.06 1129.47 857.738C1129.8 863.48 1129.82 869.236 1129.54 874.98C1129.58 875.828 1129.39 876.67 1129 877.424C1128.51 878.113 1127.79 878.609 1126.97 878.829C1124.96 879.455 1122.87 879.141 1120.76 878.826C1119.41 878.623 1118.05 878.42 1116.7 878.463C1113.52 878.566 1110.61 880.028 1107.7 881.494C1106.47 882.114 1105.24 882.734 1103.98 883.253C1093.58 887.579 1081.79 884.793 1070.97 881.652C1070.03 877.901 1073.05 874.369 1076.05 872.06C1077.7 870.78 1079.46 869.585 1081.21 868.391C1086.07 865.08 1090.94 861.764 1093.78 856.602C1094.26 855.734 1094.68 854.813 1095.11 853.89C1096.26 851.381 1097.41 848.87 1099.64 847.449C1100.73 846.772 1101.96 846.331 1103.23 846.154C1104.11 843.807 1104.96 840.63 1105.59 838.186C1103.18 838.494 1100.96 839.692 1099.38 841.547C1094.16 816.862 1088.91 791.934 1090.31 766.761C1090.64 760.897 1091.32 755.065 1092.01 749.236C1092.36 746.247 1092.71 743.259 1093.01 740.268C1094.4 726.596 1094.81 712.842 1094.24 699.112C1093.65 684.642 1091.97 670.25 1090.29 655.858C1088.51 640.632 1086.74 625.406 1086.25 610.09C1086.23 609.258 1086.21 608.426 1086.19 607.594C1086.05 602.053 1085.91 596.505 1084.85 591.076C1084.41 588.845 1083.82 586.642 1083.23 584.446C1082.02 579.944 1080.82 575.469 1080.97 570.828C1081.08 568.037 1081.85 565.311 1083.21 562.873C1082.47 561.237 1082.29 559.4 1082.72 557.655C1083.33 555.984 1084.15 554.398 1085.17 552.938C1087.11 549.537 1088.76 545.905 1090.4 542.286C1091.67 539.508 1092.92 536.736 1094.31 534.083C1094.8 532.746 1094.93 531.308 1094.71 529.903C1094.52 525.056 1096.05 520.441 1097.59 515.812C1098.43 513.253 1099.29 510.689 1099.85 508.079C1101.01 502.69 1100.92 497.105 1100.84 491.582C1100.82 490.088 1100.79 488.589 1100.76 487.088C1100.7 484.318 1100.64 481.542 1100.64 478.775C1100.69 474.95 1100.41 471.128 1099.81 467.35C1099.22 465.036 1098.81 462.678 1098.59 460.299C1098.68 458.669 1098.64 457.034 1098.45 455.411C1098.28 454.552 1097.9 453.705 1097.53 452.87C1096.84 451.303 1096.16 449.777 1096.83 448.287C1095.66 447.27 1094.71 446.022 1094.04 444.621C1088.76 450.486 1082.31 455.509 1076.01 460.262L1063.51 469.721C1059.58 472.678 1055.61 475.672 1051.03 477.248C1050.39 477.463 1049.74 477.653 1049.09 477.843C1047.12 478.419 1045.17 478.992 1043.56 480.242C1042.92 480.738 1042.32 481.342 1041.72 481.945C1040.32 483.362 1038.92 484.769 1037.05 484.727C1036.09 484.632 1035.16 484.332 1034.33 483.847C1021.19 477.476 1008.15 470.93 995.211 464.209C992.646 463.024 990.27 461.467 988.158 459.59C985.999 457.627 984.766 454.846 984.76 451.928C984.808 451.186 984.943 450.452 985.163 449.741C979.471 445.072 973.329 440.978 966.828 437.521C965.02 436.562 963.181 435.649 961.34 434.735C955.587 431.88 949.824 429.02 945.008 424.715C942.87 422.791 940.962 420.626 939.324 418.263C938.346 416.894 937.503 415.049 938.346 413.607C939.397 411.811 942.013 412.324 943.896 413.106C945.721 413.838 947.501 414.679 949.225 415.623C950.737 416.467 952.186 417.433 953.634 418.399C955.312 419.519 956.988 420.637 958.76 421.562C962.06 423.285 965.948 424.312 969.48 423.163C970.065 423.001 970.602 422.699 971.045 422.283C972.053 421.242 971.942 419.605 971.841 418.116C971.832 417.98 971.823 417.846 971.815 417.713C971.621 416.268 971.895 414.799 972.597 413.521C973.318 412.223 974.928 411.714 976.264 412.361C976.949 412.882 977.474 413.585 977.78 414.389C979.88 418.288 981.43 422.457 982.389 426.78C982.562 428.265 982.861 429.732 983.281 431.167C984.218 433.962 986.22 435.104 988.259 436.267C989.518 436.985 990.792 437.712 991.838 438.841C991.934 438.958 992.024 439.08 992.107 439.208C992.334 438.944 992.63 438.75 992.962 438.645C993.566 438.576 994.174 438.728 994.674 439.073C1004.82 444.438 1015.76 447.981 1026.64 451.489C1030.56 452.759 1035.06 453.957 1038.54 451.696C1040.27 450.361 1041.71 448.7 1042.8 446.808C1044.68 442.888 1048.54 439.216 1051.78 436.127C1052.2 435.73 1052.6 435.344 1052.99 434.967C1056.37 431.767 1059.91 428.737 1063.59 425.888C1064.18 425.436 1064.84 424.849 1065.55 424.217C1067.18 422.778 1069.07 421.103 1070.93 420.255C1070.91 420.133 1070.91 420.01 1070.93 419.888C1071.72 415.59 1074.72 412.294 1077.66 409.064C1078.31 408.354 1078.95 407.648 1079.57 406.935C1082.67 403.353 1085.24 399.339 1087.18 395.021C1087.3 394.766 1087.41 394.509 1087.52 394.251C1088.75 391.452 1090.04 388.535 1092.6 387.114C1094.69 385.954 1097.12 386.105 1099.55 386.255C1100.37 386.306 1101.18 386.357 1101.99 386.357C1103.91 386.32 1105.82 386.124 1107.71 385.77C1108.23 385.735 1108.74 385.576 1109.19 385.306C1110.02 384.478 1110.42 383.306 1110.26 382.141C1110.15 380.279 1110.35 378.412 1110.86 376.617C1111.37 374.822 1112.89 373.495 1114.74 373.232C1115.3 373.213 1115.86 373.331 1116.37 373.575C1116.28 371.586 1115.87 369.626 1115.15 367.77C1114.23 366.019 1113.07 364.403 1111.7 362.968C1097.49 360.304 1086.71 347.387 1086.71 331.832V329.901C1084.64 328.85 1083.92 327.371 1083.57 324.377C1083.3 322.117 1084.8 311.18 1085.94 309.323C1086.6 308.537 1087.51 307.999 1088.52 307.795C1093.24 306.068 1096.41 301.854 1099.59 297.631C1102.66 293.549 1105.74 289.458 1110.24 287.596C1115.13 285.592 1120.74 286.728 1125.59 288.818C1128.06 289.879 1130.4 291.199 1132.74 292.523C1135.01 293.806 1137.29 295.092 1139.7 296.15C1140.26 296.393 1140.83 296.629 1141.4 296.864C1144.47 298.13 1147.57 299.412 1149.48 302.101C1151.75 305.303 1151.65 309.444 1151.54 313.589C1151.44 317.686 1151.34 321.787 1153.53 324.988C1153.84 325.437 1154.19 325.878 1154.55 326.32C1155.61 327.647 1156.68 328.99 1156.54 330.622C1156.38 332.559 1154.62 333.789 1153.04 334.898C1152.85 335.034 1152.66 335.169 1152.47 335.302C1151.5 336.03 1150.59 336.881 1149.68 337.737C1148.77 338.589 1147.86 339.446 1146.87 340.19L1146.37 340.544C1145.61 343.303 1144.48 345.949 1143.02 348.414C1144.88 351.519 1146.98 354.481 1149.28 357.273C1150.69 359.17 1152.26 360.948 1153.96 362.589C1156.42 362.411 1158.89 363.606 1161.29 364.761C1161.84 365.031 1162.4 365.299 1162.95 365.546C1168.42 368.014 1174.42 368.52 1180.4 369.024C1181.97 369.156 1183.54 369.289 1185.1 369.457C1192.59 370.263 1200.51 371.998 1205.77 377.595C1206.71 378.598 1207.54 379.704 1208.37 380.811C1209.14 381.834 1209.91 382.858 1210.77 383.803C1211.38 384.48 1212.03 385.115 1212.68 385.75C1213.68 386.731 1214.69 387.71 1215.53 388.837C1217.98 392.091 1218.84 396.169 1219.71 400.259C1220.1 402.082 1220.48 403.908 1221.01 405.664C1221.56 407.488 1222.27 409.254 1222.97 411.018C1223.86 413.227 1224.74 415.433 1225.31 417.749C1225.68 419.251 1225.94 420.799 1226.21 422.348C1226.79 425.791 1227.38 429.236 1229.11 432.169L1228.36 432.878C1229.2 434.241 1229.91 435.681 1230.47 437.179C1231.58 440.626 1232.47 444.14 1233.12 447.7C1233.86 450.83 1234.82 453.905 1235.77 456.982ZM1206.27 499.623C1207.81 494.51 1209.04 489.307 1209.94 484.042L1209.97 484.067C1210.28 482.681 1210.31 481.248 1210.06 479.851C1209.67 478.54 1209.07 477.302 1208.29 476.185C1205.48 471.239 1203.06 466.088 1201.04 460.776C1200.95 460.702 1200.95 460.629 1200.95 460.543C1199.65 463.02 1198.67 465.681 1197.7 468.345C1196.98 470.322 1196.26 472.3 1195.4 474.205C1194.68 475.814 1193.85 477.379 1193.03 478.942C1191.39 482.056 1189.75 485.162 1188.93 488.588C1187.69 493.793 1188.42 499.169 1189.16 504.559C1189.51 507.079 1189.85 509.601 1190 512.111C1190.23 516.15 1189.95 520.275 1189.66 524.382C1189.22 530.874 1188.77 537.32 1190.38 543.309C1190.68 542.623 1191.03 541.957 1191.42 541.317C1193.12 538.752 1194.43 535.947 1195.3 532.995L1197.83 525.663L1197.91 525.427C1200.83 516.866 1203.75 508.316 1206.27 499.623Z" fill="url(#paint1_linear)"/>
<path fill-rule="evenodd" clip-rule="evenodd" d="M984.036 431.699C983.598 430.261 983.289 428.788 983.111 427.295C982.319 422.903 980.298 418.854 978.314 414.854C977.998 414.035 977.453 413.325 976.743 412.811C975.373 412.199 973.763 412.695 972.969 413.973C972.249 415.25 971.963 416.727 972.154 418.182C972.263 419.796 972.507 421.643 971.375 422.781C970.904 423.201 970.34 423.503 969.731 423.662C966.079 424.824 962.025 423.784 958.579 422.059C955.134 420.335 952.066 417.912 948.67 416.09C946.873 415.143 945.023 414.302 943.13 413.57C941.17 412.775 938.455 412.261 937.36 414.071C936.483 415.515 937.36 417.362 938.37 418.744C940.078 421.131 942.065 423.303 944.287 425.215C950.885 430.928 959.225 434.109 966.98 438.085C975.667 442.54 983.766 448.072 991.085 454.55C991.794 453.704 992.22 452.656 992.302 451.553C992.886 448.434 995.455 442.121 992.862 439.418C990.025 436.445 985.606 436.25 984.036 431.699Z" fill="#E2A4AA"/>
<path fill-rule="evenodd" clip-rule="evenodd" d="M1106 849.922C1112.44 854.987 1120.61 857.292 1128.73 856.34C1130.41 856.133 1132.35 855.525 1132.9 853.909C1133.1 852.927 1132.99 851.907 1132.59 850.992C1131.31 847.933 1130.33 844.759 1129.65 841.512C1129.23 838.558 1129.34 835.046 1126.95 833.271C1123.5 830.706 1114.47 830.84 1112.23 834.815C1111.7 835.665 1108.32 851.879 1106 849.922Z" fill="#3C354C"/>
<path fill-rule="evenodd" clip-rule="evenodd" d="M1155.16 836.018C1154.99 836.642 1155.11 837.305 1155.48 837.837C1155.86 838.369 1156.45 838.716 1157.1 838.79C1162.58 840.446 1168.27 841.374 1174 841.55L1172.81 830.347C1172.85 829.84 1172.67 829.339 1172.3 828.976C1171.94 828.613 1171.43 828.424 1170.91 828.46C1167.62 827.925 1160.69 825.747 1157.53 826.865C1153.98 828.123 1155.23 832.676 1155.16 836.018Z" fill="#3C354C"/>
<path fill-rule="evenodd" clip-rule="evenodd" d="M1120.73 367.287C1121.67 369.757 1122.14 372.385 1122.1 375.03C1122.41 384.51 1120.79 394.749 1114.24 401.55C1121.59 399.336 1129.86 400.669 1136.8 397.367C1140.02 395.838 1142.72 393.403 1145.73 391.507C1151.1 388.131 1157.35 386.492 1162.93 383.483C1168.51 380.474 1173.68 375.397 1174 369.036C1171.57 366.467 1167.68 366.101 1164.5 364.547C1161.07 362.859 1158.54 359.776 1156.12 356.804C1153.27 353.527 1150.77 349.956 1148.67 346.149C1146.56 342.315 1145.71 337.903 1146.24 333.55C1140.04 334.675 1135.54 340.131 1129.68 342.467C1127.39 343.373 1124.93 343.789 1122.71 344.828C1119.54 346.296 1113.12 351.287 1113 355.201C1113.01 359.471 1119.08 363.519 1120.73 367.287Z" fill="#C79DA1"/>
<path opacity="0.1" fill-rule="evenodd" clip-rule="evenodd" d="M1120.73 367.287C1121.67 369.757 1122.14 372.385 1122.1 375.03C1122.41 384.51 1120.79 394.749 1114.24 401.55C1121.59 399.336 1129.86 400.669 1136.8 397.367C1140.02 395.838 1142.72 393.403 1145.73 391.507C1151.1 388.131 1157.35 386.492 1162.93 383.483C1168.51 380.474 1173.68 375.397 1174 369.036C1171.57 366.467 1167.68 366.101 1164.5 364.547C1161.07 362.859 1158.54 359.776 1156.12 356.804C1153.27 353.527 1150.77 349.956 1148.67 346.149C1146.56 342.315 1145.71 337.903 1146.24 333.55C1140.04 334.675 1135.54 340.131 1129.68 342.467C1127.39 343.373 1124.93 343.789 1122.71 344.828C1119.54 346.296 1113.12 351.287 1113 355.201C1113.01 359.471 1119.08 363.519 1120.73 367.287Z" fill="#E2A4AA"/>
<path fill-rule="evenodd" clip-rule="evenodd" d="M1201.75 614.222C1199.45 632.818 1197.85 652.146 1194.82 670.657C1193.6 678.406 1195.11 686.52 1192.98 694.085C1192.07 697.319 1190.54 700.357 1189.87 703.64C1188.91 708.643 1190.18 713.755 1191.09 718.758C1193.33 731.266 1193.33 744.066 1193.3 756.781C1193.3 763.626 1193.3 770.532 1191.92 777.256C1190.29 785.419 1186.78 793.119 1184.82 801.148C1182.3 811.398 1182.54 823.014 1183.39 833.533C1181.1 832.703 1178.52 833.533 1176.35 834.57C1174.18 835.607 1171.99 837.01 1169.57 837.169C1166.29 837.474 1163.21 835.741 1160.38 834.057C1158.21 832.776 1156.32 831.617 1154.17 830.299C1152.06 811.996 1149.95 793.619 1150.04 775.182C1150.04 764.468 1150.88 753.73 1150.04 743.041C1149.2 732.352 1146.75 722.004 1147.25 711.437C1147.48 706.629 1148.3 701.895 1148.85 697.124C1150.65 681.676 1150.4 666.862 1149.32 651.353C1148.26 651.622 1147.83 653.33 1148.22 654.343C1146.68 655.747 1145.43 657.454 1144.57 659.358C1142.62 663.629 1142.21 668.802 1141.95 673.586L1140.38 703.445C1140.34 706.285 1139.99 709.112 1139.33 711.876C1138.78 713.841 1137.95 715.696 1137.46 717.672C1135.66 724.823 1138.54 732.193 1139.45 739.502C1140.2 745.603 1139.56 751.704 1138.94 757.732L1135.03 795.706C1133.61 809.519 1132.22 823.624 1135.03 837.193C1135.21 838.035 1135.4 838.889 1135.62 839.744C1134.94 839.939 1134.26 840.093 1133.57 840.207C1131.15 840.549 1128.69 840.549 1126.26 840.207C1124 839.975 1121.7 839.585 1119.46 839.316C1114.08 838.706 1108.71 838.474 1105.14 842.55C1099.71 817.877 1094.25 792.826 1095.7 767.604C1096.21 758.721 1097.57 749.898 1098.51 741.052C1099.97 727.36 1100.41 713.578 1099.83 699.82C1098.61 669.974 1092.52 640.457 1091.51 610.598C1091.3 604.228 1091.32 597.798 1090.06 591.55C1088.67 584.778 1085.78 578.128 1086.01 571.258C1086.24 564.388 1091.25 556.761 1098.19 557.14C1117.36 558.201 1134.86 547.61 1153.97 545.804C1162.65 544.974 1171.47 543.742 1180.05 545.291C1188.64 546.841 1197.19 551.71 1200.57 559.763C1202.4 564.144 1202.54 569 1202.68 573.735C1203.07 587.255 1203.42 600.812 1201.75 614.222Z" fill="#575A89"/>
<path fill-rule="evenodd" clip-rule="evenodd" d="M1105.32 848.046C1102.12 850.018 1101.02 854.05 1099.17 857.316C1095.09 864.43 1087.09 868.079 1080.52 872.96C1077.37 875.315 1074.19 878.878 1075.19 882.687C1086.56 885.855 1098.94 888.678 1109.91 884.302C1114.36 882.527 1118.53 879.593 1123.29 879.445C1126.92 879.334 1130.68 880.862 1134.09 879.815C1134.95 879.614 1135.71 879.111 1136.23 878.397C1136.63 877.638 1136.83 876.789 1136.8 875.931C1137.09 870.111 1137.07 864.279 1136.71 858.463C1136.37 852.78 1137.13 848.761 1130.65 849.007C1123.22 849.328 1111.77 844.064 1105.32 848.046Z" fill="#CBCEDA"/>
<path fill-rule="evenodd" clip-rule="evenodd" d="M1158.61 838.488C1157.28 837.956 1155.88 837.64 1154.45 837.55C1151.99 837.743 1149.78 839.101 1148.48 841.204C1147.23 843.284 1146.31 845.554 1145.78 847.926C1145.16 849.662 1144.91 851.507 1145.03 853.346C1145.5 856.829 1148.58 859.436 1149.39 862.87C1150.86 869.069 1144.53 875.755 1147.42 881.455C1149.26 885.109 1153.87 886.132 1157.89 886.765C1164.04 887.739 1171.03 888.506 1175.87 884.573C1178.5 882.402 1180.02 879.159 1180 875.743C1179.93 871.261 1177.24 867.279 1176.03 862.967C1174.34 856.878 1176.88 848.816 1174.19 843.25C1171.89 838.488 1163.51 840.059 1158.61 838.488Z" fill="#CBCEDA"/>
<path fill-rule="evenodd" clip-rule="evenodd" d="M1123 363.55C1140.67 363.55 1155 349.223 1155 331.55C1155 313.877 1140.67 299.55 1123 299.55C1105.33 299.55 1091 313.877 1091 331.55C1091 349.223 1105.33 363.55 1123 363.55Z" fill="#E2A4AA"/>
<path fill-rule="evenodd" clip-rule="evenodd" d="M1140.01 383.619C1136.59 382.163 1132.78 381.876 1129.18 382.801L1126.29 377.757C1125.07 375.535 1123.25 373.019 1120.7 373.117C1118.8 373.362 1117.23 374.694 1116.66 376.524C1116.13 378.317 1115.92 380.189 1116.03 382.056C1116.2 383.236 1115.78 384.425 1114.92 385.243C1114.44 385.503 1113.92 385.661 1113.38 385.707C1111.41 386.055 1109.41 386.25 1107.41 386.293C1104.09 386.293 1100.54 385.487 1097.65 387.05C1094.76 388.613 1093.41 391.935 1092.01 394.988C1089.96 399.335 1087.29 403.359 1084.08 406.931C1080.5 410.9 1076.07 414.661 1075.06 419.912C1074.63 422.146 1076.66 423.807 1078.27 425.419C1084.67 431.781 1093.61 435.689 1098.36 443.382C1099.47 445.177 1100.37 447.205 1102.08 448.438C1101.02 450.746 1103.3 453.115 1103.77 455.594C1103.96 457.215 1104.01 458.849 1103.91 460.479C1104.12 462.865 1104.53 465.23 1105.13 467.549C1105.75 471.334 1106.04 475.167 1106 479.003L1106.2 491.85C1106.29 497.394 1106.37 502.987 1105.17 508.397C1103.52 515.724 1099.49 522.745 1099.81 530.28C1100.04 531.692 1099.9 533.142 1099.39 534.481C1096.06 540.586 1093.44 547.352 1089.86 553.384C1088.84 554.848 1088.02 556.441 1087.42 558.122C1086.47 561.603 1088.42 565.376 1091.3 567.55C1094.18 569.723 1097.82 570.615 1101.36 571.286C1134.24 577.587 1168.37 570.004 1199.44 557.548C1200.26 557.292 1201.02 556.877 1201.68 556.327C1203.95 554.117 1202.17 550.392 1200.87 547.51C1195.99 536.776 1199.88 524.308 1199.19 512.585C1198.72 504.684 1196.16 496.71 1198.09 488.993C1199.31 483.839 1202.57 479.394 1204.83 474.583C1207.27 469.369 1208.63 463.592 1211.83 458.83C1214.23 455.557 1217.03 452.603 1220.17 450.038L1240 432.355C1237.38 428.093 1237.27 422.745 1236.03 417.897C1234.96 413.72 1232.82 409.886 1231.54 405.783C1229.76 400.068 1229.52 393.571 1225.83 388.894C1224.38 387.026 1222.49 385.573 1220.86 383.851C1219.01 381.873 1217.54 379.565 1215.65 377.623C1210.17 372.006 1201.91 370.223 1194.11 369.466C1186.31 368.709 1178.25 368.672 1171.02 365.546C1167.48 364.019 1163.7 361.711 1160.04 362.859C1157.13 363.763 1155.27 366.608 1154.08 369.429C1152.9 372.25 1152.07 375.291 1150.13 377.647C1147.73 380.456 1143.5 382.312 1140.01 383.619Z" fill="#3C354C"/>
<path fill-rule="evenodd" clip-rule="evenodd" d="M1045.66 447.67C1044.51 449.566 1043 451.219 1041.2 452.537C1037.53 454.788 1032.86 453.596 1028.75 452.33C1017.37 448.814 1005.91 445.285 995.282 439.919C994.756 439.569 994.122 439.418 993.493 439.493C993.002 439.649 992.573 439.956 992.267 440.369C990.596 442.208 989.06 444.164 987.672 446.222C986.205 448.13 985.282 450.396 985 452.78C985.018 455.718 986.308 458.507 988.542 460.434C990.759 462.312 993.235 463.865 995.895 465.046C1009.45 471.763 1023.09 478.305 1036.83 484.673C1037.71 485.159 1038.68 485.457 1039.68 485.549C1042.48 485.61 1044.25 482.726 1046.49 481.071C1048.72 479.416 1051.64 478.954 1054.3 478.078C1059.11 476.508 1063.29 473.515 1067.38 470.558L1080.47 461.116C1091.94 452.841 1103.99 443.825 1109 430.695L1093.07 425.487C1088.29 423.918 1083.26 421.533 1078.3 420.62C1074.62 419.914 1070.2 424.733 1067.44 426.789C1063.57 429.643 1059.84 432.693 1056.28 435.927C1052.75 439.14 1047.89 443.253 1045.66 447.67Z" fill="#3C354C"/>
<path fill-rule="evenodd" clip-rule="evenodd" d="M1196.47 551.17C1192.03 552.939 1186.99 550.273 1182.28 551.06C1180.07 551.554 1177.96 552.427 1176.06 553.642L1162.3 561.337C1161.45 561.798 1160.53 562.925 1161.27 563.531C1161.48 563.672 1161.73 563.755 1161.98 563.773C1166.57 564.367 1170.86 561.567 1175.43 560.792C1177.43 560.518 1179.46 560.441 1181.48 560.562C1181.81 560.542 1182.15 560.591 1182.46 560.707C1183.14 561.098 1183.54 561.849 1183.48 562.634C1183.48 563.409 1183.25 564.161 1183.22 564.936C1183.36 566.723 1184.06 568.42 1185.22 569.784C1189.6 576.073 1194.46 582.013 1199.75 587.55C1201.09 585.85 1202.26 584.014 1203.22 582.072L1207.74 573.589C1212.44 564.839 1217.25 555.763 1218 545.862C1214.61 544.783 1208.31 541.208 1204.81 543.086C1201.31 544.965 1200.5 549.873 1196.47 551.17Z" fill="#E2A4AA"/>
<path fill-rule="evenodd" clip-rule="evenodd" d="M1118.91 326.976C1127.84 327.93 1135.98 332.164 1143.97 336.325C1142.61 338.479 1144.34 341.575 1146.77 342.309C1149.19 343.043 1151.85 342.003 1153.91 340.498C1155.97 338.993 1157.67 337.047 1159.74 335.603C1161.52 334.379 1163.79 333.082 1163.99 330.904C1164.18 328.726 1162.13 327.049 1160.85 325.238C1156.25 318.764 1161.34 308.632 1156.63 302.232C1154.27 299.026 1150.16 297.814 1146.51 296.248C1141.46 294.094 1136.86 290.986 1131.8 288.844C1126.74 286.703 1120.91 285.589 1115.81 287.62C1106.27 291.426 1102.86 304.508 1093.17 307.922C1092.13 308.128 1091.19 308.67 1090.48 309.464C1089.26 311.324 1087.73 322.325 1088.04 324.589C1088.5 328.371 1089.54 329.766 1093.25 330.892C1101.18 333.266 1110.42 326.058 1118.91 326.976Z" fill="#3F3D56"/>
<path fill-rule="evenodd" clip-rule="evenodd" d="M1234.63 427.55C1237.49 430.158 1239.71 433.389 1241.13 436.996C1242.28 440.444 1243.2 443.967 1243.87 447.541C1245.54 454.399 1248.28 460.965 1249.75 467.849C1252.25 479.609 1250.98 491.865 1246.11 502.85C1244.38 506.683 1242.22 510.368 1241.32 514.481C1240.98 516.055 1240.83 517.691 1240.38 519.241C1239.63 521.404 1238.6 523.457 1237.32 525.343L1217.4 557.55C1215.86 553.749 1212.76 550.797 1208.9 549.446C1205.07 548.147 1200.96 547.898 1197 548.726C1198.48 546.383 1199.14 543.759 1200.64 541.404C1201.47 540.153 1202.23 538.857 1202.91 537.523C1203.59 536.075 1204.18 534.587 1204.69 533.068L1207.3 525.66C1210.36 517.007 1213.37 508.355 1216.05 499.568C1217.67 494.45 1218.95 489.232 1219.89 483.946C1220.18 482.602 1220.22 481.214 1219.99 479.858C1219.58 478.519 1218.96 477.257 1218.14 476.123C1215.24 471.183 1212.73 466.026 1210.62 460.697C1209.05 456.975 1207.46 452.789 1208.88 449.005C1209.78 447.002 1211.12 445.226 1212.79 443.806C1219.41 437.542 1226.74 432.086 1234.63 427.55V427.55Z" fill="#3C354C"/>
<path opacity="0.1" fill-rule="evenodd" clip-rule="evenodd" d="M1133.16 840.55L1134.6 837.535C1131.84 823.987 1133.21 809.877 1134.6 796.036L1138.46 758.052C1139.07 751.949 1139.66 745.846 1138.96 739.816C1138.06 732.493 1135.23 725.17 1136.99 717.98C1137.48 716.003 1138.3 714.148 1138.84 712.183C1139.48 709.418 1139.83 706.59 1139.87 703.748L1141.42 673.881C1141.67 669.096 1142.08 663.921 1144 659.649V658.831L1139.06 615.55L1126 840.55H1133.16Z" fill="black"/>
<path d="M1018.69 858.55C1022.37 851.829 1018.2 843.583 1013.44 837.594C1008.67 831.604 1002.88 825.396 1003 817.723C1003.19 806.745 1014.89 800.267 1024.25 794.437C1031.19 790.123 1037.6 785 1043.32 779.177C1045.72 776.938 1047.71 774.295 1049.18 771.37C1051.12 767.076 1051.07 762.197 1050.95 757.501C1050.53 741.838 1049.75 726.188 1048.61 710.55" stroke="#3F3D56" stroke-width="4"/>
<path fill-rule="evenodd" clip-rule="evenodd" d="M1065.97 709.804C1065.71 704.002 1062.5 698.736 1057.47 695.838L1053.66 703.392L1053.78 694.247C1051.96 693.713 1050.06 693.483 1048.16 693.567C1038.79 694.031 1031.57 701.991 1032.02 711.357C1032.47 720.724 1040.41 727.96 1049.78 727.532C1059.14 727.104 1066.39 719.172 1065.98 709.804H1065.97Z" fill="#57B894"/>
<path fill-rule="evenodd" clip-rule="evenodd" d="M1035.11 825.344C1031.42 832.484 1023.24 836.07 1015.49 833.94C1007.75 831.811 1002.55 824.549 1003.03 816.529C1003.51 808.509 1009.55 801.922 1017.49 800.737C1025.44 799.552 1033.13 804.093 1035.93 811.623L1025.28 820.329L1037 817.622C1036.99 820.309 1036.34 822.956 1035.11 825.344Z" fill="#57B894"/>
<path fill-rule="evenodd" clip-rule="evenodd" d="M1027.52 792.507C1018.59 793.125 1010.65 786.966 1009.22 778.309C1007.79 769.652 1013.35 761.357 1022.02 759.188L1021.92 766.183L1025.85 758.57C1030.45 758.35 1034.94 759.932 1038.34 762.967C1041.75 766.001 1043.77 770.238 1043.98 774.74C1044.08 776.7 1043.83 778.662 1043.24 780.537C1041.1 787.377 1034.81 792.166 1027.52 792.507Z" fill="#57B894"/>
<path fill-rule="evenodd" clip-rule="evenodd" d="M1068.69 764.538C1061.49 764.802 1054.9 760.534 1052.23 753.873C1049.55 747.212 1051.35 739.592 1056.74 734.831C1062.13 730.07 1069.94 729.193 1076.26 732.64L1073.24 740.897L1079.46 734.947C1082.79 737.986 1084.77 742.217 1084.98 746.713C1085.06 748.292 1084.92 749.874 1084.55 751.412C1082.82 758.834 1076.33 764.198 1068.69 764.538Z" fill="#57B894"/>
<path opacity="0.1" fill-rule="evenodd" clip-rule="evenodd" d="M1064.1 714.854C1060.23 715.273 1056.46 716.483 1052.58 716.722C1048.69 716.962 1044.43 716.04 1041.96 713.01C1040.65 711.382 1039.98 709.322 1038.87 707.538C1037.81 705.88 1036.35 704.51 1034.64 703.55C1031.88 709.333 1032.65 716.187 1036.63 721.208C1040.6 726.229 1047.09 728.537 1053.34 727.155C1059.59 725.773 1064.5 720.943 1066 714.71C1065.37 714.734 1064.74 714.782 1064.1 714.854Z" fill="black"/>
<path opacity="0.1" fill-rule="evenodd" clip-rule="evenodd" d="M1069.06 764.528C1063.02 764.828 1057.25 762 1053.89 757.084C1050.53 752.167 1050.07 745.887 1052.67 740.55C1054.04 741.448 1055.21 742.596 1056.13 743.931C1057.36 745.741 1058.11 747.839 1059.55 749.494C1062.23 752.575 1066.81 753.582 1070.98 753.402C1075.14 753.223 1079.16 752.06 1083.26 751.688C1083.83 751.688 1084.41 751.604 1085 751.592C1083.25 758.898 1076.74 764.18 1069.06 764.528Z" fill="black"/>
<path opacity="0.1" fill-rule="evenodd" clip-rule="evenodd" d="M1027.64 792.528C1021.79 792.828 1016.21 790.023 1012.91 785.126C1009.62 780.228 1009.08 773.947 1011.5 768.55C1012.89 769.473 1014.11 770.645 1015.1 772.008C1016.4 773.877 1017.22 776.037 1018.76 777.76C1021.6 780.952 1026.37 782.08 1030.67 781.983C1034.96 781.886 1038.86 780.855 1043 780.527C1040.92 787.416 1034.76 792.226 1027.64 792.528Z" fill="black"/>
<path opacity="0.1" fill-rule="evenodd" clip-rule="evenodd" d="M1036 825.467C1032.11 834.056 1021.91 837.903 1013.21 834.06C1004.51 830.217 1000.62 820.139 1004.51 811.55C1005.93 812.471 1007.21 813.597 1008.3 814.893C1009.95 816.862 1011.03 819.11 1012.93 820.97C1016.46 824.397 1022.16 825.832 1027.24 825.941C1030.17 825.955 1033.09 825.796 1036 825.467Z" fill="black"/>
<path fill-rule="evenodd" clip-rule="evenodd" d="M993 850.986C993 850.986 1006.44 850.563 1010.49 847.606C1014.54 844.649 1031.11 841.133 1032.15 845.867C1033.19 850.6 1052.34 869.474 1037.18 869.548C1022.02 869.623 1001.94 867.138 997.888 864.578C993.837 862.019 993 850.986 993 850.986Z" fill="#656380"/>
<path opacity="0.2" fill-rule="evenodd" clip-rule="evenodd" d="M1037.5 867.928C1022.31 868.048 1002.22 865.528 998.172 863.129C995.088 861.269 993.862 854.622 993.449 851.55H993C993 851.55 993.85 862.277 997.856 864.748C1001.86 867.22 1022 869.632 1037.19 869.548C1041.58 869.548 1043.08 867.976 1043 865.696C1042.43 867.04 1040.76 867.892 1037.5 867.928Z" fill="black"/>
<path d="M71.3055 872.55C67.6276 865.829 71.7959 857.583 76.565 851.594C81.334 845.604 87.1207 839.396 86.9981 831.723C86.8142 820.745 75.106 814.267 65.7518 808.437C58.8059 804.123 52.4019 799 46.6755 793.177C44.2756 790.938 42.2917 788.295 40.8153 785.37C38.8782 781.076 38.9273 776.197 39.0499 771.501C39.4667 755.838 40.2473 740.188 41.3915 724.55" stroke="#3F3D56" stroke-width="4"/>
<path fill-rule="evenodd" clip-rule="evenodd" d="M24.0287 723.804C24.2911 718.002 27.4963 712.736 32.5286 709.838L36.3414 717.392L36.2199 708.247C38.0438 707.713 39.9433 707.483 41.842 707.567C51.2064 708.031 58.4268 715.991 57.9804 725.357C57.534 734.724 49.5893 741.96 40.2232 741.532C30.8571 741.104 23.6062 733.172 24.0166 723.804H24.0287Z" fill="#57B894"/>
<path fill-rule="evenodd" clip-rule="evenodd" d="M54.8484 839.344C58.5376 846.484 66.7294 850.07 74.4879 847.94C82.2463 845.811 87.4523 838.549 86.969 830.529C86.4856 822.509 80.445 815.922 72.4869 814.737C64.5287 813.552 56.8266 818.093 54.0215 825.623L64.6853 834.281L53.0001 831.573C52.9894 834.273 53.623 836.937 54.8484 839.344Z" fill="#57B894"/>
<path fill-rule="evenodd" clip-rule="evenodd" d="M62.4805 806.507C71.4113 807.125 79.3477 800.966 80.7764 792.309C82.205 783.652 76.6537 775.357 67.979 773.188L68.0778 780.183L64.1485 772.57C59.5531 772.35 55.0575 773.932 51.6559 776.967C48.2542 780.001 46.2268 784.238 46.022 788.74C45.9204 790.7 46.1714 792.662 46.7633 794.537C48.8985 801.377 55.1875 806.166 62.4805 806.507Z" fill="#57B894"/>
<path fill-rule="evenodd" clip-rule="evenodd" d="M21.3198 778.538C28.5135 778.802 35.0985 774.534 37.7758 767.873C40.4532 761.212 38.6463 753.592 33.2603 748.831C27.8744 744.07 20.0694 743.193 13.7556 746.64L16.7764 754.897L10.5642 748.947C7.22615 751.982 5.23285 756.214 5.02198 760.713C4.94089 762.292 5.08442 763.874 5.44831 765.412C7.18493 772.842 13.6741 778.209 21.3198 778.538Z" fill="#57B894"/>
<path opacity="0.1" fill-rule="evenodd" clip-rule="evenodd" d="M26.9003 727.854C30.7727 728.273 34.5375 729.483 38.4219 729.722C42.3062 729.962 46.573 729.04 49.0351 726.01C50.3498 724.382 51.0191 722.322 52.1306 720.538C53.1922 718.88 54.6454 717.51 56.3615 716.55C59.1227 722.333 58.3507 729.187 54.3729 734.208C50.395 739.229 43.9077 741.537 37.6601 740.155C31.4124 738.773 26.4982 733.943 25 727.71C25.6295 727.734 26.2629 727.782 26.9003 727.854Z" fill="black"/>
<path opacity="0.1" fill-rule="evenodd" clip-rule="evenodd" d="M20.9382 778.528C26.9844 778.828 32.7462 776 36.1073 771.084C39.4683 766.167 39.933 759.887 37.3307 754.55C35.9633 755.448 34.7873 756.596 33.868 757.931C32.6401 759.741 31.8911 761.839 30.4544 763.494C27.7653 766.575 23.1852 767.582 19.0227 767.402C14.8601 767.223 10.8448 766.06 6.74362 765.688C6.16651 765.688 5.58939 765.604 5 765.592C6.75384 772.898 13.2611 778.18 20.9382 778.528Z" fill="black"/>
<path opacity="0.1" fill-rule="evenodd" clip-rule="evenodd" d="M62.3234 805.528C68.1844 805.828 73.7765 803.023 77.0803 798.126C80.384 793.228 80.9221 786.947 78.5001 781.55C77.1008 782.473 75.8791 783.645 74.8946 785.008C73.5846 786.877 72.7674 789.037 71.2891 790.76C68.4408 793.952 63.6575 795.08 59.3549 794.983C55.0523 794.886 51.1463 793.855 47 793.527C49.0812 800.396 55.2164 805.201 62.3234 805.528Z" fill="black"/>
<path opacity="0.1" fill-rule="evenodd" clip-rule="evenodd" d="M54 839.467C57.891 848.056 68.0949 851.903 76.791 848.06C85.4871 844.217 89.3824 834.139 85.4914 825.55C84.0659 826.471 82.7882 827.597 81.7011 828.893C80.0521 830.862 78.9692 833.11 77.074 834.97C73.5421 838.397 67.8444 839.832 62.762 839.941C59.8344 839.955 56.9086 839.796 54 839.467Z" fill="black"/>
<path fill-rule="evenodd" clip-rule="evenodd" d="M97 863.986C97 863.986 83.5616 863.563 79.5106 860.606C75.4597 857.649 58.8921 854.133 57.8491 858.867C56.806 863.6 37.655 882.474 52.8157 882.548C67.9764 882.623 88.0613 880.138 92.1122 877.578C96.1631 875.019 97 863.986 97 863.986Z" fill="#656380"/>
<path opacity="0.2" fill-rule="evenodd" clip-rule="evenodd" d="M52.5033 880.928C67.6916 881.048 87.785 878.528 91.8279 876.129C94.9117 874.269 96.138 867.622 96.5508 864.55H97C97 864.55 96.1501 875.277 92.1436 877.748C88.1371 880.22 67.9952 882.632 52.8068 882.548C48.4239 882.548 46.9184 880.976 47.0034 878.696C47.574 880.04 49.2373 880.892 52.5033 880.928Z" fill="black"/>
<defs>
<linearGradient id="paint0_linear" x1="242.043" y1="892.657" x2="242.043" y2="318.466" gradientUnits="userSpaceOnUse">
<stop stop-color="#808080" stop-opacity="0.25"/>
<stop offset="0.54" stop-color="#808080" stop-opacity="0.12"/>
<stop offset="1" stop-color="#808080" stop-opacity="0.1"/>
</linearGradient>
<linearGradient id="paint1_linear" x1="1240.05" y1="886.491" x2="1240.05" y2="286.496" gradientUnits="userSpaceOnUse">
<stop stop-color="#808080" stop-opacity="0.25"/>
<stop offset="0.54" stop-color="#808080" stop-opacity="0.12"/>
<stop offset="1" stop-color="#808080" stop-opacity="0.1"/>
</linearGradient>
</defs>
</svg>
