<?xml version="1.0" encoding="UTF-8"?>
<svg fill="none" viewBox="0 0 1202 1306" xmlns="http://www.w3.org/2000/svg">
<mask id="a" fill="white">
<path d="m587 365l60.5-35v67.5l-60.5 35v-67.5z"/>
<path d="m528 399.5l60.5-35v67.5l-60.5 35v-67.5z"/>
<path d="m469 434l60.5-35v67.5l-60.5 35v-67.5z"/>
<path d="m410 468.5l60.5-35v67.5l-60.5 35v-67.5z"/>
<path d="m351 503l60.5-35v67.5l-60.5 35v-67.5z"/>
<path d="m292 537.5l60.5-35v67.5l-60.5 35v-67.5z"/>
<path d="m233 572l60.5-35v67.5l-60.5 35v-67.5z"/>
<path d="m174 606.5l60.5-35v67.5l-60.5 35v-67.5z"/>
<path d="m115 641l60.5-35v67.5l-60.5 35v-67.5z"/>
<path d="m56 675.5l60.5-35v67.5l-60.5 35v-67.5z"/>
<path d="m587 299l60.5-35v67.5l-60.5 35v-67.5z"/>
<path d="m528 333.5l60.5-35v67.5l-60.5 35v-67.5z"/>
<path d="m469 368l60.5-35v67.5l-60.5 35v-67.5z"/>
<path d="m410 402.5l60.5-35v67.5l-60.5 35v-67.5z"/>
<path d="m351 437l60.5-35v67.5l-60.5 35v-67.5z"/>
<path d="m292 471.5l60.5-35v67.5l-60.5 35v-67.5z"/>
<path d="m233 506l60.5-35v67.5l-60.5 35v-67.5z"/>
<path d="m174 540.5l60.5-35v67.5l-60.5 35v-67.5z"/>
<path d="m115 575l60.5-35v67.5l-60.5 35v-67.5z"/>
<path d="m56 609.5l60.5-35v67.5l-60.5 35v-67.5z"/>
<path d="m587 233l60.5-35v67.5l-60.5 35v-67.5z"/>
<path d="m528 267.5l60.5-35v67.5l-60.5 35v-67.5z"/>
<path d="m469 302l60.5-35v67.5l-60.5 35v-67.5z"/>
<path d="m410 336.5l60.5-35v67.5l-60.5 35v-67.5z"/>
<path d="m351 371l60.5-35v67.5l-60.5 35v-67.5z"/>
<path d="m292 405.5l60.5-35v67.5l-60.5 35v-67.5z"/>
<path d="m233 440l60.5-35v67.5l-60.5 35v-67.5z"/>
<path d="m174 474.5l60.5-35v67.5l-60.5 35v-67.5z"/>
<path d="m115 509l60.5-35v67.5l-60.5 35v-67.5z"/>
<path d="m56 543.5l60.5-35v67.5l-60.5 35v-67.5z"/>
<path d="m587 167l60.5-35v67.5l-60.5 35v-67.5z"/>
<path d="m528 201.5l60.5-35v67.5l-60.5 35v-67.5z"/>
<path d="m469 236l60.5-35v67.5l-60.5 35v-67.5z"/>
<path d="m410 270.5l60.5-35v67.5l-60.5 35v-67.5z"/>
<path d="m351 305l60.5-35v67.5l-60.5 35v-67.5z"/>
<path d="m292 339.5l60.5-35v67.5l-60.5 35v-67.5z"/>
<path d="m233 374l60.5-35v67.5l-60.5 35v-67.5z"/>
<path d="m174 408.5l60.5-35v67.5l-60.5 35v-67.5z"/>
<path d="m115 443l60.5-35v67.5l-60.5 35v-67.5z"/>
<path d="m56 477.5l60.5-35v67.5l-60.5 35v-67.5z"/>
<path d="m587 101l60.5-35v67.5l-60.5 35v-67.5z"/>
<path d="m528 135.5l60.5-35v67.5l-60.5 35v-67.5z"/>
<path d="m469 170l60.5-35v67.5l-60.5 35v-67.5z"/>
<path d="m410 204.5l60.5-35v67.5l-60.5 35v-67.5z"/>
<path d="m351 239l60.5-35v67.5l-60.5 35v-67.5z"/>
<path d="m292 273.5l60.5-35v67.5l-60.5 35v-67.5z"/>
<path d="m233 308l60.5-35v67.5l-60.5 35v-67.5z"/>
<path d="m174 342.5l60.5-35v67.5l-60.5 35v-67.5z"/>
<path d="m115 377l60.5-35v67.5l-60.5 35v-67.5z"/>
<path d="m56 411.5l60.5-35v67.5l-60.5 35v-67.5z"/>
<path d="M587 35L647.5 0V67.5L587 102.5V35Z"/>
<path d="m528 69.5l60.5-35v67.5l-60.5 35v-67.5z"/>
<path d="m469 104l60.5-35v67.5l-60.5 35v-67.5z"/>
<path d="m410 138.5l60.5-35v67.5l-60.5 35v-67.5z"/>
<path d="m351 173l60.5-35v67.5l-60.5 35v-67.5z"/>
<path d="m292 207.5l60.5-35v67.5l-60.5 35v-67.5z"/>
<path d="m233 242l60.5-35v67.5l-60.5 35v-67.5z"/>
<path d="m174 276.5l60.5-35v67.5l-60.5 35v-67.5z"/>
<path d="m115 311l60.5-35v67.5l-60.5 35v-67.5z"/>
<path d="m56 345.5l60.5-35v67.5l-60.5 35v-67.5z"/>
</mask>
<path d="m587 365l-1.002-1.731-0.998 0.577v1.154h2zm60.5-35h2v-3.468l-3.002 1.737 1.002 1.731zm0 67.5l1.002 1.731 0.998-0.577v-1.154h-2zm-60.5 35h-2v3.468l3.002-1.737-1.002-1.731zm-59-33l-1.001-1.731-0.999 0.577v1.154h2zm60.5-35h2v-3.468l-3.002 1.737 1.002 1.731zm0 67.5l1.002 1.731 0.998-0.577v-1.154h-2zm-60.5 35h-2v3.468l3.001-1.737-1.001-1.731zm-59-33l-1.001-1.731-0.999 0.577v1.154h2zm60.5-35h2v-3.468l-3.001 1.737 1.001 1.731zm0 67.5l1.001 1.731 0.999-0.577v-1.154h-2zm-60.5 35h-2v3.468l3.001-1.737-1.001-1.731zm-59-33l-1.001-1.731-0.999 0.577v1.154h2zm60.5-35h2v-3.468l-3.001 1.737 1.001 1.731zm0 67.5l1.001 1.731 0.999-0.577v-1.154h-2zm-60.5 35h-2v3.468l3.001-1.737-1.001-1.731zm-59-33l-1.001-1.731-0.999 0.577v1.154h2zm60.5-35h2v-3.468l-3.001 1.737 1.001 1.731zm0 67.5l1.001 1.731 0.999-0.577v-1.154h-2zm-60.5 35h-2v3.468l3.001-1.737-1.001-1.731zm-59-33l-1.002-1.731-0.998 0.577v1.154h2zm60.5-35h2v-3.468l-3.001 1.737 1.001 1.731zm0 67.5l1.001 1.731 0.999-0.577v-1.154h-2zm-60.5 35h-2v3.468l3.002-1.737-1.002-1.731zm-59-33l-1.002-1.731-0.998 0.577v1.154h2zm60.5-35h2v-3.468l-3.002 1.737 1.002 1.731zm0 67.5l1.002 1.731 0.998-0.577v-1.154h-2zm-60.5 35h-2v3.468l3.002-1.737-1.002-1.731zm-59-33l-1.002-1.731-0.998 0.577v1.154h2zm60.5-35h2v-3.468l-3.002 1.737 1.002 1.731zm0 67.5l1.002 1.731 0.998-0.577v-1.154h-2zm-60.5 35h-2v3.468l3.002-1.737-1.002-1.731zm-59-33l-1.002-1.731-0.998 0.577v1.154h2zm60.5-35h2v-3.468l-3.002 1.737 1.002 1.731zm0 67.5l1.002 1.731 0.998-0.577v-1.154h-2zm-60.5 35h-2v3.468l3.002-1.737-1.002-1.731zm-59-33l-1.0015-1.731-0.9985 0.577v1.154h2zm60.5-35h2v-3.468l-3.002 1.737 1.002 1.731zm0 67.5l1.002 1.731 0.998-0.577v-1.154h-2zm-60.5 35h-2v3.468l3.0015-1.737-1.0015-1.731zm531-444l-1.002-1.731-0.998 0.577v1.154h2zm60.5-35h2v-3.468l-3.002 1.737 1.002 1.731zm0 67.5l1.002 1.731 0.998-0.577v-1.154h-2zm-60.5 35h-2v3.468l3.002-1.737-1.002-1.731zm-59-33l-1.001-1.731-0.999 0.577v1.154h2zm60.5-35h2v-3.468l-3.002 1.737 1.002 1.731zm0 67.5l1.002 1.731 0.998-0.577v-1.154h-2zm-60.5 35h-2v3.468l3.001-1.737-1.001-1.731zm-59-33l-1.001-1.731-0.999 0.577v1.154h2zm60.5-35h2v-3.468l-3.001 1.737 1.001 1.731zm0 67.5l1.001 1.731 0.999-0.577v-1.154h-2zm-60.5 35h-2v3.468l3.001-1.737-1.001-1.731zm-59-33l-1.001-1.731-0.999 0.577v1.154h2zm60.5-35h2v-3.468l-3.001 1.737 1.001 1.731zm0 67.5l1.001 1.731 0.999-0.577v-1.154h-2zm-60.5 35h-2v3.468l3.001-1.737-1.001-1.731zm-59-33l-1.001-1.731-0.999 0.577v1.154h2zm60.5-35h2v-3.468l-3.001 1.737 1.001 1.731zm0 67.5l1.001 1.731 0.999-0.577v-1.154h-2zm-60.5 35h-2v3.468l3.001-1.737-1.001-1.731zm-59-33l-1.002-1.731-0.998 0.577v1.154h2zm60.5-35h2v-3.468l-3.001 1.737 1.001 1.731zm0 67.5l1.001 1.731 0.999-0.577v-1.154h-2zm-60.5 35h-2v3.468l3.002-1.737-1.002-1.731zm-59-33l-1.002-1.731-0.998 0.577v1.154h2zm60.5-35h2v-3.468l-3.002 1.737 1.002 1.731zm0 67.5l1.002 1.731 0.998-0.577v-1.154h-2zm-60.5 35h-2v3.468l3.002-1.737-1.002-1.731zm-59-33l-1.002-1.731-0.998 0.577v1.154h2zm60.5-35h2v-3.468l-3.002 1.737 1.002 1.731zm0 67.5l1.002 1.731 0.998-0.577v-1.154h-2zm-60.5 35h-2v3.468l3.002-1.737-1.002-1.731zm-59-33l-1.002-1.731-0.998 0.577v1.154h2zm60.5-35h2v-3.468l-3.002 1.737 1.002 1.731zm0 67.5l1.002 1.731 0.998-0.577v-1.154h-2zm-60.5 35h-2v3.468l3.002-1.737-1.002-1.731zm-59-33l-1.0015-1.731-0.9985 0.577v1.154h2zm60.5-35h2v-3.468l-3.002 1.737 1.002 1.731zm0 67.5l1.002 1.731 0.998-0.577v-1.154h-2zm-60.5 35h-2v3.468l3.0015-1.737-1.0015-1.731zm531-444l-1.002-1.731-0.998 0.577v1.154h2zm60.5-35h2v-3.468l-3.002 1.737 1.002 1.731zm0 67.5l1.002 1.731 0.998-0.577v-1.154h-2zm-60.5 35h-2v3.468l3.002-1.737-1.002-1.731zm-59-33l-1.001-1.731-0.999 0.577v1.154h2zm60.5-35h2v-3.468l-3.002 1.737 1.002 1.731zm0 67.5l1.002 1.731 0.998-0.577v-1.154h-2zm-60.5 35h-2v3.468l3.001-1.737-1.001-1.731zm-59-33l-1.001-1.731-0.999 0.577v1.154h2zm60.5-35h2v-3.468l-3.001 1.737 1.001 1.731zm0 67.5l1.001 1.731 0.999-0.577v-1.154h-2zm-60.5 35h-2v3.468l3.001-1.737-1.001-1.731zm-59-33l-1.001-1.731-0.999 0.577v1.154h2zm60.5-35h2v-3.468l-3.001 1.737 1.001 1.731zm0 67.5l1.001 1.731 0.999-0.577v-1.154h-2zm-60.5 35h-2v3.468l3.001-1.737-1.001-1.731zm-59-33l-1.001-1.731-0.999 0.577v1.154h2zm60.5-35h2v-3.468l-3.001 1.737 1.001 1.731zm0 67.5l1.001 1.731 0.999-0.577v-1.154h-2zm-60.5 35h-2v3.468l3.001-1.737-1.001-1.731zm-59-33l-1.002-1.731-0.998 0.577v1.154h2zm60.5-35h2v-3.468l-3.001 1.737 1.001 1.731zm0 67.5l1.001 1.731 0.999-0.577v-1.154h-2zm-60.5 35h-2v3.468l3.002-1.737-1.002-1.731zm-59-33l-1.002-1.731-0.998 0.577v1.154h2zm60.5-35h2v-3.468l-3.002 1.737 1.002 1.731zm0 67.5l1.002 1.731 0.998-0.577v-1.154h-2zm-60.5 35h-2v3.468l3.002-1.737-1.002-1.731zm-59-33l-1.002-1.731-0.998 0.577v1.154h2zm60.5-35h2v-3.468l-3.002 1.737 1.002 1.731zm0 67.5l1.002 1.731 0.998-0.577v-1.154h-2zm-60.5 35h-2v3.468l3.002-1.737-1.002-1.731zm-59-33l-1.002-1.731-0.998 0.577v1.154h2zm60.5-35h2v-3.468l-3.002 1.737 1.002 1.731zm0 67.5l1.002 1.731 0.998-0.577v-1.154h-2zm-60.5 35h-2v3.468l3.002-1.737-1.002-1.731zm-59-33l-1.0015-1.731-0.9985 0.577v1.154h2zm60.5-35h2v-3.468l-3.002 1.737 1.002 1.731zm0 67.5l1.002 1.731 0.998-0.577v-1.154h-2zm-60.5 35h-2v3.468l3.0015-1.737-1.0015-1.731zm531-444l-1.002-1.731-0.998 0.577v1.154h2zm60.5-35h2v-3.468l-3.002 1.737 1.002 1.731zm0 67.5l1.002 1.731 0.998-0.577v-1.154h-2zm-60.5 35h-2v3.468l3.002-1.737-1.002-1.731zm-59-33l-1.001-1.731-0.999 0.577v1.154h2zm60.5-35h2v-3.468l-3.002 1.737 1.002 1.731zm0 67.5l1.002 1.731 0.998-0.577v-1.154h-2zm-60.5 35h-2v3.468l3.001-1.737-1.001-1.731zm-59-33l-1.001-1.731-0.999 0.577v1.154h2zm60.5-35h2v-3.468l-3.001 1.737 1.001 1.731zm0 67.5l1.001 1.731 0.999-0.577v-1.154h-2zm-60.5 35h-2v3.468l3.001-1.737-1.001-1.731zm-59-33l-1.001-1.731-0.999 0.577v1.154h2zm60.5-35h2v-3.468l-3.001 1.737 1.001 1.731zm0 67.5l1.001 1.731 0.999-0.577v-1.154h-2zm-60.5 35h-2v3.468l3.001-1.737-1.001-1.731zm-59-33l-1.001-1.731-0.999 0.577v1.154h2zm60.5-35h2v-3.468l-3.001 1.737 1.001 1.731zm0 67.5l1.001 1.731 0.999-0.577v-1.154h-2zm-60.5 35h-2v3.468l3.001-1.737-1.001-1.731zm-59-33l-1.002-1.731-0.998 0.577v1.154h2zm60.5-35h2v-3.468l-3.001 1.737 1.001 1.731zm0 67.5l1.001 1.731 0.999-0.577v-1.154h-2zm-60.5 35h-2v3.468l3.002-1.737-1.002-1.731zm-59-33l-1.002-1.731-0.998 0.577v1.154h2zm60.5-35h2v-3.468l-3.002 1.737 1.002 1.731zm0 67.5l1.002 1.731 0.998-0.577v-1.154h-2zm-60.5 35h-2v3.468l3.002-1.737-1.002-1.731zm-59-33l-1.002-1.731-0.998 0.577v1.154h2zm60.5-35h2v-3.468l-3.002 1.737 1.002 1.731zm0 67.5l1.002 1.731 0.998-0.577v-1.154h-2zm-60.5 35h-2v3.468l3.002-1.737-1.002-1.731zm-59-33l-1.002-1.731-0.998 0.577v1.154h2zm60.5-35h2v-3.468l-3.002 1.737 1.002 1.731zm0 67.5l1.002 1.731 0.998-0.577v-1.154h-2zm-60.5 35h-2v3.468l3.002-1.737-1.002-1.731zm-59-33l-1.0015-1.731-0.9985 0.577v1.154h2zm60.5-35h2v-3.468l-3.002 1.737 1.002 1.731zm0 67.5l1.002 1.731 0.998-0.577v-1.154h-2zm-60.5 35h-2v3.468l3.0015-1.737-1.0015-1.731zm531-444l-1.002-1.7312-0.998 0.5777v1.1535h2zm60.5-35h2v-3.4676l-3.002 1.7364 1.002 1.7312zm0 67.5l1.002 1.731 0.998-0.577v-1.154h-2zm-60.5 35h-2v3.468l3.002-1.737-1.002-1.731zm-59-33l-1.001-1.731-0.999 0.577v1.154h2zm60.5-35h2v-3.4676l-3.002 1.7364 1.002 1.7312zm0 67.5l1.002 1.731 0.998-0.577v-1.154h-2zm-60.5 35h-2v3.468l3.001-1.737-1.001-1.731zm-59-33l-1.001-1.731-0.999 0.577v1.154h2zm60.5-35h2v-3.468l-3.001 1.737 1.001 1.731zm0 67.5l1.001 1.731 0.999-0.577v-1.154h-2zm-60.5 35h-2v3.468l3.001-1.737-1.001-1.731zm-59-33l-1.001-1.731-0.999 0.577v1.154h2zm60.5-35h2v-3.468l-3.001 1.737 1.001 1.731zm0 67.5l1.001 1.731 0.999-0.577v-1.154h-2zm-60.5 35h-2v3.468l3.001-1.737-1.001-1.731zm-59-33l-1.001-1.731-0.999 0.577v1.154h2zm60.5-35h2v-3.468l-3.001 1.737 1.001 1.731zm0 67.5l1.001 1.731 0.999-0.577v-1.154h-2zm-60.5 35h-2v3.468l3.001-1.737-1.001-1.731zm-59-33l-1.002-1.731-0.998 0.577v1.154h2zm60.5-35h2v-3.468l-3.001 1.737 1.001 1.731zm0 67.5l1.001 1.731 0.999-0.577v-1.154h-2zm-60.5 35h-2v3.468l3.002-1.737-1.002-1.731zm-59-33l-1.002-1.731-0.998 0.577v1.154h2zm60.5-35h2v-3.468l-3.002 1.737 1.002 1.731zm0 67.5l1.002 1.731 0.998-0.577v-1.154h-2zm-60.5 35h-2v3.468l3.002-1.737-1.002-1.731zm-59-33l-1.002-1.731-0.998 0.577v1.154h2zm60.5-35h2v-3.468l-3.002 1.737 1.002 1.731zm0 67.5l1.002 1.731 0.998-0.577v-1.154h-2zm-60.5 35h-2v3.468l3.002-1.737-1.002-1.731zm-59-33l-1.002-1.731-0.998 0.577v1.154h2zm60.5-35h2v-3.468l-3.002 1.737 1.002 1.731zm0 67.5l1.002 1.731 0.998-0.577v-1.154h-2zm-60.5 35h-2v3.468l3.002-1.737-1.002-1.731zm-59-33l-1.0015-1.731-0.9985 0.577v1.154h2zm60.5-35h2v-3.468l-3.002 1.737 1.002 1.731zm0 67.5l1.002 1.731 0.998-0.577v-1.154h-2zm-60.5 35h-2v3.468l3.0015-1.737-1.0015-1.731zm531-444l-1.002-1.7312-0.998 0.5777v1.1535h2zm60.5-35h2v-3.4676l-3.002 1.7364 1.002 1.7312zm0 67.5l1.002 1.7312 0.998-0.5777v-1.1535h-2zm-60.5 35h-2v3.468l3.002-1.737-1.002-1.731zm-59-33l-1.001-1.7312-0.999 0.5777v1.1535h2zm60.5-35h2v-3.4676l-3.002 1.7364 1.002 1.7312zm0 67.5l1.002 1.731 0.998-0.577v-1.154h-2zm-60.5 35h-2v3.468l3.001-1.737-1.001-1.731zm-59-33l-1.001-1.731-0.999 0.577v1.154h2zm60.5-35h2v-3.4676l-3.001 1.7364 1.001 1.7312zm0 67.5l1.001 1.731 0.999-0.577v-1.154h-2zm-60.5 35h-2v3.468l3.001-1.737-1.001-1.731zm-59-33l-1.001-1.731-0.999 0.577v1.154h2zm60.5-35h2v-3.468l-3.001 1.737 1.001 1.731zm0 67.5l1.001 1.731 0.999-0.577v-1.154h-2zm-60.5 35h-2v3.468l3.001-1.737-1.001-1.731zm-59-33l-1.001-1.731-0.999 0.577v1.154h2zm60.5-35h2v-3.468l-3.001 1.737 1.001 1.731zm0 67.5l1.001 1.731 0.999-0.577v-1.154h-2zm-60.5 35h-2v3.468l3.001-1.737-1.001-1.731zm-59-33l-1.002-1.731-0.998 0.577v1.154h2zm60.5-35h2v-3.468l-3.001 1.737 1.001 1.731zm0 67.5l1.001 1.731 0.999-0.577v-1.154h-2zm-60.5 35h-2v3.468l3.002-1.737-1.002-1.731zm-59-33l-1.002-1.731-0.998 0.577v1.154h2zm60.5-35h2v-3.468l-3.002 1.737 1.002 1.731zm0 67.5l1.002 1.731 0.998-0.577v-1.154h-2zm-60.5 35h-2v3.468l3.002-1.737-1.002-1.731zm-59-33l-1.002-1.731-0.998 0.577v1.154h2zm60.5-35h2v-3.468l-3.002 1.737 1.002 1.731zm0 67.5l1.002 1.731 0.998-0.577v-1.154h-2zm-60.5 35h-2v3.468l3.002-1.737-1.002-1.731zm-59-33l-1.002-1.731-0.998 0.577v1.154h2zm60.5-35h2v-3.468l-3.002 1.737 1.002 1.731zm0 67.5l1.002 1.731 0.998-0.577v-1.154h-2zm-60.5 35h-2v3.468l3.002-1.737-1.002-1.731zm-59-33l-1.0015-1.731-0.9985 0.577v1.154h2zm60.5-35h2v-3.468l-3.002 1.737 1.002 1.731zm0 67.5l1.002 1.731 0.998-0.577v-1.154h-2zm-60.5 35h-2v3.468l3.0015-1.737-1.0015-1.731zm532-46.269l60.5-35-2.004-3.462-60.5 35 2.004 3.462zm57.498-36.731v67.5h4v-67.5h-4zm0.998 65.769l-60.5 35 2.004 3.462 60.5-35-2.004-3.462zm-57.498 36.731v-67.5h-4v67.5h4zm-59.999-31.269l60.501-35-2.004-3.462-60.499 35 2.002 3.462zm57.499-36.731v67.5h4v-67.5h-4zm0.998 65.769l-60.499 35 2.002 3.462 60.501-35-2.004-3.462zm-57.498 36.731v-67.5h-4v67.5h4zm-59.999-31.269l60.5-35-2.002-3.462-60.5 35 2.002 3.462zm57.499-36.731v67.5h4v-67.5h-4zm0.999 65.769l-60.5 35 2.002 3.462 60.5-35-2.002-3.462zm-57.499 36.731v-67.5h-4v67.5h4zm-59.999-31.269l60.5-35-2.002-3.462-60.5 35 2.002 3.462zm57.499-36.731v67.5h4v-67.5h-4zm0.999 65.769l-60.5 35 2.002 3.462 60.5-35-2.002-3.462zm-57.499 36.731v-67.5h-4v67.5h4zm-59.999-31.269l60.5-35-2.002-3.462-60.5 35 2.002 3.462zm57.499-36.731v67.5h4v-67.5h-4zm0.999 65.769l-60.5 35 2.002 3.462 60.5-35-2.002-3.462zm-57.499 36.731v-67.5h-4v67.5h4zm-59.998-31.269l60.499-35-2.002-3.462-60.501 35 2.004 3.462zm57.498-36.731v67.5h4v-67.5h-4zm0.999 65.769l-60.501 35 2.004 3.462 60.499-35-2.002-3.462zm-57.499 36.731v-67.5h-4v67.5h4zm-59.998-31.269l60.5-35-2.004-3.462-60.5 35 2.004 3.462zm57.498-36.731v67.5h4v-67.5h-4zm0.998 65.769l-60.5 35 2.004 3.462 60.5-35-2.004-3.462zm-57.498 36.731v-67.5h-4v67.5h4zm-59.998-31.269l60.5-35-2.004-3.462-60.5 35 2.004 3.462zm57.498-36.731v67.5h4v-67.5h-4zm0.998 65.769l-60.5 35 2.004 3.462 60.5-35-2.004-3.462zm-57.498 36.731v-67.5h-4v67.5h4zm-59.998-31.269l60.5-35-2.004-3.462-60.5 35 2.004 3.462zm57.498-36.731v67.5h4v-67.5h-4zm0.998 65.769l-60.5 35 2.004 3.462 60.5-35-2.004-3.462zm-57.498 36.731v-67.5h-4v67.5h4zm-59.998-31.269l60.5-35-2.004-3.462-60.5 35 2.003 3.462zm57.498-36.731v67.5h4v-67.5h-4zm0.998 65.769l-60.5 35 2.003 3.462 60.5-35-2.004-3.462zm-57.498 36.731v-67.5h-4v67.5h4zm530-442.27l60.5-35-2.004-3.462-60.5 35 2.004 3.462zm57.498-36.731v67.5h4v-67.5h-4zm0.998 65.769l-60.5 35 2.004 3.462 60.5-35-2.004-3.462zm-57.498 36.731v-67.5h-4v67.5h4zm-59.999-31.269l60.501-35-2.004-3.462-60.499 35 2.002 3.462zm57.499-36.731v67.5h4v-67.5h-4zm0.998 65.769l-60.499 35 2.002 3.462 60.501-35-2.004-3.462zm-57.498 36.731v-67.5h-4v67.5h4zm-59.999-31.269l60.5-35-2.002-3.462-60.5 35 2.002 3.462zm57.499-36.731v67.5h4v-67.5h-4zm0.999 65.769l-60.5 35 2.002 3.462 60.5-35-2.002-3.462zm-57.499 36.731v-67.5h-4v67.5h4zm-59.999-31.269l60.5-35-2.002-3.462-60.5 35 2.002 3.462zm57.499-36.731v67.5h4v-67.5h-4zm0.999 65.769l-60.5 35 2.002 3.462 60.5-35-2.002-3.462zm-57.499 36.731v-67.5h-4v67.5h4zm-59.999-31.269l60.5-35-2.002-3.462-60.5 35 2.002 3.462zm57.499-36.731v67.5h4v-67.5h-4zm0.999 65.769l-60.5 35 2.002 3.462 60.5-35-2.002-3.462zm-57.499 36.731v-67.5h-4v67.5h4zm-59.998-31.269l60.499-35-2.002-3.462-60.501 35 2.004 3.462zm57.498-36.731v67.5h4v-67.5h-4zm0.999 65.769l-60.501 35 2.004 3.462 60.499-35-2.002-3.462zm-57.499 36.731v-67.5h-4v67.5h4zm-59.998-31.269l60.5-35-2.004-3.462-60.5 35 2.004 3.462zm57.498-36.731v67.5h4v-67.5h-4zm0.998 65.769l-60.5 35 2.004 3.462 60.5-35-2.004-3.462zm-57.498 36.731v-67.5h-4v67.5h4zm-59.998-31.269l60.5-35-2.004-3.462-60.5 35 2.004 3.462zm57.498-36.731v67.5h4v-67.5h-4zm0.998 65.769l-60.5 35 2.004 3.462 60.5-35-2.004-3.462zm-57.498 36.731v-67.5h-4v67.5h4zm-59.998-31.269l60.5-35-2.004-3.462-60.5 35 2.004 3.462zm57.498-36.731v67.5h4v-67.5h-4zm0.998 65.769l-60.5 35 2.004 3.462 60.5-35-2.004-3.462zm-57.498 36.731v-67.5h-4v67.5h4zm-59.998-31.269l60.5-35-2.004-3.462-60.5 35 2.003 3.462zm57.498-36.731v67.5h4v-67.5h-4zm0.998 65.769l-60.5 35 2.003 3.462 60.5-35-2.004-3.462zm-57.498 36.731v-67.5h-4v67.5h4zm530-442.27l60.5-35-2.004-3.462-60.5 35 2.004 3.462zm57.498-36.731v67.5h4v-67.5h-4zm0.998 65.769l-60.5 35 2.004 3.462 60.5-35-2.004-3.462zm-57.498 36.731v-67.5h-4v67.5h4zm-59.999-31.269l60.501-35-2.004-3.462-60.499 35 2.002 3.462zm57.499-36.731v67.5h4v-67.5h-4zm0.998 65.769l-60.499 35 2.002 3.462 60.501-35-2.004-3.462zm-57.498 36.731v-67.5h-4v67.5h4zm-59.999-31.269l60.5-35-2.002-3.462-60.5 35 2.002 3.462zm57.499-36.731v67.5h4v-67.5h-4zm0.999 65.769l-60.5 35 2.002 3.462 60.5-35-2.002-3.462zm-57.499 36.731v-67.5h-4v67.5h4zm-59.999-31.269l60.5-35-2.002-3.462-60.5 35 2.002 3.462zm57.499-36.731v67.5h4v-67.5h-4zm0.999 65.769l-60.5 35 2.002 3.462 60.5-35-2.002-3.462zm-57.499 36.731v-67.5h-4v67.5h4zm-59.999-31.269l60.5-35-2.002-3.462-60.5 35 2.002 3.462zm57.499-36.731v67.5h4v-67.5h-4zm0.999 65.769l-60.5 35 2.002 3.462 60.5-35-2.002-3.462zm-57.499 36.731v-67.5h-4v67.5h4zm-59.998-31.269l60.499-35-2.002-3.462-60.501 35 2.004 3.462zm57.498-36.731v67.5h4v-67.5h-4zm0.999 65.769l-60.501 35 2.004 3.462 60.499-35-2.002-3.462zm-57.499 36.731v-67.5h-4v67.5h4zm-59.998-31.269l60.5-35-2.004-3.462-60.5 35 2.004 3.462zm57.498-36.731v67.5h4v-67.5h-4zm0.998 65.769l-60.5 35 2.004 3.462 60.5-35-2.004-3.462zm-57.498 36.731v-67.5h-4v67.5h4zm-59.998-31.269l60.5-35-2.004-3.462-60.5 35 2.004 3.462zm57.498-36.731v67.5h4v-67.5h-4zm0.998 65.769l-60.5 35 2.004 3.462 60.5-35-2.004-3.462zm-57.498 36.731v-67.5h-4v67.5h4zm-59.998-31.269l60.5-35-2.004-3.462-60.5 35 2.004 3.462zm57.498-36.731v67.5h4v-67.5h-4zm0.998 65.769l-60.5 35 2.004 3.462 60.5-35-2.004-3.462zm-57.498 36.731v-67.5h-4v67.5h4zm-59.998-31.269l60.5-35-2.004-3.462-60.5 35 2.003 3.462zm57.498-36.731v67.5h4v-67.5h-4zm0.998 65.769l-60.5 35 2.003 3.462 60.5-35-2.004-3.462zm-57.498 36.731v-67.5h-4v67.5h4zm530-442.27l60.5-35-2.004-3.462-60.5 35 2.004 3.462zm57.498-36.731v67.5h4v-67.5h-4zm0.998 65.769l-60.5 35 2.004 3.462 60.5-35-2.004-3.462zm-57.498 36.731v-67.5h-4v67.5h4zm-59.999-31.269l60.501-35-2.004-3.462-60.499 35 2.002 3.462zm57.499-36.731v67.5h4v-67.5h-4zm0.998 65.769l-60.499 35 2.002 3.462 60.501-35-2.004-3.462zm-57.498 36.731v-67.5h-4v67.5h4zm-59.999-31.269l60.5-35-2.002-3.462-60.5 35 2.002 3.462zm57.499-36.731v67.5h4v-67.5h-4zm0.999 65.769l-60.5 35 2.002 3.462 60.5-35-2.002-3.462zm-57.499 36.731v-67.5h-4v67.5h4zm-59.999-31.269l60.5-35-2.002-3.462-60.5 35 2.002 3.462zm57.499-36.731v67.5h4v-67.5h-4zm0.999 65.769l-60.5 35 2.002 3.462 60.5-35-2.002-3.462zm-57.499 36.731v-67.5h-4v67.5h4zm-59.999-31.269l60.5-35-2.002-3.462-60.5 35 2.002 3.462zm57.499-36.731v67.5h4v-67.5h-4zm0.999 65.769l-60.5 35 2.002 3.462 60.5-35-2.002-3.462zm-57.499 36.731v-67.5h-4v67.5h4zm-59.998-31.269l60.499-35-2.002-3.462-60.501 35 2.004 3.462zm57.498-36.731v67.5h4v-67.5h-4zm0.999 65.769l-60.501 35 2.004 3.462 60.499-35-2.002-3.462zm-57.499 36.731v-67.5h-4v67.5h4zm-59.998-31.269l60.5-35-2.004-3.462-60.5 35 2.004 3.462zm57.498-36.731v67.5h4v-67.5h-4zm0.998 65.769l-60.5 35 2.004 3.462 60.5-35-2.004-3.462zm-57.498 36.731v-67.5h-4v67.5h4zm-59.998-31.269l60.5-35-2.004-3.462-60.5 35 2.004 3.462zm57.498-36.731v67.5h4v-67.5h-4zm0.998 65.769l-60.5 35 2.004 3.462 60.5-35-2.004-3.462zm-57.498 36.731v-67.5h-4v67.5h4zm-59.998-31.269l60.5-35-2.004-3.462-60.5 35 2.004 3.462zm57.498-36.731v67.5h4v-67.5h-4zm0.998 65.769l-60.5 35 2.004 3.462 60.5-35-2.004-3.462zm-57.498 36.731v-67.5h-4v67.5h4zm-59.998-31.269l60.5-35-2.004-3.462-60.5 35 2.003 3.462zm57.498-36.731v67.5h4v-67.5h-4zm0.998 65.769l-60.5 35 2.003 3.462 60.5-35-2.004-3.462zm-57.498 36.731v-67.5h-4v67.5h4zm530-442.27l60.5-35-2.004-3.4624-60.5 35 2.004 3.4622zm57.498-36.731v67.5h4v-67.5h-4zm0.998 65.769l-60.5 35 2.004 3.462 60.5-35-2.004-3.462zm-57.498 36.731v-67.5h-4v67.5h4zm-59.999-31.269l60.501-35-2.004-3.4622-60.499 35 2.002 3.462zm57.499-36.731v67.5h4v-67.5h-4zm0.998 65.769l-60.499 35 2.002 3.462 60.501-35-2.004-3.462zm-57.498 36.731v-67.5h-4v67.5h4zm-59.999-31.269l60.5-35-2.002-3.462-60.5 35 2.002 3.462zm57.499-36.731v67.5h4v-67.5h-4zm0.999 65.769l-60.5 35 2.002 3.462 60.5-35-2.002-3.462zm-57.499 36.731v-67.5h-4v67.5h4zm-59.999-31.269l60.5-35-2.002-3.462-60.5 35 2.002 3.462zm57.499-36.731v67.5h4v-67.5h-4zm0.999 65.769l-60.5 35 2.002 3.462 60.5-35-2.002-3.462zm-57.499 36.731v-67.5h-4v67.5h4zm-59.999-31.269l60.5-35-2.002-3.462-60.5 35 2.002 3.462zm57.499-36.731v67.5h4v-67.5h-4zm0.999 65.769l-60.5 35 2.002 3.462 60.5-35-2.002-3.462zm-57.499 36.731v-67.5h-4v67.5h4zm-59.998-31.269l60.499-35-2.002-3.462-60.501 35 2.004 3.462zm57.498-36.731v67.5h4v-67.5h-4zm0.999 65.769l-60.501 35 2.004 3.462 60.499-35-2.002-3.462zm-57.499 36.731v-67.5h-4v67.5h4zm-59.998-31.269l60.5-35-2.004-3.462-60.5 35 2.004 3.462zm57.498-36.731v67.5h4v-67.5h-4zm0.998 65.769l-60.5 35 2.004 3.462 60.5-35-2.004-3.462zm-57.498 36.731v-67.5h-4v67.5h4zm-59.998-31.269l60.5-35-2.004-3.462-60.5 35 2.004 3.462zm57.498-36.731v67.5h4v-67.5h-4zm0.998 65.769l-60.5 35 2.004 3.462 60.5-35-2.004-3.462zm-57.498 36.731v-67.5h-4v67.5h4zm-59.998-31.269l60.5-35-2.004-3.462-60.5 35 2.004 3.462zm57.498-36.731v67.5h4v-67.5h-4zm0.998 65.769l-60.5 35 2.004 3.462 60.5-35-2.004-3.462zm-57.498 36.731v-67.5h-4v67.5h4zm-59.998-31.269l60.5-35-2.004-3.462-60.5 35 2.003 3.462zm57.498-36.731v67.5h4v-67.5h-4zm0.998 65.769l-60.5 35 2.003 3.462 60.5-35-2.004-3.462zm-57.498 36.731v-67.5h-4v67.5h4zm530-442.27l60.5-35-2.004-3.4624-60.5 35 2.004 3.4624zm57.498-36.731v67.5h4v-67.5h-4zm0.998 65.769l-60.5 35 2.004 3.462 60.5-35-2.004-3.4624zm-57.498 36.731v-67.5h-4v67.5h4zm-59.999-31.269l60.501-35-2.004-3.4624-60.499 35 2.002 3.4624zm57.499-36.731v67.5h4v-67.5h-4zm0.998 65.769l-60.499 35 2.002 3.462 60.501-35-2.004-3.462zm-57.498 36.731v-67.5h-4v67.5h4zm-59.999-31.269l60.5-35-2.002-3.4624-60.5 35 2.002 3.462zm57.499-36.731v67.5h4v-67.5h-4zm0.999 65.769l-60.5 35 2.002 3.462 60.5-35-2.002-3.462zm-57.499 36.731v-67.5h-4v67.5h4zm-59.999-31.269l60.5-35-2.002-3.462-60.5 35 2.002 3.462zm57.499-36.731v67.5h4v-67.5h-4zm0.999 65.769l-60.5 35 2.002 3.462 60.5-35-2.002-3.462zm-57.499 36.731v-67.5h-4v67.5h4zm-59.999-31.269l60.5-35-2.002-3.462-60.5 35 2.002 3.462zm57.499-36.731v67.5h4v-67.5h-4zm0.999 65.769l-60.5 35 2.002 3.462 60.5-35-2.002-3.462zm-57.499 36.731v-67.5h-4v67.5h4zm-59.998-31.269l60.499-35-2.002-3.462-60.501 35 2.004 3.462zm57.498-36.731v67.5h4v-67.5h-4zm0.999 65.769l-60.501 35 2.004 3.462 60.499-35-2.002-3.462zm-57.499 36.731v-67.5h-4v67.5h4zm-59.998-31.269l60.5-35-2.004-3.462-60.5 35 2.004 3.462zm57.498-36.731v67.5h4v-67.5h-4zm0.998 65.769l-60.5 35 2.004 3.462 60.5-35-2.004-3.462zm-57.498 36.731v-67.5h-4v67.5h4zm-59.998-31.269l60.5-35-2.004-3.462-60.5 35 2.004 3.462zm57.498-36.731v67.5h4v-67.5h-4zm0.998 65.769l-60.5 35 2.004 3.462 60.5-35-2.004-3.462zm-57.498 36.731v-67.5h-4v67.5h4zm-59.998-31.269l60.5-35-2.004-3.462-60.5 35 2.004 3.462zm57.498-36.731v67.5h4v-67.5h-4zm0.998 65.769l-60.5 35 2.004 3.462 60.5-35-2.004-3.462zm-57.498 36.731v-67.5h-4v67.5h4zm-59.998-31.269l60.5-35-2.004-3.462-60.5 35 2.003 3.462zm57.498-36.731v67.5h4v-67.5h-4zm0.998 65.769l-60.5 35 2.003 3.462 60.5-35-2.004-3.462zm-57.498 36.731v-67.5h-4v67.5h4z" fill="url(#l)" mask="url(#a)"/>
<path d="M17 1035.17L482 1305.5L994.5 1018L526.823 744L17 1035.17Z" fill="#292E3A"/>
<path d="m498.74 821.32l-164.32-95.231 164.32-93.362 164.32 93.362-164.32 95.231z" fill="#E21E32"/>
<path d="m498.74 808.25l-140.04-82.16 140.04-80.292 140.04 80.292-140.04 82.16z" fill="#292E3A"/>
<path d="m498.73 632.73v-190.46l164.32 95.23v188.59l-164.32-93.363z" fill="#EC6767"/>
<path d="m500.6 630.86v-186.72l-1.868-1.867v190.46l164.32 93.363v-1.868l-162.45-93.363z" fill="#F39D89"/>
<path d="m332.55 944.56v-188.59l164.32-95.231v190.46l-164.32 93.362z" fill="#E52243"/>
<path d="m496.87 1039.8l-164.32-95.232 164.32-93.363 164.32 95.23-164.32 93.365z" fill="#E21E32"/>
<path d="m496.87 1026.7l-140.04-82.162 140.04-80.292 140.04 82.159-140.04 80.295z" fill="#292E3A"/>
<path d="m496.87 851.2v-190.46l164.32 95.231v190.46l-164.32-95.23z" fill="#EC6767"/>
<path d="m498.74 849.33v-186.72l-1.868-1.868v190.46l164.32 95.23v-3.735l-162.45-93.363z" fill="#F39D89"/>
<path d="m508.07 843.73v-162.45l141.91 82.16v162.45l-141.91-82.159z" fill="#31496B"/>
<path d="m496.87 849.33l-164.32 95.231 1.867 1.867 164.32-95.23-1.868-1.868z" fill="#F39D89"/>
<path d="m147.69 619.66v-190.46l164.32-93.363-1.867 188.59-162.45 95.23z" fill="#E52243"/>
<path d="m160.76 597.25v-160.58l138.18-78.425v158.72l-138.18 80.292z" fill="#2B384D"/>
<path d="m160.76 597.25v-160.58l138.18-78.425v158.72l-138.18 80.292z" fill="#2B384D"/>
<path d="m160.76 597.25v-160.58l138.18-78.425v158.72l-138.18 80.292z" fill="#2B384D"/>
<path d="m310.14 714.88l-162.45-95.23 162.45-95.23 164.32 95.23-164.32 95.23z" fill="#E21E32"/>
<path d="m310.14 699.95l-138.18-80.292 138.18-80.292 140.04 80.292-140.04 80.292z" fill="#292E3A"/>
<path d="m310.14 524.42l1.867-188.59 162.45 93.363v190.46l-164.32-95.23z" fill="#EC6767"/>
<path d="m313.88 522.56v-184.86l-1.867-1.867-1.867 188.59 164.32 95.23v-3.735l-160.58-93.363z" fill="#F39D89"/>
<path d="m323.21 518.82v-164.32l140.04 82.16v162.45l-140.04-80.292z" fill="#31496B"/>
<path d="m255.99 569.24v1.867l11.204 7.469 1.867-1.867-13.071-7.469zm52.283 100.83v-1.867 1.867zm0-33.611v-1.867 1.867zm-100.83-24.274l-7.469-3.735-3.734-3.734h1.867l11.204 7.469h-1.868zm100.83-7.469v-1.867 1.867zm-70.955-9.336l-11.204-7.469 13.071 5.601-1.867 1.868zm70.955-26.142v-1.867 1.867zm0-1.867v-1.868 1.868zm14.938-5.602h-1.867l13.071-9.336v1.867l-11.204 7.469zm-26.141-1.867l-11.204-5.602v-1.867l13.071 7.469h-1.867z" clip-rule="evenodd" fill="url(#j)" fill-rule="evenodd"/>
<path d="m312.01 522.56l-164.32 95.23v1.867l164.32-95.23v-1.867z" fill="#F39D89"/>
<path d="m143.96 838.12l1.867-190.46 162.45-93.363v188.59l-164.32 95.23z" fill="#E52243"/>
<path d="m157.03 815.72v-160.58l138.18-78.425v158.72l-138.18 80.292z" fill="#2B384D"/>
<path d="m157.03 815.72v-160.58l138.18-78.425v158.72l-138.18 80.292z" fill="#2B384D"/>
<path d="m157.03 815.72v-160.58l138.18-78.425v158.72l-138.18 80.292z" fill="#2B384D"/>
<path d="m308.27 933.35l-164.32-95.23 164.32-95.23 164.32 95.23-164.32 95.23z" fill="#E21E32"/>
<path d="m308.27 918.42l-138.18-80.292 138.18-80.292 140.04 80.292-140.04 80.292z" fill="#292E3A"/>
<path d="m312.01 741.03v-184.86l-3.735-1.867v188.59l164.32 95.23v-3.735l-160.58-93.362z" fill="#F39D89"/>
<path d="m524.88 617.79v-190.46l164.32-93.362v188.59l-164.32 95.23z" fill="#E52243"/>
<path d="m537.95 595.38v-160.58l138.18-80.292v160.58l-138.18 80.292z" fill="#2B384D"/>
<path d="m537.95 595.38v-160.58l138.18-80.292v160.58l-138.18 80.292z" fill="#2B384D"/>
<path d="m537.95 595.38v-160.58l138.18-80.292v160.58l-138.18 80.292z" fill="#2B384D"/>
<path d="m689.2 711.15l-164.32-93.362 164.32-95.23 164.32 95.23-164.32 93.362z" fill="#E21E32"/>
<path d="m689.2 698.08l-140.04-80.292 140.04-82.16 140.04 82.16-140.04 80.292z" fill="#292E3A"/>
<path d="m689.2 522.56v-188.59l164.32 93.362v190.46l-164.32-95.23z" fill="#EC6767"/>
<path d="m691.06 520.69v-186.72h-1.867v188.59l164.32 95.23v-3.735l-162.45-93.363z" fill="#F39D89"/>
<path d="m700.4 515.09v-162.45l141.91 82.159v162.45l-141.91-82.159z" fill="#31496B"/>
<path d="m523.01 836.26v-190.46l164.32-93.362v188.59l-164.32 95.23z" fill="#E52243"/>
<path d="m536.08 813.85v-160.58l138.18-80.292v160.58l-138.18 80.292z" fill="#2B384D"/>
<path d="m536.08 813.85v-160.58l138.18-80.292v160.58l-138.18 80.292z" fill="#2B384D"/>
<path d="m536.08 813.85v-160.58l138.18-80.292v160.58l-138.18 80.292z" fill="#2B384D"/>
<path d="m687.33 929.62l-164.32-93.362 164.32-95.23 164.32 95.23-164.32 93.362z" fill="#E21E32"/>
<path d="m687.33 916.55l-140.04-80.292 140.04-82.16 140.04 82.16-140.04 80.292z" fill="#292E3A"/>
<path d="m687.33 741.03v-188.59l164.32 93.362v190.46l-164.32-95.23z" fill="#EC6767"/>
<path d="m689.2 739.16v-186.72h-1.868v188.59l164.32 95.23v-3.735l-162.45-93.363z" fill="#F39D89"/>
<path d="m698.53 733.56v-162.45l141.91 82.159v162.45l-141.91-82.159z" fill="#31496B"/>
<path d="m687.33 739.16l-164.32 95.23v1.868h1.867l164.32-95.23-1.868-1.868z" fill="#F39D89"/>
<path d="m338.15 509.49v-188.59l164.32-95.23v188.59l-164.32 95.23z" fill="#E52243"/>
<path d="m351.22 487.08v-160.58l138.18-78.425v158.72l-138.18 80.292z" fill="#2B384D"/>
<path d="m351.22 487.08v-160.58l138.18-78.425v158.72l-138.18 80.292z" fill="#2B384D"/>
<path d="m351.22 487.08v-160.58l138.18-78.425v158.72l-138.18 80.292z" fill="#2B384D"/>
<path d="m500.6 604.72l-162.45-95.23 164.32-95.23 162.45 95.23-164.32 95.23z" fill="#E21E32"/>
<path d="m502.47 414.26v-188.59l162.45 95.23v188.59l-162.45-95.23z" fill="#EC6767"/>
<path d="m504.34 412.39v-184.86l-1.867-1.867v188.59l162.45 95.23v-3.735l-160.58-93.363z" fill="#F39D89"/>
<path d="m513.67 408.66v-164.32l140.04 82.16v164.32l-140.04-82.159z" fill="#31496B"/>
<path d="m351.22 459.07v-1.867l18.673-11.204 1.867 1.867-20.54 11.204zm24.275 13.071v1.867-24.274 22.407zm-24.275-46.682v-1.867l20.54-11.204-20.54 13.071zm0-69.088l24.275-14.938v-28.009 28.009l28.008-16.806v-28.009h1.868-1.868v28.009h-1.867v1.868h-3.734v1.867h-3.735v1.867h-1.867v1.867h-3.735v1.868h-1.867v1.867h-3.734v1.867h-3.735v1.867h-3.734v-11.203l-1.868 1.867v11.204h-1.867v1.867h-1.867v1.867h-3.735v1.867h-3.734v1.868h-3.735v1.867h-1.867v1.867h-3.734v1.867l-1.868 1.868zm138.18-80.292v1.867l-9.336 3.734-11.204 7.469-3.734 1.868v33.61l24.274-14.938v1.868l-24.274 13.07v33.611l24.274-14.938v1.867l-11.203 5.602-13.071 9.336v31.744l24.274-13.071-24.274 14.938v28.009h-1.867v-28.009l-3.735 3.734c-1.867 0-1.867-1.867-1.867-1.867l5.602-3.734v-31.744l-28.009 16.806v7.469h-1.867v-7.469l-20.54 13.07v-1.867l13.071-7.469 7.469-5.602v-31.743l-22.408 13.071h-1.867l-14.938 9.336s-1.867 0-1.867 1.867l-16.805 9.337v18.672 1.867-20.539l-24.275 14.938v-1.868l24.275-14.938v-11.203 11.203l28.008-16.805v-11.204h1.868v11.204l28.009-16.805v-5.602h1.867v5.602l7.469-5.602 11.203-5.602 1.868-1.867v1.867l1.867-1.867c1.867 0 1.867-1.867 3.734-1.867l1.868-1.868v-33.61l-28.009 16.805v28.009-39.213s0-1.867-1.867-1.867v-14.938l1.867-1.867v28.009h1.867l26.142-14.938v-28.009l1.867-1.867v28.008l24.274-13.07zm-54.15 162.45h-1.867v-24.274h1.867v24.274zm-29.876 16.805h-1.868v-24.274h1.868v24.274zm-29.876-5.601v-3.735h-3.735l3.735-1.867v-29.876 29.876l1.867-1.867v1.867h-1.867v5.602zm1.867-5.602v-1.867l5.602-1.868-5.602 3.735zm5.602-3.735v-1.867l16.805-9.336h1.867l-18.672 11.203zm22.407-11.203h-1.868v-1.868 1.868h-1.867l1.867-1.868v-33.61l-24.274 14.938v-1.867l24.274-14.938v-31.744h1.868v31.744l5.601-3.735v1.867l-5.601 3.735v31.743h1.867l-1.867 1.867v1.868zm3.734-3.735v-1.867l11.204-5.602 13.071-7.469v-24.274h1.867v22.407l16.805-9.336c-1.867 0-1.867 1.867-1.867 1.867l-14.938 9.336v1.867h-1.867v-1.867l-24.275 14.938zm54.151-98.964l-28.009 14.938v33.61l28.009-16.805v-31.743zm-87.761 85.893v-1.867l-1.868 1.867-1.867-1.867h3.735v-13.071 11.204h1.867v1.867h-1.867v1.867zm76.557-11.203v-1.867c1.867 0 1.867-1.868 3.735-1.868h1.867l-5.602 3.735zm-76.557-57.885l-24.275 13.071 24.275-13.071zm37.345-22.407v-1.867l20.54-11.204v1.867l-20.54 11.204z" clip-rule="evenodd" fill="url(#i)" fill-rule="evenodd"/>
<path d="m599.57 459.07v-1.867h-1.867v-5.602c1.867 0 1.867-1.867 1.867-1.867v9.336zm-1.867-11.204v-18.672l1.867 1.867v16.805h-1.867zm1.867-18.672h-1.867v-134.44h1.867v119.5 1.867 13.071z" clip-rule="evenodd" fill="url(#h)" fill-rule="evenodd"/>
<path d="m502.47 412.39l-164.32 95.23v1.868l164.32-95.23v-1.868z" fill="#F39D89"/>
<path d="m498.74 823.19l-162.45-95.23 162.45-95.23 164.32 95.23-164.32 95.23z" fill="#E21E32"/>
<path d="m498.73 808.25l-138.18-80.292 138.18-80.292 140.04 80.292-140.04 80.292z" fill="#292E3A"/>
<path d="m498.73 632.73v-188.59l164.32 95.23v188.59l-164.32-95.23z" fill="#EC6767"/>
<path d="m502.47 632.73v-186.73l-3.735-1.867v188.59l164.32 95.23v-3.735l-160.58-91.495z" fill="#F39D89"/>
<path d="m284 593.51c1.867 1.868 5.602 1.868 7.469 0 1.867-1.867 1.867-5.602 0-7.469s-5.602-1.867-7.469 0-1.867 5.602 0 7.469z" fill="#FCDA65"/>
<path d="m263.46 604.72c1.867 1.867 5.602 1.867 7.469 0s1.867-5.602 0-7.469-5.602-1.867-7.469 0c-1.867 3.734-1.867 5.602 0 7.469z" fill="#FCDA65"/>
<path d="m242.92 617.79c1.868 1.867 5.602 1.867 7.469 0 1.868-3.735 1.868-5.602 0-7.469-1.867-1.868-5.601-1.868-7.469 0-1.867 1.867-1.867 5.601 0 7.469z" fill="#FCDA65"/>
<path d="m226.12 630.86c-1.867 0-3.734 0-3.734-1.867-1.868-1.867-1.868-5.602 0-7.469 0 0 1.867-1.867 3.734-1.867 0 0 1.867 1.867 3.735 1.867 1.867 1.867 1.867 3.735 0 7.469l-3.735 1.867z" fill="#4D5755"/>
<path d="m201.84 642.06c1.867 1.867 5.601 0 7.469-1.867 1.867-1.868 1.867-3.735-1.868-7.469-1.867-1.868-3.734 0-5.601 1.867-1.868 1.867-1.868 3.734 0 7.469z" fill="#FCDA65"/>
<path d="m181.3 653.26c1.867 1.868 3.734 1.868 7.469 0 1.867-1.867 0-5.601-1.867-7.469-1.868-1.867-3.735-1.867-7.469 0-1.868 1.868 0 5.602 1.867 7.469z" fill="#FCDA65"/>
<path d="m160.76 664.47c1.867 1.867 3.735 1.867 5.602 0s1.867-5.602 0-7.469-5.602-1.867-7.469 0c-1.867 3.735-1.867 5.602 1.867 7.469z" fill="#FCDA65"/>
<path d="m284 617.79c1.867 1.867 5.602 1.867 7.469-1.868 1.867-1.867 1.867-3.734 0-5.601-1.867-1.868-5.602-1.868-7.469 0-1.867 1.867-1.867 5.601 0 7.469z" fill="#FCDA65"/>
<path d="m242.92 640.2c1.868 1.867 5.602 1.867 7.469 0 1.868-1.868 1.868-5.602 0-7.469-1.867-1.868-5.601-1.868-7.469 1.867-1.867 1.867-1.867 3.734 0 5.602z" fill="#FCDA65"/>
<path d="m222.38 653.26c1.867 1.868 5.601 1.868 7.469 0 1.867-1.867 1.867-5.601 0-7.469-3.735-1.867-5.602-1.867-7.469 0-1.868 1.868-1.868 5.602 0 7.469z" fill="#E12840"/>
<path d="m201.84 664.47c1.867 1.867 5.601 1.867 7.469 0 1.867-1.867 1.867-5.602 0-7.469-3.735-1.867-5.602-1.867-7.469 0-1.868 1.867-1.868 5.602 0 7.469z" fill="#FCDA65"/>
<path d="m160.76 688.74c1.867 1.868 3.735 1.868 5.602 0 3.734-1.867 1.867-5.601 0-7.469-1.867-1.867-5.602-1.867-7.469 0-1.867 1.868-1.867 5.602 1.867 7.469z" fill="#FCDA65"/>
<path d="m284 640.2c1.867 1.867 5.602 1.867 7.469 0 1.867-1.868 1.867-5.602 0-7.469-1.867-1.868-5.602-1.868-7.469 0-1.867 3.734-1.867 5.601 0 7.469z" fill="#E12840"/>
<path d="m263.46 653.26c1.867 1.868 5.602 1.868 7.469 0 1.867-3.734 1.867-5.601 0-7.469-1.867-1.867-5.602-1.867-7.469 0-1.867 1.868-1.867 5.602 0 7.469z" fill="#FCDA65"/>
<path d="m242.92 664.47c1.868 1.867 5.602 1.867 7.469 0 1.868-1.867 1.868-5.602 0-7.469-1.867-1.867-5.601-1.867-7.469 0-1.867 1.867-1.867 5.602 0 7.469z" fill="#FCDA65"/>
<path d="m222.38 677.54c1.867 1.867 5.601 0 7.469-1.867 1.867-1.868 1.867-3.735 0-7.469-1.868-1.868-5.602 0-7.469 1.867-1.868 1.867-1.868 5.602 0 7.469z" fill="#FCDA65"/>
<path d="m181.3 699.95c1.867 1.867 5.602 1.867 7.469 0s1.867-5.602-1.867-7.469c-1.868-1.867-3.735-1.867-5.602 0-1.867 3.734-1.867 5.602 0 7.469z" fill="#FCDA65"/>
<path d="m160.76 713.02c1.867 1.867 5.602 1.867 7.469 0 1.867-3.735 0-5.602-1.867-7.469-1.867-1.868-3.735-1.868-5.602 0-3.734 1.867-1.867 5.601 0 7.469z" fill="#FCDA65"/>
<path d="m263.46 675.67c1.867 1.867 5.602 1.867 7.469 0 1.867-1.868 1.867-5.602 0-7.469-1.867-1.868-5.602-1.868-7.469 1.867-1.867 1.867-1.867 3.734 0 5.602z" fill="#FCDA65"/>
<path d="m242.92 688.74c1.868 1.868 5.602 1.868 7.469 0 1.868-1.867 1.868-5.601 0-7.469-1.867-1.867-5.601-1.867-7.469 0-1.867 1.868-1.867 5.602 0 7.469z" fill="#FCDA65"/>
<path d="m222.38 699.95c1.867 1.867 5.601 1.867 7.469 0 1.867-1.867 1.867-5.602 0-7.469-1.868-1.867-5.602-1.867-7.469 0-1.868 1.867-1.868 5.602 0 7.469z" fill="#FCDA65"/>
<path d="m201.84 713.02c1.867 1.867 5.601 1.867 7.469-1.868 1.867-1.867 1.867-3.734 0-5.601-1.868-1.868-5.602-1.868-7.469 0-1.868 1.867-1.868 5.601 0 7.469z" fill="#FCDA65"/>
<path d="m160.76 735.42c1.867 1.867 5.602 1.867 7.469 0s1.867-5.602-1.867-7.469c-1.867-1.867-3.735-1.867-5.602 1.867-1.867 1.867-1.867 3.735 0 5.602z" fill="#FCDA65"/>
<path d="m284 688.74c1.867 1.868 5.602 1.868 7.469 0 1.867-3.734 1.867-5.601 0-7.469-1.867-1.867-5.602-1.867-7.469 0-1.867 1.868-1.867 5.602 0 7.469z" fill="#FCDA65"/>
<path d="m263.46 699.95c1.867 1.867 5.602 1.867 7.469 0s1.867-5.602 0-7.469-5.602-1.867-7.469 0-1.867 5.602 0 7.469z" fill="#FCDA65"/>
<path d="m242.92 713.02c1.868 1.867 5.602 0 7.469-1.868 1.868-1.867 1.868-3.734 0-5.601-1.867-3.735-5.601-1.868-7.469 0-1.867 1.867-1.867 5.601 0 7.469z" fill="#FCDA65"/>
<path d="m201.84 735.42c1.867 1.867 5.601 1.867 7.469 0 1.867-1.867 1.867-5.602 0-7.469-1.868-1.868-5.602-1.868-7.469 0-1.868 3.734-1.868 5.602 0 7.469z" fill="#FCDA65"/>
<path d="m181.3 748.5c1.867 1.867 5.602 1.867 7.469 0 1.867-3.735 1.867-5.602 0-7.469-3.735-1.868-5.602-1.868-7.469 0-1.867 1.867-1.867 5.601 0 7.469z" fill="#FCDA65"/>
<path d="m160.76 759.7c1.867 1.867 5.602 1.867 7.469 0s1.867-5.602-1.867-7.469c-1.867-1.867-3.735-1.867-5.602 0s-1.867 5.602 0 7.469z" fill="#FCDA65"/>
<path d="m284 711.15c1.867 1.868 5.602 1.868 7.469 0 1.867-1.867 1.867-5.601 0-7.469-1.867-1.867-5.602-1.867-7.469 1.868-1.867 1.867-1.867 3.734 0 5.601z" fill="#FCDA65"/>
<path d="m263.46 724.22c1.867 1.867 5.602 1.867 7.469 0s1.867-5.602 0-7.469-5.602-1.867-7.469 0-1.867 5.602 0 7.469z" fill="#FCDA65"/>
<path d="m242.92 735.42c1.868 1.867 5.602 1.867 7.469 0 1.868-1.867 1.868-5.602 0-7.469-1.867-1.868-5.601-1.868-7.469 0-1.867 1.867-1.867 5.602 0 7.469z" fill="#FCDA65"/>
<path d="m222.38 748.5c1.867 1.867 5.601 1.867 7.469-1.868 1.867-1.867 1.867-3.734 0-5.601-1.868-1.868-5.602-1.868-7.469 0-1.868 1.867-1.868 5.601 0 7.469z" fill="#E12840"/>
<path d="m181.4 722.87c1.868 1.868 5.602 1.868 7.469-1.867 1.868-1.867 1.868-3.734 0-5.602-1.867-1.867-5.601-1.867-7.469 0-1.867 1.868-1.867 5.602 0 7.469z" fill="#E12840"/>
<path d="m201.84 759.7c1.867 1.867 5.601 1.867 7.469 0 1.867-1.867 1.867-5.602 0-7.469-1.868-1.867-5.602-1.867-7.469 0-1.868 1.867-1.868 5.602 0 7.469z" fill="#FCDA65"/>
<path d="m181.3 770.9c1.867 1.867 5.602 1.867 7.469 0 1.867-1.868 1.867-5.602 0-7.469-1.867-1.868-5.602-1.868-7.469 1.867-1.867 1.867-1.867 3.734 0 5.602z" fill="#FCDA65"/>
<path d="m162.63 785.84c3.735 0 5.602-1.868 5.602-5.602 1.867-1.867-1.867-5.602-3.734-5.602-3.735 0-5.602 1.867-5.602 5.602 0 1.867 1.867 3.734 3.734 5.602z" fill="#EB9C38"/>
<path d="m284 735.42c3.735 1.867 5.602 1.867 7.469 0s1.867-5.602 0-7.469c-1.867-1.868-5.602-1.868-7.469 0-1.867 1.867-1.867 5.602 0 7.469z" fill="#FCDA65"/>
<path d="m263.46 748.5c1.867 1.867 5.602 1.867 7.469-1.868 1.867-1.867 1.867-3.734 0-5.601-1.867-3.735-5.602-1.868-7.469 0-1.867 1.867-1.867 5.601 0 7.469z" fill="#FCDA65"/>
<path d="m242.92 759.7c1.868 1.867 5.602 1.867 7.469 0 1.868-1.867 1.868-5.602 0-7.469-1.867-1.867-5.601-1.867-7.469 0-1.867 1.867-1.867 5.602 0 7.469z" fill="#FCDA65"/>
<path d="m222.38 770.9c1.867 1.867 5.601 1.867 7.469 0 1.867-1.868 1.867-5.602 0-7.469-1.868-1.868-5.602-1.868-7.469 0-1.868 3.734-1.868 5.601 0 7.469z" fill="#FCDA65"/>
<path d="m201.84 783.97c1.867 1.868 5.601 1.868 7.469 0 1.867-3.734 1.867-5.601 0-7.469-1.868-1.867-5.602-1.867-7.469 0-1.868 1.868-1.868 5.602 0 7.469z" fill="#FCDA65"/>
<path d="m181.3 795.18c1.867 1.867 5.602 1.867 7.469 0s1.867-5.602 0-7.469-5.602-1.867-7.469 0-1.867 5.602 0 7.469z" fill="#FCDA65"/>
<path d="m160.76 808.25c1.867 1.867 5.602 0 7.469-1.867 1.867-1.868 1.867-3.735 0-7.469-3.734-1.868-5.602 0-7.469 1.867s-1.867 5.602 0 7.469z" fill="#FCDA65"/>
<path d="m941.27 384.38c-3.734-1.868-7.469-1.868-11.203-1.868l-205.4 57.885-177.39 154.98-29.876 26.141c-9.336 9.336-16.805 24.274-14.938 35.478l24.274 270.75c3.735 44.814 22.407 78.428 50.416 95.228l46.682 26.14-1.868-13.07 18.673 1.87 84.027 9.34 112.04-141.92c48.549-61.619 80.292-138.18 85.894-207.26l22.407-278.22 39.212-11.203-42.947-24.274z" fill="#EA5455"/>
<path d="m547.28 595.38l-29.876 26.141c-9.336 9.336-16.805 24.274-14.938 35.478l24.274 270.75c3.735 44.814 22.407 78.428 50.416 95.228l46.682 26.14-1.868-13.07 18.673 1.87c3.735-44.814 16.805-84.026 29.876-126.97 28.009-121.37-59.752-214.74-123.24-315.57z" fill="#E52243"/>
<path d="m941.27 384.38c-3.734-1.868-7.469-1.868-11.203-1.868l-205.4 57.885-177.39 154.98c63.487 100.83 151.25 194.19 123.24 315.57-13.071 42.947-26.141 82.159-29.876 126.97l84.027 9.34 112.04-141.92c48.549-61.619 80.292-138.18 85.894-207.26l22.407-278.22 39.212-11.203-42.947-24.274z" fill="#EA5455"/>
<path d="m506.2 636.46l46.681 28.009 214.73-199.8-42.946-24.275-207.27 181.12c-3.734 3.735-7.469 9.336-11.203 14.938z" fill="#EC6767"/>
<path d="m577 1023.4c-26.142-18.67-42.788-48.926-46.522-93.741l-24.274-270.75c0-11.203 5.601-26.141 16.805-35.478l29.876-26.141 175.52-154.98 207.27-56.017c3.734-1.867 7.469-1.867 9.336 0l37.345 22.407h1.867l-42.947-24.274c-3.734-1.868-7.469-1.868-11.203-1.868l-205.4 57.885-177.39 154.98-29.876 26.141c-9.336 9.336-16.805 24.274-14.938 35.478l24.274 270.75c3.735 44.814 22.248 78.808 50.257 95.608z" fill="#F39D89"/>
<path d="m767.62 464.67l-207.26 181.12c-9.336 9.337-16.805 24.275-14.938 35.478l24.274 270.75c5.602 61.623 36.261 101.37 84.81 106.97l113.12 12.53 112.04-141.91c48.549-61.62 80.292-138.18 85.894-207.27l24.274-296.89c0-13.071-5.602-20.54-16.805-18.672l-205.4 57.885z" fill="#CF3131"/>
<path d="m569.69 952.03l-24.274-270.75c-1.867-11.203 5.602-26.141 14.938-35.478l207.26-181.12 205.4-57.885c3.734 0 7.469 0 9.336 1.867-1.867-3.735-7.469-5.602-13.071-3.735l-205.4 56.018-207.27 181.12c-9.336 9.336-16.805 24.274-14.938 35.478l24.275 270.75c3.734 39.212 16.805 70.958 39.212 87.758-20.54-18.67-31.743-46.678-35.478-84.023z" fill="#F39D89"/>
<path d="m635.04 649.53l-22.407 20.54c-9.336 7.469-13.071 18.672-13.071 28.009l18.673 212.87c3.734 35.478 18.673 61.619 41.08 74.69l35.477 22.403v-11.199h13.071c3.735-33.611 14.938-65.354 24.275-98.965 22.407-95.23-48.549-168.05-97.098-248.34z" fill="url(#g)"/>
<path d="m945.01 483.34c-1.867-1.867-5.602-1.867-7.469-1.867l-162.45 44.814-140.04 123.24c48.549 80.292 119.5 153.12 97.098 248.34-9.337 33.611-20.54 65.354-24.275 98.965l67.222 7.469 87.761-110.17c37.345-48.549 63.486-110.17 67.221-164.32l18.672-218.47 29.876-9.336-33.61-18.673z" fill="url(#f)"/>
<path d="m603.3 681.27l37.345 22.407 168.05-156.85-33.61-20.54-162.45 143.78c-3.734 1.867-7.469 7.469-9.336 11.203z" fill="#6E55D2"/>
<path d="m808.7 546.83l-162.45 141.91c-9.336 7.469-13.071 18.673-13.071 28.009l18.673 212.87c5.601 48.549 29.876 80.291 69.088 85.891l87.761 9.34 87.761-112.04c37.345-48.548 63.487-108.3 67.221-162.45l18.673-235.28c1.867-9.336-3.734-14.938-11.204-13.07l-162.45 44.814z" fill="url(#e)"/>
<path d="m974.88 864.27l-35.478-20.54c13.071-31.744 22.407-63.487 24.274-93.363l16.806-205.4 26.143-7.469h1.87 3.73c1.87 1.867 3.73 5.601 3.73 11.203l-20.535 235.27c-1.867 26.142-9.336 54.151-20.54 80.293z" clip-rule="evenodd" fill="url(#d)" fill-rule="evenodd"/>
<path d="m784.42 1049.1l-29.876-3.73c-22.407-1.87-39.213-14.94-50.416-35.48 3.734 1.87 9.336 3.74 16.805 5.6l84.027 9.34-9.337 11.2-11.203 13.07z" fill="#E62D42"/>
<path d="m834.5 1056.5l7.464-1.5 87.036-108 39.5-61 24.5-62.5 22.5-288.5-171.5 47-165.5 144.5c-9.349 7.938-9.5 28.85-9.5 36.788l23.373 226.23c2.338 19.846 15.778 30.076 25.127 41.986 4.675 1.98 16.151 11.52 25.5 13.5l91.5 11.5z" fill="url(#c)"/>
<path d="m844.18 582.31l-162.45 141.91c-7.469 7.469-11.204 18.673-11.204 26.142l18.673 212.87c3.734 46.68 29.876 78.42 65.354 82.16l87.761 9.34 85.894-110.17c39.212-46.682 63.486-108.3 67.221-160.58l20.535-235.27c0-5.602-1.86-9.336-3.73-11.203h-5.6l-162.45 44.814zm0 478.02l-89.628-9.34c-39.213-5.6-65.354-37.34-70.956-87.76l-18.673-212.87c0-9.336 5.602-22.407 13.071-29.876l164.32-141.91 162.45-46.681c3.74 0 7.47 0 11.2 1.867 3.74 3.735 5.61 9.336 3.74 14.938l-18.67 235.27c-3.738 54.151-29.88 115.77-69.092 164.32l-87.761 112.04z" clip-rule="evenodd" fill="url(#b)" fill-rule="evenodd"/>
<path d="m377.36 472.14v-20.54l18.672 9.336-18.672-11.203 1.867-33.611 11.204 7.469v3.734c0 1.868-1.868 1.868-1.868 1.868l-3.734 1.867-1.867 1.867v1.867 5.602 1.867c0 1.868 1.867 1.868 1.867 1.868v-1.868l20.54-11.203 1.867 1.867v22.407l1.867-1.867v-18.673l16.806 9.337h1.867l-18.673-11.204v-3.734l35.478-20.54 3.735-1.867-1.868-1.868-3.734 1.868-33.611 20.539v-22.407h-1.867v24.275h-1.867l-13.071-5.602v-18.673h-1.867-1.868l-9.336 5.602v-14.938l11.204-5.602 1.867-1.867v-3.734-14.939s0-1.867 1.867-1.867v-1.867l16.805-9.336v39.212l1.868 1.867h1.867l20.54-11.203 3.734-3.735h-1.867l-1.867 1.868h-1.867l-18.673 11.203h-1.867v-39.212h-1.868-1.867l-14.938 9.336s-1.867 0-1.867 1.867v16.806s0 1.867-1.867 1.867v1.867h-1.868l-9.336 5.602v-5.602l-1.867-1.867v9.336s-1.867 0-1.867 1.867h-1.868 3.735v13.071c0 1.867-1.867 1.867-1.867 1.867l-7.469-3.734v1.867l9.336 5.602v33.611l-9.336-5.602v1.867l9.336 5.602v20.54zm61.619-35.478v-14.938 14.938zm-46.681-11.204s0 1.867-1.867 3.735l-5.602 3.734-1.867 1.867v5.602l1.867 1.867 18.672-11.203-11.203-7.469v1.867zm13.071 5.602h1.867v-1.867l-1.867 1.867zm-14.938-26.142l-11.204 7.469v1.868l11.204 7.469v-16.806zm-14.938 9.337h1.867v-1.868l-1.867 1.868zm76.557-7.469c-1.867 0-1.867 0-1.867-1.868 0-3.734 1.867-7.469 3.734-7.469 1.868-1.867 3.735-1.867 3.735-1.867 1.867 1.867 1.867 1.867 1.867 3.735 0 3.734-1.867 7.469-3.734 7.469-1.868 1.867-1.868 1.867-3.735 1.867v-1.867zm3.735-9.337c-1.868 1.868-3.735 3.735-3.735 7.469v1.868h1.867c1.868-1.868 3.735-5.602 3.735-7.469v-1.868h-1.867zm-13.071-13.07c-1.867 0-1.867-1.868-1.867-3.735s1.867-5.602 3.734-7.469c1.867 0 3.735-1.867 3.735 0 1.867 0 1.867 1.867 1.867 3.735 0 1.867-1.867 5.601-3.735 7.469h-1.867-1.867zm3.734-9.337c-1.867 0-3.734 3.735-3.734 5.602v1.867h1.867c3.735-1.867 3.735-3.734 3.735-5.601v-3.735c-1.868 0-1.868 0-1.868 1.867zm-72.823-11.203l1.868-1.868 1.867-1.867 13.071-7.469 18.672-9.336s0-1.867 1.867-1.867v-31.744-3.734h1.868l18.672-11.204h1.868c1.867 0 1.867 1.867 1.867 1.867v39.213l11.203-7.469s1.868 0 3.735-1.867v1.867c-1.867 1.867-3.735 1.867-3.735 1.867l-9.336 5.602h-1.867s-1.867 1.867-1.867 0v-39.213h-1.868l-16.805 9.337s-1.867 0-1.867 1.867v31.743s0 1.868-1.868 1.868c0 1.867-1.867 1.867-1.867 1.867l-16.805 11.203-13.071 7.469s-1.867 0-3.734 1.868h-1.868zm80.292-35.478l-1.867-1.867c0-3.735 1.867-7.469 5.602-9.337h3.734c0 1.868 1.868 1.868 1.868 3.735 0 3.734-1.868 5.602-5.602 7.469h-3.735zm3.735-9.336c-1.867 1.867-3.735 3.734-3.735 7.469 0 0 0 1.867 1.868 1.867h1.867c1.867-1.867 3.734-5.602 3.734-7.469s0-1.867-1.867-1.867h-1.867z" clip-rule="evenodd" fill="#2A384E" fill-rule="evenodd"/>
<path d="m368.03 533.76l57.885-33.611c9.336-5.601 56.017-33.61 61.619-33.61v160.58c-3.735 0-5.602 1.867-9.336 3.734-1.868 1.868-3.735 3.735-7.469 5.602-24.275 14.938-82.16 44.814-102.7 57.885v11.204l1.867-1.868 78.425-44.814c3.734-1.867 5.601-3.734 9.336-3.734l41.08-24.275v-186.72c-1.868 0-5.602 3.734-7.47 3.734l-56.017 31.744c-11.204 7.469-20.54 13.07-31.744 18.672-3.734 1.867-24.274 14.938-29.876 16.806h-1.867l-1.867 1.867-1.867-1.867v1.867h1.867l-1.867 1.867v14.938z" clip-rule="evenodd" fill="#E41D32" fill-rule="evenodd"/>
<path d="m368.03 711.15l104.57-59.752v-3.734l26.142-14.938h1.867l-1.867-1.868v-42.946l1.867 1.867 9.336-5.602v41.08-162.45l5.602 1.868v-13.071c-5.602-3.735-14.938-7.469-16.805-7.469v186.72l-41.08 24.275c-3.735 0-5.602 1.867-9.336 3.734l-78.425 44.814-1.867 1.868v5.601zm141.91 39.213v1.867l5.602-3.734v-1.868h-1.867l-3.735 3.735zm5.602-126.97l-3.735 3.735 3.735 1.867v-5.602z" clip-rule="evenodd" fill="#EC6766" fill-rule="evenodd"/>
<path d="m368.03 884.8c14.938-9.336 54.15-31.743 69.088-39.212 3.735-1.867 9.336-5.602 11.204-5.602v-3.734c-3.735 0-14.938-7.469-20.54-11.204l-41.08-22.407c-3.734-1.867-13.071-9.336-18.672-11.203v93.362z" clip-rule="evenodd" fill="#282E3B" fill-rule="evenodd"/>
<path d="m368.03 748.5l70.955 39.212c3.735 3.734 7.469 5.602 11.204 7.469 3.734 1.867 7.469 5.602 11.203 7.469 3.735 0 3.735 1.867 5.602 1.867 3.735 1.868 3.735 1.868 5.602 3.735 5.602 1.867 5.602 3.734 11.203 5.602v-13.071l-7.469-3.735c-31.743-18.672-76.557-46.681-108.3-63.487v14.939z" clip-rule="evenodd" fill="#E41D32" fill-rule="evenodd"/>
<path d="m438.98 451.6l1.868 1.867 1.867-1.867-3.735-1.867-1.867-1.868-1.867 1.868 3.734 1.867z" clip-rule="evenodd" fill="#EC6766" fill-rule="evenodd"/>
<path d="m373.63 485.21l1.868-1.867-7.469-3.734v1.867l5.601 3.734zm3.735-1.867v-11.203 11.203zm28.009-16.805l-9.337-5.602 9.337 5.602zm1.867-1.867h1.867v-11.204l-1.867 1.867v9.337zm28.009-14.938l1.867-1.868-9.336-3.734h-1.867l9.336 5.602zm3.734-1.868v-11.203 11.203z" clip-rule="evenodd" fill="#E41D32" fill-rule="evenodd"/>
<path d="m368.03 791.44c5.601 1.868 14.938 9.337 18.672 11.204l41.08 22.407c5.602 3.735 16.805 11.204 20.54 11.204v3.734c-1.868 0-7.469 3.735-11.204 5.602-14.938 7.469-54.15 29.876-69.088 39.212v14.938l102.7-59.752c1.867-1.867 0 0 0 0l-102.7-59.752v11.203z" clip-rule="evenodd" fill="#E41D32" fill-rule="evenodd"/>
<path d="m373.63 515.09c5.602-1.868 26.142-14.939 29.876-16.806 11.204-5.602 20.54-11.203 31.744-18.672l56.017-31.744c1.868 0 5.602-3.734 7.47-3.734 1.867 0 11.203 3.734 16.805 7.469v-14.938l-13.071-7.469h-1.867l-48.549 28.009h-1.867l-11.204 7.469v-1.868 1.868l-18.672 11.203v-1.867 1.867l-11.204 5.602h-1.867v1.867l-16.805 9.336h-1.868v1.868l-11.203 5.601v-1.867 1.867l-9.336 5.602v7.469l5.601 1.868z" clip-rule="evenodd" fill="#282E3B" fill-rule="evenodd"/>
<path d="m368.03 765.3c16.805 9.336 87.761 52.283 93.362 54.15v-16.805c-3.734-1.867-7.469-5.602-11.203-7.469-3.735-1.867-7.469-3.734-11.204-7.469l-70.955-39.212v16.805z" clip-rule="evenodd" fill="#2D496B" fill-rule="evenodd"/>
<path d="m368.03 780.24l102.7 59.752c3.734-3.734 1.867-26.141 1.867-31.743-1.867-1.867-1.867-1.867-5.602-3.735-1.867 0-1.867-1.867-5.602-1.867v16.805c-5.601-1.867-76.557-44.814-93.362-54.15v14.938z" clip-rule="evenodd" fill="#EC6766" fill-rule="evenodd"/>
<path d="m470.73 839.99s1.867-1.867 0 0l-102.7 59.752v11.204l1.867-1.867h1.867l28.009-16.806 29.876-16.805v-1.867l28.009-14.938 1.867-1.867 24.274-13.071v-29.876c-5.601-1.868-5.601-3.735-11.203-5.602 0 5.602 1.867 28.009-1.867 31.743z" clip-rule="evenodd" fill="#2A384E" fill-rule="evenodd"/>
<path d="m377.36 500.15v-11.203 11.203zm11.203-7.469h1.868l-9.337-5.601-1.867 1.867 9.336 3.734zm18.673-11.203h1.867v-11.204l-1.867 1.868v9.336zm13.071-5.602v-1.867l-9.337-3.735 9.337 5.602zm18.672-11.203v-11.204 11.204zm11.204-7.469h1.867l-9.336-5.602-1.867 1.867 9.336 3.735zm50.416-28.009h1.867-1.867z" clip-rule="evenodd" fill="#E41D32" fill-rule="evenodd"/>
<path d="m368.03 722.35c20.539-11.204 46.681-26.142 65.354-37.345l39.212-22.407v-11.204l-104.57 59.752v11.204z" clip-rule="evenodd" fill="#E41D32" fill-rule="evenodd"/>
<path d="m515.54 464.67l-5.602-1.868v164.32h1.867l3.735-3.735v-158.72z" clip-rule="evenodd" fill="#2D496B" fill-rule="evenodd"/>
<path d="m345.62 897.88l22.408-13.071v-93.362l-22.408-13.071v59.752h-1.867v1.867 1.867l1.867 1.868v24.274l-16.805-9.336s0-1.868-1.867-1.868h-1.867l-1.868 1.868-16.805 9.336-13.071 7.469s-1.867 1.867-3.734 1.867v1.868l3.734-1.868 13.071-7.469 18.673-11.203h3.734l16.805 11.203v28.009zm0-57.885h-1.867v1.867h1.867v-1.867zm-85.893 22.407v-1.867l3.734-1.867 11.204-5.602 1.867-1.867h1.867c1.868 0 1.868 1.867 1.868 1.867l13.07 7.469h3.735l14.938-9.336h1.867v-1.868l-33.61-18.672c-1.868 0-1.868-1.867-1.868-1.867h1.868v-1.868l20.539-11.203 3.735-1.867c-1.867 1.867-3.735 1.867-3.735 1.867l-18.672 13.071h-1.867v1.867h1.867l31.743 18.672c1.867 0 1.867 1.868 1.867 1.868h-1.867v1.867l-14.938 7.469h-1.867v1.867h-1.867-1.868v-1.867l-13.07-7.469h-3.735l-13.071 7.469-1.867 1.867h-1.867zm-13.071-9.336c1.867-1.867 3.734-1.867 3.734-1.867l9.337-7.469h1.867-1.867l-16.806-9.337-1.867-1.867v1.867l-5.602 1.868h-3.734l-5.602-3.735c-1.867 0-1.867-1.867-1.867-1.867h1.867l59.752-35.478 1.868-1.867h1.867v1.867c-1.867 1.867-3.735 1.867-3.735 1.867l-59.752 33.611v1.867l5.602 1.867h3.734l3.735-1.867h5.602l16.805 9.336v1.868 1.867l-11.204 5.602-3.734 3.734v-1.867zm61.619-41.08c-1.867 0-1.867-1.867-1.867-1.867 0-1.867 0-1.867 1.867-3.734 1.868-1.868 5.602-1.868 9.337 0 0 1.867 1.867 1.867 1.867 3.734l-1.867 1.867c-1.868 1.868-3.735 1.868-5.602 1.868s-3.735 0-3.735-1.868zm0-3.734s-1.867 0-1.867 1.867l1.867 1.867h7.469c1.868 0 1.868-1.867 1.868-1.867 0-1.867 0-1.867-1.868-1.867 0 0-1.867-1.867-3.734-1.867s-1.867 1.867-3.735 1.867zm-16.805-14.938c0-1.867-1.867-1.867-1.867-3.735l1.867-1.867c3.735-1.867 7.469-1.867 9.336 0 1.868 0 1.868 1.867 1.868 1.867 0 1.868 0 1.868-1.868 3.735h-3.734-5.602zm1.867-5.602l-1.867 1.867c0 1.868 0 1.868 1.867 1.868 1.868 1.867 5.602 1.867 7.469 0v-1.868-1.867h-3.734-3.735z" clip-rule="evenodd" fill="#282E3B" fill-rule="evenodd"/>
<path d="m254.12 518.82l-1.867-1.867 3.734-1.868h1.867v1.868l-3.734 1.867zm7.469-1.867c-1.867 0-1.867-1.868-1.867-1.868 0-3.734 1.867-7.469 3.734-9.336h3.735c1.867 1.867 1.867 1.867 1.867 3.735 0 3.734-1.867 5.601-3.735 7.469-1.867 0-1.867 1.867-3.734 1.867v-1.867zm3.734-9.337c-3.734 1.868-3.734 3.735-3.734 7.469v1.868h1.867c1.867-1.868 3.735-5.602 3.735-7.469v-1.868h-1.868zm-22.407-13.07l3.735-1.868h1.867l-3.734 1.868h-1.868zm9.337 0c-1.868-1.868-1.868-1.868-1.868-3.735 0-3.734 1.868-5.602 3.735-7.469s3.734-1.867 3.734 0c1.868 0 1.868 1.867 1.868 1.867 0 3.735-1.868 7.469-3.735 9.337h-1.867-1.867zm3.734-11.204c-1.867 1.867-3.734 5.602-3.734 7.469v1.867h1.867c1.867-1.867 3.734-3.734 3.734-7.469v-1.867h-1.867zm0-42.947v-1.867l3.735-1.867v1.867l-3.735 1.867zm7.469-1.867s-1.867-1.867-1.867-3.735c0-1.867 1.867-5.601 5.602-7.469h3.734s1.867 1.868 1.867 3.735-1.867 5.602-5.601 7.469h-3.735zm3.735-9.336c-1.868 1.867-3.735 3.734-3.735 5.601 0 1.868 0 1.868 1.867 3.735l1.868-1.867c1.867 0 3.734-3.735 3.734-5.602s0-1.867-1.867-1.867h-1.867z" clip-rule="evenodd" fill="#29384E" fill-rule="evenodd"/>
<path d="m345.62 531.89l-1.867 1.867-7.469 5.602h-1.867v188.59c3.734 1.867 5.602 3.734 9.336 5.602 3.735 1.867 5.602 3.734 9.337 5.601l14.938 9.337v-54.151c-5.602 3.735-16.806 11.204-20.54 11.204v-160.58l20.54-11.204v-14.938l-9.337 3.735 1.868 1.867-14.939 7.469zm20.54-52.283h-1.867l3.735 1.867v-1.867h-1.868zm-16.805-9.337l-13.071-7.469 13.071 7.469zm0-35.478l-13.071-7.469 13.071 7.469zm0-35.477l-13.071-9.337v1.868l13.071 7.469zm-13.071 98.964l31.744 18.673v-1.868l-31.744-16.805zm26.142 11.204l5.602-3.735v7.469l-5.602-3.734z" clip-rule="evenodd" fill="#E3233E" fill-rule="evenodd"/>
<path d="m345.62 765.3l3.735 3.734c3.735 1.868 7.469 3.735 11.204 5.602 0 0 1.867 1.867 3.734 1.867 1.867 1.868 1.867 1.868 3.735 3.735v-14.938c-3.735-1.867-7.469-5.602-11.204-5.602l-37.345-22.407v-164.32c3.734 0 11.203 5.602 14.938 7.469v-13.07 1.867l-26.142-14.938v35.478 1.867 33.611h-1.867v1.867h1.867v9.336h-1.867v1.867h1.867v11.204h-1.867v1.867h1.867v91.496l37.345 22.407z" clip-rule="evenodd" fill="#EC6464" fill-rule="evenodd"/>
<path d="m227.98 614.05h1.868l-1.868-1.867h1.868l57.885-33.611 3.734-1.867v-1.867l-3.734 1.867-59.753 33.611v3.734zm69.089-13.071v1.868l7.469-5.602 1.867-1.867h1.867-1.867l-3.734 1.867-5.602 3.734zm0 18.673v1.867l9.336 5.602v-1.867l-9.336-5.602zm0 22.407v1.867h1.867l1.867-1.867 5.602-3.735v-1.867l-7.469 5.602h-1.867zm0 14.938v1.867l9.336-7.469v-1.867l-9.336 7.469zm-3.735-82.159c0-1.868-1.867-1.868-1.867-3.735l1.867-1.867c3.735-1.867 7.469-1.867 9.337 0 1.867 0 1.867 1.867 1.867 1.867 0 1.867 0 1.867-1.867 3.735h-3.735-5.602zm1.868-5.602l-1.868 1.867c0 1.867 0 1.867 1.868 1.867 1.867 1.868 5.601 1.868 7.469 0 0 0 1.867 0 1.867-1.867 0 0-1.867 0-1.867-1.867h-3.735-3.734z" clip-rule="evenodd" fill="#E3233E" fill-rule="evenodd"/>
<path d="m470.73 636.46c-24.275 14.938-82.16 44.814-102.7 57.885-5.602 3.735-16.806 11.204-20.54 11.204v-160.58l20.54-11.204 57.885-33.611c9.336-5.601 56.017-33.61 61.619-33.61v160.58c-3.735 0-5.602 1.867-9.336 3.734-1.868 1.868-3.735 3.735-7.469 5.602z" fill="#2B384D"/>
<path d="m368.03 748.5l-14.939-9.337c-3.734-1.867-5.601-3.734-9.336-5.601-3.734-1.868-5.602-3.735-9.336-5.602v-147.51c-3.735-1.867-11.204-7.469-14.938-7.469v164.32l37.345 22.407c3.735 0 7.469 3.735 11.204 5.602v-16.805z" clip-rule="evenodd" fill="#2D496B" fill-rule="evenodd"/>
<path d="m334.42 539.36h1.867l7.469-5.602 1.867-1.867-11.203 5.602v1.867z" clip-rule="evenodd" fill="#EC6464" fill-rule="evenodd"/>
<path d="m345.62 531.89l14.939-7.469-1.868-1.867-13.071 9.336zm-9.336-33.611l-14.938-9.336v1.867l14.938 7.469zm0-35.478l-13.071-9.336v1.867l13.071 7.469zm0-35.478l-13.071-9.336v1.867l13.071 7.469zm0-35.477v-1.868l-13.071-7.469v1.868l13.071 7.469z" clip-rule="evenodd" fill="#2D496B" fill-rule="evenodd"/>
<path d="m345.62 910.95l22.408-11.204v-14.938l-22.408 13.071v13.071z" clip-rule="evenodd" fill="#E3233E" fill-rule="evenodd"/>
<path d="m349.35 399.32l18.673 11.203v-1.867l-18.673-9.336zm0 35.477l18.673 11.204v-1.867l-18.673-9.337zm0 35.478l14.938 9.337h1.867l-16.805-9.337z" clip-rule="evenodd" fill="#29384E" fill-rule="evenodd"/>
<path d="m345.62 778.37l22.408 13.07v-11.203c-1.868-1.867-1.868-1.867-3.735-3.735-1.867 0-3.734-1.867-3.734-1.867-3.735-1.867-7.469-3.734-11.204-5.602l-3.735-3.734v13.071z" clip-rule="evenodd" fill="#E3233E" fill-rule="evenodd"/>
<path d="m368.03 899.74l-22.408 11.204v13.071l22.408-13.071v-11.204z" clip-rule="evenodd" fill="#29384E" fill-rule="evenodd"/>
<path d="m250.39 634.59v-1.867l-1.867 1.867v1.867l1.867-1.867z" clip-rule="evenodd" fill="#FCDA63" fill-rule="evenodd"/>
<path d="m241.05 614.05v1.867h1.867l1.868-1.867v1.867l5.601 1.868v-1.868l-3.734-1.867h-5.602z" clip-rule="evenodd" fill="#FCDA63" fill-rule="evenodd"/>
<path d="m263.46 724.22l1.867 1.868h1.868l-1.868-1.868h-1.867z" clip-rule="evenodd" fill="#FCDA63" fill-rule="evenodd"/>
<path d="m227.98 750.36s1.868-1.867 3.735-3.735l-3.735 3.735z" clip-rule="evenodd" fill="#E3233E" fill-rule="evenodd"/>
<path d="m291.47 640.2h1.867l-11.203-5.602 9.336 5.602z" clip-rule="evenodd" fill="#E3233E" fill-rule="evenodd"/>
<path d="m590.23 453.47l1.867 1.867 5.602-3.734s1.867 0 1.867-1.867v-1.868-16.805l22.407 13.071h1.868l29.876 18.672v-1.867l-29.876-16.805 11.203-5.602s1.868-1.867 3.735-1.867v-1.868h-1.867l-3.735 1.868-9.336 5.601h-1.868v-37.345-1.867c0-1.867-1.867-1.867-1.867-1.867v1.867h-1.867l-16.805 9.336-1.868 1.868v1.867 13.071l-84.026-48.549v1.867l84.026 48.549v16.805s-1.867 0-1.867 1.868l-7.469 3.734zm29.876-50.416l-18.672 11.204-1.868 1.867v13.071l20.54 13.07v-39.212zm22.407 33.611c-1.867 0-1.867-1.868-1.867-3.735s1.867-5.602 3.735-7.469h3.734c1.867 0 1.867 1.867 1.867 3.735 0 1.867-1.867 5.601-3.734 7.469h-1.867-1.868zm3.735-9.337c-1.867 0-3.735 3.735-3.735 5.602v1.867c0 1.868 1.868 0 1.868 0 1.867 0 3.734-3.734 3.734-5.601v-1.868-1.867c-1.867 0-1.867 1.867-1.867 1.867z" clip-rule="evenodd" fill="#2D496B" fill-rule="evenodd"/>
<path d="m515.54 623.39l100.83-89.628c1.867-1.867 5.601-3.734 5.601-5.602v-1.867h-1.867l-1.867-1.867h-1.867c-22.407-14.938-89.629-52.283-100.83-57.885v156.85z" clip-rule="evenodd" fill="#2D496B" fill-rule="evenodd"/>
<path d="m549.15 649.53c1.868-1.867 3.735-5.602 5.602-7.469l78.425-67.221c1.867-1.868 1.867-1.868 3.735-3.735 1.867-1.867 1.867 0 3.734-1.867l11.204-11.204v-13.07l11.203-5.602v-1.867l-13.071 5.601-20.54-11.203-52.283 44.814-3.734 3.734-37.345 33.611c-13.071 11.204-9.337 5.602-18.673 16.805l16.805 9.337 1.868 1.867 13.07 7.469z" clip-rule="evenodd" fill="#EC6766" fill-rule="evenodd"/>
<path d="m582.76 459.07h1.867l7.469-3.735-1.867-1.867-7.469 5.602zm13.071 5.602v1.867l1.867-1.867h1.867v1.867l1.868 1.867v-3.734h-1.868c0-1.868-1.867-1.868-1.867-1.868l-1.867 1.868zm33.61 20.539h1.868c0-1.867 1.867-1.867 1.867-3.734h1.867 1.867v1.867c0 1.867 0 3.735-1.867 5.602h1.867c0-1.867 1.868-3.735 1.868-5.602s-1.868-1.867-1.868-3.734c-1.867 0-1.867 0-3.734 1.867-1.867 0-3.735 1.867-3.735 3.734z" clip-rule="evenodd" fill="#EC6766" fill-rule="evenodd"/>
<path d="m515.54 453.47l98.964 56.018 13.071 7.469 9.337-5.602h1.867l1.867-1.867v-1.868h-1.867l-20.54-11.203v-1.867h-1.867l-14.938-9.337-1.868-1.867v1.867l-18.672-11.203h1.867-1.867l-11.204-5.602-1.867-1.867-52.283-29.876v16.805zm112.04 63.487l1.868 1.867c1.867-3.734 3.734-3.734 5.601-5.602-1.867 1.868-3.734 1.868-3.734 1.868l-3.735 1.867z" clip-rule="evenodd" fill="#282D37" fill-rule="evenodd"/>
<path d="m579.03 460.94h1.867l3.734-1.867h-1.867l-3.734 1.867zm13.07 5.602v1.867l3.735-1.867v-1.867l-3.735 1.867zm7.469 5.602h1.868v-3.735l-1.868-1.867v5.602zm29.877 16.805h1.867-1.867c0-1.867 0-1.867 1.867-3.735h-1.867v3.735zm1.867 1.867h1.867c1.867 0 1.867 0 3.735-1.867h-1.868l-1.867 1.867h-1.867zm14.938 14.938v1.867c0 1.868-1.867 5.602-3.735 5.602l-1.867 1.868-1.867-1.868v1.868h3.734c3.735-1.868 5.602-5.602 5.602-7.47l-1.867-1.867zm-22.407 22.407h-1.868c0 1.868-3.734 3.735-5.601 5.602l-100.83 89.628v5.602l1.867 1.867c9.336-11.203 5.602-5.601 18.673-16.805l37.345-33.611 3.734-3.734 52.284-44.814-5.602-3.735z" clip-rule="evenodd" fill="#F39D87" fill-rule="evenodd"/>
<path d="m567.82 466.54l1.867 1.867 9.337-5.602 1.867-1.867h-1.867l-11.204 5.602zm13.071 7.469h1.867l9.336-5.602v-1.867l-11.203 5.602v1.867zm18.672 9.336l1.868 1.867v-13.07h-1.868v11.203zm16.806 11.204h1.867l3.734-1.868s1.868 0 3.735-1.867v-1.867l-3.735 3.734-5.601 1.868zm22.407 13.07h1.867l1.867-1.867h1.868c1.867 0 1.867 0 1.867 1.867v-3.734h-3.735l-3.734 3.734zm0 3.735h-1.868c0 1.867 1.868 1.867 1.868 3.734v-1.867-1.867zm-3.735 1.867c-1.867 1.867-3.734 1.867-5.602 5.602l1.868-1.867s1.867-1.868 3.734-1.868v-1.867zm-1.867-22.407h-1.867v-1.867h-1.868v3.734h1.868l1.867-1.867z" clip-rule="evenodd" fill="#E41D32" fill-rule="evenodd"/>
<path d="m543.55 722.35v1.867h1.867l3.734-1.867v-1.867h-3.734v1.867h-1.867zm1.867 14.938v1.867l5.602 1.868v-1.868l-5.602-1.867zm1.867 26.142l1.867 1.867h1.868l1.867-1.867v-3.735l-3.735 1.867-1.867 1.868zm7.469-110.17c5.602-5.601 11.204-11.203 18.673-16.805l28.009-24.274c7.469-7.469 35.478-31.744 50.416-44.814v-9.337l-11.204 11.204c-1.867 1.867-1.867 0-3.734 1.867-1.868 1.867-1.868 1.867-3.735 3.735l-78.425 67.221c-1.867 1.867-3.734 5.602-5.602 7.469l5.602 3.734z" clip-rule="evenodd" fill="#F39D87" fill-rule="evenodd"/>
<path d="m515.54 466.54c11.203 5.602 78.425 42.947 100.83 57.885l11.203-7.469-13.071-7.469-98.964-56.018v13.071zm100.83 57.885h1.867l11.204-5.602-1.868-1.867-11.203 7.469zm5.601 1.867v1.867h1.868l-1.868-1.867z" clip-rule="evenodd" fill="#EC6766" fill-rule="evenodd"/>
<path d="m207.44 690.61l1.868-1.868-1.868 1.868zm-5.601-1.868c-1.868-1.867-1.868-5.601 0-7.469 1.867-1.867 3.734-1.867 7.469 0 1.867 1.868 1.867 5.602 0 7.469-1.868 0-3.735 1.868-3.735 1.868-1.867 0-3.734-1.868-3.734-1.868z" clip-rule="evenodd" fill="#4C5654" fill-rule="evenodd"/>
<path d="m181.3 677.54c-1.867-1.867-1.867-5.602 0-7.469s3.734-1.867 5.602 0c3.734 1.867 3.734 3.734 1.867 5.602-1.867 1.867-3.735 1.867-3.735 1.867h-3.734z" clip-rule="evenodd" fill="#4C5654" fill-rule="evenodd"/>
<path d="m188.77 769.04c1.867 0 1.867-1.867 0-3.734v3.734z" clip-rule="evenodd" fill="#FCDC63" fill-rule="evenodd"/>
<path d="m869 828l328 191.5" stroke="url(#k)" stroke-linecap="round" stroke-width="10"/>
<defs>
<linearGradient id="l" x1="733" x2="85" y1="219.5" y2="511.5" gradientUnits="userSpaceOnUse">
<stop stop-color="#EBBD1C" offset=".37569"/>
<stop stop-color="#FF8C06" stop-opacity="0" offset="1"/>
</linearGradient>
<linearGradient id="j" x1="283.47" x2="341.28" y1="687.66" y2="543.46" gradientUnits="userSpaceOnUse">
<stop stop-color="#292C37" offset="0"/>
<stop stop-color="#292C37" offset="1"/>
</linearGradient>
<linearGradient id="i" x1="347.52" x2="499.87" y1="356.92" y2="379.06" gradientUnits="userSpaceOnUse">
<stop stop-color="#2A3852" offset="0"/>
<stop stop-color="#293343" offset="1"/>
</linearGradient>
<linearGradient id="h" x1="567.6" x2="630.21" y1="306.45" y2="446.61" gradientUnits="userSpaceOnUse">
<stop stop-color="#2C4465" offset="0"/>
<stop stop-color="#2D405B" offset="1"/>
</linearGradient>
<linearGradient id="g" x1="667.98" x2="667.98" y1="649.53" y2="1008" gradientUnits="userSpaceOnUse">
<stop stop-color="#6850CB" offset="0"/>
<stop stop-color="#3D24A4" offset="1"/>
</linearGradient>
<linearGradient id="f" x1="806.83" x2="806.83" y1="481.48" y2="1004.3" gradientUnits="userSpaceOnUse">
<stop stop-color="#7055DA" offset="0"/>
<stop stop-color="#200F66" offset="1"/>
</linearGradient>
<linearGradient id="e" x1="807.95" x2="807.95" y1="501.66" y2="1024.8" gradientUnits="userSpaceOnUse">
<stop stop-color="#4F30CA" offset="0"/>
<stop stop-color="#2E1B78" offset="1"/>
</linearGradient>
<linearGradient id="d" x1="1131.3" x2="984.14" y1="-813.18" y2="1300" gradientUnits="userSpaceOnUse">
<stop stop-color="#6A525E" offset="0"/>
<stop stop-color="#624C51" offset="1"/>
</linearGradient>
<linearGradient id="c" x1="394.5" x2="933" y1="510" y2="1115" gradientUnits="userSpaceOnUse">
<stop stop-color="#8A96FF" offset="0"/>
<stop stop-color="#101B7C" offset="1"/>
</linearGradient>
<linearGradient id="b" x1="666.03" x2="1020.1" y1="796.7" y2="796.7" gradientUnits="userSpaceOnUse">
<stop stop-color="#3743B0" offset="0"/>
<stop stop-color="#606EE4" offset="1"/>
</linearGradient>
<linearGradient id="k" x1="976" x2="1262" y1="755" y2="936" gradientUnits="userSpaceOnUse">
<stop stop-color="#F9E06E" offset="0"/>
<stop stop-color="#D4481C" stop-opacity=".76" offset=".28729"/>
<stop stop-color="#AB8B8A" stop-opacity="0" offset=".98994"/>
</linearGradient>
</defs>
</svg>
