<?xml version="1.0" encoding="UTF-8"?>
<svg fill="none" viewBox="0 0 1023 986" xmlns="http://www.w3.org/2000/svg">
<path d="m466.5 862.55l-202.01 116.66-202.01-116.66 202.01-116.66 202.01 116.66zm-202.01 122.8c0.492 0 0.984-0.125 1.423-0.378l207.7-119.95c0.88-0.511 1.422-1.451 1.422-2.47 0-1.013-0.542-1.955-1.422-2.466l-207.71-119.95c-0.881-0.506-1.964-0.506-2.846 0l-207.7 119.95c-0.8829 0.511-1.423 1.452-1.423 2.468s0.5401 1.955 1.423 2.467l207.7 119.95c0.44 0.253 0.932 0.378 1.423 0.378z" fill="url(#ae)"/>
<path d="m587.94 388.59c0.449 0 0.903-0.114 1.32-0.357l121.05-69.908c1.268-0.729 1.703-2.353 0.972-3.618-0.732-1.27-2.352-1.707-3.618-0.969l-121.05 69.908c-1.266 0.731-1.7 2.352-0.969 3.621 0.489 0.846 1.383 1.323 2.297 1.323z" fill="url(#t)"/>
<path d="m809.6 547.65c0.486 0 0.977-0.124 1.429-0.386l209.56-121.97c0.89-0.517 1.43-1.474 1.41-2.503-0.01-1.029-0.58-1.969-1.49-2.46l-192.04-104.23c-1.383-0.752-3.111-0.235-3.86 1.145-0.749 1.384-0.237 3.11 1.146 3.862l187.59 101.82-205.17 119.42c-1.36 0.795-1.82 2.536-1.029 3.896 0.529 0.909 1.483 1.415 2.463 1.415z" fill="url(#i)"/>
<path d="m472.92 230.71l80.725-46.621c6.205-3.582 11.237-13.196 11.237-21.473v-127.3c0-6.1622-2.788-9.846-6.777-9.846-1.366 0-2.875 0.4344-4.46 1.349l-104.88 60.568 24.153 143.33z" fill="url(#g)"/>
<path d="m681.86 488.48c0.554 0.32 0.637 0.835 0.637 1.112s-0.083 0.789-0.637 1.109l-334.03 192.9c-7.754 4.479-17.395 4.479-25.147 0l-193.36-111.66c-0.557-0.323-0.643-0.834-0.643-1.111s0.086-0.789 0.643-1.109l346.6-200.16 205.93 118.92zm-330.78 200.75l334.03-192.9c2.435-1.407 3.883-3.925 3.883-6.734 0-2.81-1.448-5.328-3.883-6.737l-207.56-119.86-1.623-0.934-349.85 202.04c-2.434 1.406-3.885 3.921-3.885 6.734 0 2.809 1.451 5.33 3.885 6.736l193.35 111.66c4.881 2.818 10.346 4.224 15.821 4.224 5.472 0 10.941-1.406 15.821-4.224z" fill="url(#f)"/>
<path d="m46.866 225.91v-3e-3 3e-3zm-0.0056-0.034c0-3e-3 0-5e-3 -0.0023-0.011 0.0023 6e-3 0.0023 8e-3 0.0023 0.011zm-0.0058-0.035c0-5e-3 0-0.011-0.0022-0.017 0.0022 6e-3 0.0022 0.012 0.0022 0.017zm-0.0022-0.031c-0.1946-1.361 0.1426-2.952 0.8057-4.467l6.1144 2.706c0.894-1.749 2.2346-3.32 3.763-4.204l371.91-214.78c0.946-0.54618 1.849-0.80854 2.649-0.80854 0.514 0 0.986 0.10517 1.403 0.31666l-5.56-3.1896 8e-3 0.03486c-0.492-0.32639-1.071-0.50074-1.718-0.50074-0.791 0-1.68 0.25781-2.617 0.79798l-371.91 214.78c-3.0114 1.737-5.3004 6.156-4.8483 9.311z" fill="url(#e)"/>
<path d="m101.08 510.23c-0.74-0.503-1.2625-1.378-1.4657-2.578l-46.906-278.36c-0.2683-1.58 0.1741-3.498 1.0659-5.245l-6.1144-2.706c-0.6631 1.514-1.0003 3.106-0.8058 4.467v0.015c0.0023 5e-3 0.0023 0.011 0.0023 0.017 0.0029 8e-3 0.0029 0.017 0.0029 0.023 0.0023 5e-3 0.0022 8e-3 0.0022 0.011 0 0.012 0.0029 0.02 0.0058 0.031v3e-3c0.0029 0.011 0.0028 0.026 0.0057 0.037l46.906 278.36c0.2463 1.449 0.9629 2.412 1.9601 2.832l-0.0058 3e-3 5.3468 3.09z" fill="url(#d)"/>
<path d="m477.36 295.14l-371.91 214.78c-2.872 1.661-5.329 0.704-5.8347-2.272l-46.906-278.36c-0.5372-3.161 1.7744-7.685 4.8288-9.449l371.91-214.78c2.871-1.6577 5.331-0.69993 5.834 2.2725l46.905 278.36c0.538 3.162-1.774 7.685-4.829 9.449z" clip-rule="evenodd" fill="#10265E" fill-rule="evenodd"/>
<path d="m468.8 285.12l-44.217-262.29-358.49 207.03 5.2857 31.179 172.36-99.54c2.203-1.272 5.027-1.924 7.704-1.924 2.214 0 4.331 0.446 5.912 1.361l211.06 121.89 0.388 2.298z" clip-rule="evenodd" fill="#1E2B77" fill-rule="evenodd"/>
<path d="m711.14 426.93l-20.295 10.603-203.52-117.54c-3.406-1.967-9.353-1.718-13.284 0.551l-351.01 202.72c-3.36-1.881-18.676-9.249-18.676-9.249l7.429 19.364 0.032-0.023c0.306 0.859 0.968 1.663 2.077 2.306l214.35 123.79c3.406 1.966 9.353 1.72 13.284-0.552l359.2-207.44c1.615-0.932 2.603-2.061 3.013-3.205l0.028 0.018 7.38-21.341z" fill="url(#c)"/>
<path d="m708.01 430.26l-368.13 212.6c-4.032 2.327-10.127 2.582-13.616 0.566l-219.68-126.87c-3.489-2.014-3.052-5.535 0.977-7.862l368.13-212.6c4.029-2.326 10.124-2.578 13.612-0.563l219.68 126.86c3.492 2.015 3.052 5.537-0.977 7.863z" fill="url(#b)"/>
<path d="m708.01 428.14l-368.13 212.6c-4.032 2.329-10.126 2.58-13.615 0.565l-219.68-126.86c-1.143-0.66-1.823-1.489-2.134-2.378-0.552 1.656 0.111 3.33 2.134 4.499l219.68 126.87c3.489 2.016 9.583 1.761 13.615-0.566l368.13-212.6c2.712-1.566 3.754-3.664 3.111-5.488-0.399 1.198-1.416 2.387-3.111 3.364z" clip-rule="evenodd" fill="#fff" fill-rule="evenodd"/>
<path d="m228.84 596.87v-4.038c0-0.383 0.235-0.557 0.52-0.392l14.241 8.223c0.286 0.165 0.517 0.612 0.517 0.992v4.041c0 0.38-0.231 0.557-0.517 0.392l-14.241-8.223c-0.285-0.166-0.52-0.612-0.52-0.995z" clip-rule="evenodd" fill="#183C8E" fill-rule="evenodd"/>
<path d="m250.13 609.17v-4.038c0-0.383 0.235-0.56 0.52-0.394l14.241 8.222c0.286 0.166 0.52 0.612 0.52 0.995v4.039c0 0.382-0.234 0.559-0.52 0.394l-14.241-8.225c-0.285-0.166-0.52-0.61-0.52-0.993z" clip-rule="evenodd" fill="#183C8E" fill-rule="evenodd"/>
<path d="m163.86 504.68l305.92-176.67c2.041-1.178 4.552-1.178 6.593 2e-3l108.93 63.044c1.566 0.906 1.563 3.164 0 4.067l-305.78 176.59c-2.037 1.175-4.548 1.175-6.585 0l-109.08-62.962c-1.566-0.907-1.566-3.167 0-4.071z" clip-rule="evenodd" fill="#BABADC" fill-rule="evenodd"/>
<path d="m163.86 508.75l1.094 0.631 304.82-176.04c2.041-1.178 4.552-1.178 6.593 2e-3l107.84 62.412 1.095-0.634c1.563-0.903 1.566-3.161 0-4.067l-108.93-63.044c-2.041-1.18-4.552-1.18-6.593-2e-3l-305.92 176.67c-1.566 0.904-1.566 3.164 0 4.071z" clip-rule="evenodd" fill="#9C9FCC" fill-rule="evenodd"/>
<path d="m484.58 343.98l-265.73 153.46-11.815-6.822 265.73-153.46 11.814 6.822z" clip-rule="evenodd" fill="#10265E" fill-rule="evenodd"/>
<path d="m513.55 360.71l-249.25 143.94-11.816-6.825 249.25-143.94 11.815 6.822z" clip-rule="evenodd" fill="#10265E" fill-rule="evenodd"/>
<path d="m532.42 371.6l-293.46 169.48-11.816-6.826 293.46-169.47 11.815 6.825z" clip-rule="evenodd" fill="#10265E" fill-rule="evenodd"/>
<path d="m551.29 382.5l-293.46 169.48-11.815-6.822 293.46-169.48 11.818 6.825z" clip-rule="evenodd" fill="#10265E" fill-rule="evenodd"/>
<path d="m570.15 393.4l-293.46 169.48-11.815-6.822 293.46-169.48 11.818 6.822z" clip-rule="evenodd" fill="#10265E" fill-rule="evenodd"/>
<path d="m202.8 506.72l-11.815 6.822-11.814-6.822 11.814-6.826 11.815 6.826z" clip-rule="evenodd" fill="#10265E" fill-rule="evenodd"/>
<path d="m244.47 516.1l-24.524 14.162-11.814-6.822 24.524-14.162 11.814 6.822z" clip-rule="evenodd" fill="#10265E" fill-rule="evenodd"/>
<path d="m481.55 547.43l82.487-47.635c3.223-1.861 3.223-4.879 0-6.742l-56.407-32.574c-3.222-1.863-8.451-1.863-11.674 0l-82.488 47.636c-3.223 1.86-3.223 4.882 0 6.742l56.406 32.576c3.226 1.861 8.452 1.861 11.676-2e-3v-1e-3z" fill="url(#a)"/>
<path d="m413.47 510.87l82.488-47.636c3.223-1.863 8.452-1.863 11.674 0l56.407 32.574c0.994 0.574 1.646 1.266 2.025 1.992 0.855-1.626 0.204-3.461-2.025-4.75l-56.407-32.574c-3.222-1.863-8.451-1.863-11.674 0l-82.488 47.636c-2.228 1.286-2.877 3.121-2.026 4.75 0.38-0.726 1.032-1.417 2.026-1.992z" clip-rule="evenodd" fill="#9C9FCC" fill-rule="evenodd"/>
<path d="m140.6 474.66l75.718-43.728v-1e-3h3e-3l103.43-59.732v-1e-3h1e-3l27.715-16.004v-1e-3l75.718-43.727v-2e-3h3e-3l45.62-26.345-0.388-2.298-42.948-24.802h-1e-3v-1e-3l-168.11-97.085-0.159-0.089h-0.026v-0.015c-0.178-0.096-0.362-0.187-0.552-0.273h-0.02v-8e-3c-0.225-0.1-0.456-0.192-0.694-0.277h-0.164v-0.056c-0.254-0.084-0.517-0.162-0.785-0.23h-0.069v-0.017c-0.46-0.114-0.938-0.203-1.428-0.268h-0.572v-0.064c-0.473-0.043-0.956-0.065-1.443-0.065-0.374 0-0.751 0.015-1.129 0.038v0.092h-0.951c-0.545 0.067-1.086 0.161-1.62 0.279v6e-3h-0.029c-0.574 0.129-1.139 0.288-1.686 0.476v0.095h-0.265c-0.2 0.074-0.398 0.15-0.592 0.232v0.054h-0.126c-0.15 0.065-0.299 0.132-0.446 0.201v0.086h-0.175c-0.234 0.116-0.463 0.237-0.685 0.366l-172.36 99.54 2.2519 13.276 45.533-26.296v-1e-3h1e-3l2.067-1.195c0.02-0.011 0.04-0.022 0.057-0.031 1.606-0.909 3.692-1.364 5.781-1.364 2.111 0 4.226 0.466 5.837 1.395l4.542 2.624h1e-3l51.863 29.952c0.011 6e-3 0.023 0.012 0.035 0.02 2e-3 0 6e-3 3e-3 8e-3 6e-3 9e-3 3e-3 0.018 9e-3 0.026 0.014 3e-3 0 6e-3 3e-3 9e-3 6e-3 8e-3 6e-3 0.02 0.012 0.029 0.017 6e-3 3e-3 0.011 6e-3 0.02 9e-3 3e-3 2e-3 6e-3 6e-3 8e-3 8e-3 3.089 1.867 3.047 4.828-0.134 6.663l-82.487 47.635c-1.612 0.932-3.724 1.398-5.838 1.398-2.1118 0-4.226-0.466-5.8378-1.398l-3.9882-2.303h-6e-4v-1e-3l-8.6885-5.018 3.3653 19.851 2.1288 12.551 6.3377-3.66v-1e-3h0.0018l75.716-43.728v-1e-3h1e-3l75.717-43.727v-1e-3h3e-3l62.658-36.186c1.02-0.589 2.154-0.883 3.291-0.883 1.141 0 2.281 0.297 3.301 0.885l21.038 12.176 40 23.151h3e-3v1e-3l45.429 26.292h2e-3v1e-3l2.463 1.426c1.534 0.885 1.563 3.075 0.088 4.013-0.028 0.02-0.06 0.037-0.088 0.054l-234.48 135.41h-1e-3l-71.301 41.175c-1.017 0.589-2.154 0.884-3.291 0.884-1.138 0-2.274-0.295-3.292-0.884l-4.281-2.468 3.261 19.228 30.045-17.351z" fill="url(#ad)"/>
<path d="m103.45 334.96v-0.056h0.29c0.593-0.12 1.168-0.281 1.709-0.483v-0.089h0.23c0.215-0.085 0.425-0.178 0.628-0.277v-9e-3h0.015c0.173-0.084 0.34-0.174 0.504-0.269l46.054-26.596v-1e-3h2e-3l27.713-16.004v-1e-3h2e-3l8.717-5.032 0.141-0.083v-0.029h0.045c0.427-0.262 0.793-0.546 1.097-0.844v-0.012h0.012c1.817-1.794 1.429-4.128-1.161-5.694 2.121 1.281 2.729 3.076 1.891 4.671-0.23-0.44-0.56-0.868-1.006-1.264h-0.022v-0.02c-0.285-0.25-0.616-0.487-0.998-0.708l-56.406-32.576-0.243-0.135h-0.071v-0.037c-0.168-0.088-0.341-0.171-0.517-0.248h-0.054v-0.023c-0.218-0.094-0.441-0.182-0.671-0.263h-0.187v-0.063c-0.718-0.237-1.485-0.406-2.273-0.509h-0.583v-0.063c-0.41-0.035-0.824-0.053-1.238-0.053-0.351 0-0.701 0.014-1.049 0.039v0.077h-0.771c-0.824 0.107-1.626 0.289-2.372 0.543v0.029h-0.083c-0.165 0.058-0.329 0.119-0.488 0.185v0.101h-0.237c-0.291 0.128-0.572 0.269-0.837 0.423l-47.176 27.242 5.3901 31.783h8e-4v5e-3l0.6123 3.611 2.4136 14.231 12.677 7.322c0.1637 0.095 0.332 0.184 0.5055 0.269h0.0785v0.038c0.184 0.088 0.3726 0.169 0.5655 0.247h0.2914v0.112c0.1709 0.062 0.3451 0.12 0.5217 0.174h0.0501v0.014c0.3491 0.106 0.7097 0.197 1.0757 0.271h0.0672v0.014c0.8683 0.172 1.7765 0.258 2.6835 0.258 0.83 0 1.66-0.072 2.46-0.216v-2e-3zm85.99-55.488c-9e-3 -2e-3 -0.014-5e-3 -0.02-8e-3 6e-3 3e-3 0.011 6e-3 0.02 8e-3zm-0.049-0.025c-2e-3 -3e-3 -5e-3 -6e-3 -8e-3 -6e-3 2e-3 0 6e-3 3e-3 8e-3 6e-3zm-0.034-0.02c-2e-3 -3e-3 -5e-3 -6e-3 -8e-3 -6e-3 2e-3 0 6e-3 3e-3 8e-3 6e-3z" fill="url(#ac)"/>
<path d="m73.632 274.32l45.533-26.296-45.533 26.296zm45.534-26.297l2.067-1.195c0.02-0.011 0.04-0.022 0.057-0.031-0.017 9e-3 -0.037 0.02-0.057 0.031l-2.067 1.195z" fill="url(#ab)"/>
<path d="m191.34 284.15c0.838-1.595 0.229-3.39-1.891-4.671-3e-3 -2e-3 -6e-3 -5e-3 -9e-3 -8e-3 -8e-3 -3e-3 -0.014-6e-3 -0.02-9e-3 -8e-3 -6e-3 -0.02-0.011-0.029-0.017-2e-3 -3e-3 -6e-3 -6e-3 -8e-3 -6e-3 -9e-3 -5e-3 -0.018-0.011-0.026-0.014-3e-3 -2e-3 -6e-3 -6e-3 -9e-3 -6e-3 -0.011-8e-3 -0.023-0.014-0.035-0.02l-56.406-32.576c-1.611-0.929-3.725-1.395-5.837-1.395-2.089 0-4.174 0.455-5.78 1.364-0.018 9e-3 -0.037 0.02-0.057 0.031l-47.601 27.492 0.4252 2.511 47.176-27.241c1.611-0.932 3.726-1.398 5.837-1.398 2.115 0 4.226 0.466 5.837 1.394l56.406 32.577c0.995 0.574 1.646 1.266 2.026 1.992h1e-3z" clip-rule="evenodd" fill="#2F2E81" fill-rule="evenodd"/>
<path d="m114.86 476.14c1.137 0 2.274-0.295 3.291-0.884l305.78-176.58-1.095 0.631-107.84-62.408c-1.02-0.592-2.16-0.887-3.301-0.887-1.137 0-2.274 0.295-3.291 0.883l-219.61 126.83 1.5852 9.35 224.18-129.46 10.558 6.1-232.85 134.47 1.1981 7.064 0.0583 0.342 238.63-137.81 10.558 6.097-247.31 142.82 0.1605 0.949 1.095 6.455 253.09-146.16 10.558 6.095-261.77 151.17 2.2721 13.394 4.862 2.809-3.995 2.306 3.127 18.435 11.205-6.473 10.558 6.095-16.472 9.515-4.149-2.394 1.342 7.908 4.281 2.468c1.017 0.589 2.154 0.884 3.292 0.884zm280.56-185.84l10.556 6.097-266.51 153.91-10.558-6.095 266.51-153.91zm-28.081-16.216l10.558 6.096-253.31 146.29-10.558-6.096 253.31-146.29z" clip-rule="evenodd" fill="#343183" fill-rule="evenodd"/>
<path d="m424.02 298.62c1.475-0.938 1.446-3.128-0.088-4.013l-108.94-63.047 108.94 63.047c1.534 0.885 1.563 3.075 0.088 4.013z" clip-rule="evenodd" fill="#343183" fill-rule="evenodd"/>
<path d="m88.793 363.72l219.61-126.82c1.017-0.589 2.154-0.884 3.291-0.884 1.141 0 2.281 0.295 3.301 0.887l107.84 62.408 1.095-0.631c0.029-0.017 0.06-0.035 0.088-0.054 1.475-0.938 1.446-3.127-0.088-4.013l-108.94-63.047c-1.02-0.588-2.16-0.885-3.301-0.885-1.137 0-2.271 0.294-3.291 0.883l-220.44 127.3 0.8244 4.857z" clip-rule="evenodd" fill="#2F2E81" fill-rule="evenodd"/>
<path d="m139.47 450.31l266.51-153.91-10.555-6.097-266.51 153.91 10.558 6.095z" clip-rule="evenodd" fill="#1E2B74" fill-rule="evenodd"/>
<path d="m124.59 426.47l253.31-146.29-10.558-6.096-253.31 146.29 10.558 6.096z" clip-rule="evenodd" fill="#1E2B74" fill-rule="evenodd"/>
<path d="m101.68 439.7l3.995-2.306-4.862-2.809 0.816 4.815 0.051 0.3z" clip-rule="evenodd" fill="#1E2B74" fill-rule="evenodd"/>
<path d="m110.1 467.27l16.472-9.515-10.558-6.096-11.205 6.474 1.142 6.743 4.149 2.394z" clip-rule="evenodd" fill="#1E2B74" fill-rule="evenodd"/>
<path d="m98.539 421.19l261.77-151.17-10.558-6.095-253.09 146.16 1.8832 11.107z" clip-rule="evenodd" fill="#1E2B74" fill-rule="evenodd"/>
<path d="m95.4 402.68l247.31-142.82-10.558-6.096-238.63 137.81 1.8829 11.104z" clip-rule="evenodd" fill="#1E2B74" fill-rule="evenodd"/>
<path d="m92.261 384.17l232.85-134.47-10.558-6.1-224.18 129.46 1.883 11.106z" clip-rule="evenodd" fill="#1E2B74" fill-rule="evenodd"/>
<path d="m99.232 245.38l-7.0693 4.521-0.857-5.247 7.0694-4.522 0.8569 5.248z" clip-rule="evenodd" fill="#75C9CB" fill-rule="evenodd"/>
<path d="m105.03 280.88l-7.0688 4.521-5.0152-30.713 7.072-4.522 5.012 30.714z" clip-rule="evenodd" fill="#75C9CB" fill-rule="evenodd"/>
<path d="m107.8 297.85l-7.072 4.521-1.9911-12.193 7.0711-4.521 1.992 12.193z" clip-rule="evenodd" fill="#75C9CB" fill-rule="evenodd"/>
<path d="m110.67 315.45l-7.069 4.521-1.991-12.193 7.068-4.521 1.992 12.193z" clip-rule="evenodd" fill="#75C9CB" fill-rule="evenodd"/>
<path d="m112.55 255.61l-7.068 4.522-1.992-12.193 7.069-4.522 1.991 12.193z" clip-rule="evenodd" fill="#75C9CB" fill-rule="evenodd"/>
<path d="m116.35 278.92l-7.069 4.522-2.924-17.903 7.072-4.522 2.921 17.903z" clip-rule="evenodd" fill="#75C9CB" fill-rule="evenodd"/>
<path d="m119.85 300.37l-7.069 4.521-2.506-15.357 7.069-4.521 2.506 15.357z" clip-rule="evenodd" fill="#75C9CB" fill-rule="evenodd"/>
<path d="m113.54 333.04l-7.07 4.522-1.991-12.193 7.069-4.522 1.992 12.193z" clip-rule="evenodd" fill="#75C9CB" fill-rule="evenodd"/>
<path d="m109.78 238.64l-7.068 4.522-0.858-5.248 7.069-4.521 0.857 5.247z" clip-rule="evenodd" fill="#75C9CB" fill-rule="evenodd"/>
<path d="m121.6 346.74l-12.341 7.894-0.831-5.094 12.34-7.894 0.832 5.094z" clip-rule="evenodd" fill="#75C9CB" fill-rule="evenodd"/>
<path d="m781.91 531.97l59.744 34.503c1.368 0.786 1.648 1.489 1.648 1.634 0 0.069-0.177 0.363-0.754 0.692l-287.46 166.01v3e-3c-2.326 1.34-6.837 1.103-9.644-0.518l-59.745-34.502c-1.363-0.789-1.644-1.489-1.644-1.635 0-0.069 0.178-0.363 0.754-0.694l287.46-166.01c1.014-0.589 2.448-0.872 3.974-0.872 1.969 0 4.089 0.474 5.669 1.389zm-224.02 207.7v2e-3l287.47-166.01c2.26-1.306 3.557-3.332 3.557-5.556 0-2.494-1.626-4.864-4.452-6.499l-59.743-34.5c-4.528-2.618-11.227-2.846-15.261-0.517l-287.46 166.01c-2.263 1.309-3.558 3.332-3.558 5.559 0 2.495 1.627 4.861 4.453 6.496l59.74 34.5c2.437 1.407 5.497 2.124 8.435 2.124 2.529 0 4.96-0.532 6.825-1.609z" fill="url(#aa)"/>
<path d="m728.5 431.06c-7.557 4.365-14.703 10.512-21.066 17.775-8.83-28.372-35.763-37.172-67.628-18.77-26.361 15.226-49.336 45.169-61.491 76.895-4.029 0.131-8.515 1.454-13.267 4.198-17.201 9.934-31.148 34.096-31.148 53.966 0 0.429 0.044 0.817 0.055 1.234-4.906 0.34-10.326 2.076-16.032 5.371-22.005 12.707-39.84 43.608-39.84 69.019 0 25.414 17.835 35.714 39.84 23.008l210.58-121.61c26.562-15.34 48.092-52.64 48.092-83.313 0-30.675-21.53-43.108-48.092-27.772z" fill="url(#z)"/>
<path d="m728.5 431.06c-4.38 2.532-8.618 5.676-12.649 9.274l-23.547-13.61 3e-3 8e-3c-12.936-9.097-31.663-8.702-52.501 3.332-26.361 15.226-49.337 45.169-61.492 76.894-4.028 0.132-8.515 1.455-13.266 4.199-17.201 9.934-31.148 34.096-31.148 53.965 0 0.43 0.043 0.818 0.054 1.235-4.905 0.34-10.326 2.076-16.032 5.371-22.004 12.707-39.839 43.608-39.839 69.019 0 12.595 4.389 21.464 11.487 25.674l-0.018 6e-3 0.18 0.106 0.038 0.023 57.677 33.488 12.597-60.617 168.46-97.283c26.562-15.339 48.092-52.64 48.092-83.313 0-30.675-21.53-43.108-48.092-27.771z" fill="url(#y)"/>
<path d="m821.21 461.81l-58.438-33.965 3e-3 0.014c-8.724-5.196-20.85-4.544-34.268 3.204-4.38 2.533-8.618 5.676-12.649 9.275l-23.547-13.611 3e-3 9e-3c-12.936-9.098-31.663-8.703-52.501 3.332-26.361 15.225-49.337 45.169-61.492 76.894-4.028 0.131-8.515 1.454-13.267 4.198-17.201 9.935-31.147 34.097-31.147 53.966 0 0.429 0.043 0.817 0.054 1.235-4.906 0.34-10.326 2.075-16.032 5.37-22.004 12.708-39.839 43.609-39.839 69.019 0 12.596 4.389 21.465 11.486 25.675l-0.017 5e-3 0.18 0.106 0.037 0.023 57.677 33.488 12.598-60.616 168.46-97.284c21.53-12.433 39.751-39.298 45.881-65.369l46.822-14.968z" fill="url(#x)"/>
<path d="m786.37 464.66c-7.558 4.364-14.704 10.509-21.067 17.772-8.829-28.37-35.762-37.17-67.627-18.767-26.361 15.222-49.337 45.169-61.492 76.894-4.029 0.128-8.515 1.454-13.266 4.198-17.202 9.935-31.148 34.095-31.148 53.964 0 0.428 0.043 0.82 0.054 1.237-4.906 0.338-10.326 2.072-16.032 5.368-22.004 12.707-39.839 43.608-39.839 69.022 0 25.411 17.835 35.712 39.839 23.004l210.58-121.61c26.559-15.337 48.091-52.638 48.091-83.313 0-30.676-21.532-43.109-48.091-27.769z" fill="url(#w)"/>
<path d="m767.23 483.58c6.363-7.262 13.512-13.407 21.069-17.771 12.984-7.5 24.759-8.346 33.414-3.679-8.786-5.922-21.367-5.55-35.345 2.521-7.121 4.113-13.866 9.82-19.947 16.537 0.283 0.783 0.557 1.578 0.809 2.392z" clip-rule="evenodd" fill="#fff" fill-rule="evenodd"/>
<path d="m537.88 675.5c0-25.414 17.836-56.316 39.84-69.023 5.706-3.295 11.126-5.03 16.032-5.367-0.012-0.417-0.055-0.809-0.055-1.237 0-19.87 13.948-44.03 31.151-53.964 4.752-2.744 9.235-4.07 13.267-4.199 12.151-31.724 35.127-61.671 61.489-76.893 19.272-11.132 36.73-12.295 49.483-5.213-12.889-8.335-31.148-7.648-51.412 4.053-26.361 15.224-49.337 45.171-61.492 76.896-4.029 0.128-8.515 1.454-13.266 4.199-17.202 9.934-31.148 34.094-31.148 53.963 0 0.428 0.043 0.82 0.054 1.237-4.906 0.338-10.326 2.072-16.032 5.368-22.004 12.707-39.839 43.608-39.839 69.022 0 13.05 4.711 22.102 12.269 26.111-6.427-4.458-10.341-13.047-10.341-24.953z" clip-rule="evenodd" fill="#fff" fill-rule="evenodd"/>
<path d="m374.95 807.3l-5.138-3.456 143.99-86.711 2.892 4.81-141.74 85.357z" fill="url(#v)"/>
<path d="m165.79 802.44c1.012 0 1.989-0.537 2.506-1.486 0.749-1.387 0.238-3.112-1.142-3.864l-122.58-66.533 177.6-103.36c1.358-0.792 1.818-2.535 1.029-3.893-0.792-1.36-2.54-1.821-3.892-1.031l-181.97 105.91c-0.8892 0.517-1.432 1.474-1.4149 2.503 0.0143 1.029 0.5832 1.969 1.4887 2.461l127.03 68.951c0.432 0.234 0.898 0.343 1.354 0.343z" fill="url(#u)"/>
<path d="m264.49 942.19l-137.91-79.645 137.9-79.643 137.91 79.645-137.91 79.643z" fill="url(#s)"/>
<path d="m299.7 817.74s2.365 2.346 4.826 5.116c2.46 2.772 9.281 6.545 12.146 8.231 2.869 1.684 16.05 11.169 18.993 20.761 2.946 9.595-6.269 11.101-15.767 9.658-9.497-1.444-18.549-9.953-21.204-13.036-2.651-3.087-11.778-10.018-23.532-15.74-11.756-5.719-4.941-13.969-4.941-13.969l29.479-1.021z" clip-rule="evenodd" fill="#0E2253" fill-rule="evenodd"/>
<path d="m214.25 848.58s-1.806 4.389-2.208 9.988c-0.404 5.602-0.886 17.729-1.086 21.282-0.203 3.55-0.103 12.221 6.334 20.367 6.441 8.142 9.744 11.341 17.947 7.871 8.2-3.47 7.669-17.374 6.026-24.491-1.646-7.117-3.403-23.091-3.294-24.774 0.108-1.684-0.544-2.741-0.544-2.741l-23.175-7.502z" clip-rule="evenodd" fill="#0E2253" fill-rule="evenodd"/>
<path d="m324.21 652.93s-0.163 63.827-14.184 98.055c0 0-9.901 30.081-10.43 65.587 0 0 2.609 6.045-0.75 11.095-3.364 5.054-25.068 10.141-29.077-6.079-4.011-16.223-3.383-46.775 0.266-59.599 3.646-12.824-2.598-47.767-2.598-47.767s-5.871 3.958-13.06 29.352c-7.192 25.394-12.706 35.149-15.221 42.177-2.517 7.028-3.928 49.798-1.708 70.608 0 0-17.604 2.949-22.922-5.371-5.317-8.321-8.112-51.981-7.163-65.946 0.951-13.967 5.666-58.745 4.523-72.538-1.143-13.79-4.298-24.937-1.483-38.807 2.818-13.873 95.283-46.838 95.283-46.838l18.524 26.071z" clip-rule="evenodd" fill="#10265E" fill-rule="evenodd"/>
<path d="m211.89 712.51c-1.143-13.79-4.298-24.937-1.483-38.807 1.06-5.216 14.79-13.13 31.511-20.976 28.467-3.311 64.574-7.236 67.078-6.918 2.26 0.288 8.217 2.383 13.152 4.221l2.066 2.906s-0.012 3.882-0.235 10.226c-6.606 2.156-19.461 0.418-19.461 0.418-1.692 4.521-12.415 20.704-26.07 27.912-13.658 7.208-54.18 5.859-56.437 8.525-2.257 2.667-1.84 37.595-1.475 42.031 0.369 4.433-3.009 32.485-6.157 57.296-3.097 24.411 3.271 53.823 3.477 54.769-1.328-0.806-2.489-1.809-3.326-3.119-5.317-8.321-8.112-51.981-7.163-65.946 0.951-13.967 5.666-58.745 4.523-72.538z" clip-rule="evenodd" fill="#0E2253" fill-rule="evenodd"/>
<path d="m287.83 445.09s20.801 4.207 27.799 5.667c1.162 0.241 2.111 1.029 2.574 2.121 2.137 5.038 7.566 20.718 4.343 43.889-3.96 28.471-2.009 47.529-2.009 47.529l10.804 49.568s13.204 47.135 12.198 48.458c-1.006 1.324-27.159 22.276-35.559 19.626-8.401-2.651-5.781-7.433-5.781-7.433s-5.897 34.542-35.776 34.954c-29.882 0.414-54.283 1.114-59.655-10.838-5.369-11.955-0.172-62.889 4.597-83.124 4.766-20.232 16.292-60.616 16.292-60.616l-44.953-47.356 36.682-29.492s8.523-16.826 12.14-19.027c3.621-2.204 5.581-0.462 5.581-0.462l50.723 6.536z" clip-rule="evenodd" fill="#3A378A" fill-rule="evenodd"/>
<path d="m307.2 651.01c0.017 1.726 1.087 4.27 6.501 5.979 5.849 1.847 19.849-7.148 29.004-13.884-4.554 3.984-27.038 21.266-34.721 18.842-1.669-0.526-2.889-1.137-3.795-1.78 1.612-3.864 2.543-7.196 3.011-9.157z" fill="url(#r)"/>
<path d="m206.89 674.6c5.669 12.612 31.422 11.872 62.955 11.438 8.02-0.112 14.398-2.558 19.458-6.137-5.329 5.336-12.712 9.432-22.878 9.572-29.882 0.414-54.283 1.114-59.655-10.838-1.763-3.924-2.381-12.061-2.255-21.921 0.126 8.005 0.841 14.464 2.375 17.886z" fill="url(#q)"/>
<path d="m232.32 438.58s-7.409 9.434 3.892 21.638c6.955 7.514 19.007 23.788 29.35 40.742 6.464 10.59 12.329 16.174 15.807 25.325 0 0 0.18-10.977 0.195-27.92 0.014-15.991-0.181-32.602-1.001-36.766-1.686-8.577-39.905-27.417-48.243-23.019z" clip-rule="evenodd" fill="#F6FAFD" fill-rule="evenodd"/>
<path d="m261.58 465.68s3.975 2.335 5.321 2.101c1.343-0.234 5.571-4.553 5.571-4.553s10.838-0.466 11.907-5.141c1.069-4.676 1.731-9.381 2.769-11.824 1.037-2.441 5.429-14.151 5.348-18.855-0.08-4.704-0.468-13.104 1.452-17.603s3.554-49.084-39.388-46.761c-42.945 2.321-28.487 46.627-28.487 46.627s-3.106 1.414-1.063 7.114c2.043 5.698 2.483 6.282 3.523 9.108 1.04 2.829 1.563 4.644 4.352 6.894l0.842 5.276s-1.837 8.134 3.701 15.86c5.534 7.722 24.152 11.757 24.152 11.757z" clip-rule="evenodd" fill="#FBD7CE" fill-rule="evenodd"/>
<path d="m316.82 451.24s4.601 0.568 20.397 37.612c8.814 20.669 22.155 41.971 25.255 57.418 3.098 15.448 1.997 32.073-1.04 33.316-2.923 1.198-55.849 22.519-72.41 29.247-0.914 0.372-1.935-0.183-2.131-1.151l-5.252-25.692 32.833-13.636s6.123-7.874 11.986-10.918c0 0-6.948-12.086-6.608-15.441 0.34-3.353-1.535-37.936 2-52.117 3.534-14.18-5.03-38.638-5.03-38.638z" clip-rule="evenodd" fill="#10265E" fill-rule="evenodd"/>
<path d="m299.86 550.6s4.486-3.184 5.603-3.646c1.12-0.466 7.172-2.705 8.326-3.253 0.855-0.408 4.42-0.2 6.206-0.066 0.646 0.049 1.221 0.406 1.541 0.972 1.476 2.581 5.594 10.101 5.225 13.018 0 0-10.863 7.251-12.02 10.392l-1.752 0.424s-7.786-15.68-13.129-17.841z" clip-rule="evenodd" fill="#FBD7CE" fill-rule="evenodd"/>
<path d="m211.36 595.51c1.146-4.868 2.686-10.907 4.36-17.263l67.853 27.118s-19.482 25.219-54.743 24.505c-9.643-0.195-16.752-3.495-21.987-6.354 1.28-11.029 2.92-21.238 4.517-28.006z" clip-rule="evenodd" fill="#10265E" fill-rule="evenodd"/>
<path d="m182.7 487.53s17.767 1.998 32.633 24.322c14.867 22.325 25.944 48.313 25.944 48.313l0.569 2.938c1.48 7.679 9.804 11.898 16.864 8.532 14.938-7.12 37.053-17.878 41.151-21.042 0 0 13.561 7.065 17.644 24.451 3.257 13.865 2.517 13.925 2.517 13.925s-58.926 29.315-81.956 29.612c-23.033 0.3-54.124-74.698-57.73-90.269s-7.66-36.107 2.364-40.782z" clip-rule="evenodd" fill="#10265E" fill-rule="evenodd"/>
<path d="m182.7 487.53s17.767 1.998 32.633 24.322c14.867 22.325 25.944 48.313 25.944 48.313l0.569 2.938c1.48 7.679 9.804 11.898 16.864 8.532 14.938-7.12 37.053-17.878 41.151-21.042 0 0 13.561 7.065 17.644 24.451 3.257 13.865 2.517 13.925 2.517 13.925s-58.926 29.315-81.956 29.612c-23.033 0.3-54.124-74.698-57.73-90.269s-7.66-36.107 2.364-40.782z" clip-rule="evenodd" fill="#42408F" fill-rule="evenodd"/>
<path d="m250.24 575.38s-7.346 7.219-10.715 3.449-2.417-4.221-2.417-4.221-6.767 0.106-7.695-4.116c-0.929-4.221-4.206-1.895-4.514-6.617-0.309-4.718 5.382-3.892 5.382-3.892l19.959 15.397z" clip-rule="evenodd" fill="#3A378A" fill-rule="evenodd"/>
<path d="m259.23 571.39s-2.118-1.874-4.838-4.067c-2.723-2.192-7.269-11.423-8.018-12.229-0.748-0.806-9.917-7.485-14.257-7.497-4.341-0.011-1 4.764 0.017 5.424 1.014 0.658 5.3 2.659 5.3 2.659s4.449 3.552 4.958 4.076c0.508 0.522-12.132-0.567-14.104 0.714-1.972 1.278-1.426 4.487 9e-3 5.33 1.432 0.84 2.512 0.784 2.512 0.784s-1.323 3.829 2.502 5.496c3.826 1.665 4.672 0.665 4.672 0.665s0.489 6.548 6.701 5.093l14.546-6.448z" clip-rule="evenodd" fill="#FBD7CE" fill-rule="evenodd"/>
<path d="m294.36 387.02s6.054 17.723-8.838 13.007c-14.895-4.716-28.464-12.889-33.019-9.537-3.469 2.555-3.12 10.109-2.754 13.57 0.122 1.181-0.157 2.361-0.806 3.353l-4.218 6.473c-0.476 0.732-0.748 1.575-0.789 2.446l-0.202 4.436c-0.048 1.115-0.92 2.021-2.035 2.112l-1.005 0.084c-1.123 0.094-2.14-0.672-2.361-1.779l-1.3-6.473s-3.694-8.663-10.954-5.041c0 0-5.078-6.482-3.795-20.642 1.28-14.156 7.24-28.991 34.879-32.029 27.639-3.036 37.197 30.02 37.197 30.02z" clip-rule="evenodd" fill="#B18784" fill-rule="evenodd"/>
<path d="m254.35 481.59l4.064-3.321s3.911 3.092 5.491 6.433c1.578 3.341 0.343 14.116 0.343 14.116l1.317 2.141 1.486-2.878 0.998-12.73-1.786-9.586-7.973 1.035s-2.674 2.143-3.94 4.79z" clip-rule="evenodd" fill="#CFD4DC" fill-rule="evenodd"/>
<path d="m273.96 468.46s4.437 0.186 6.472 1.792c0 0-4.64 0.346-5.377 0.446-0.735 0.103-1.095-2.238-1.095-2.238z" clip-rule="evenodd" fill="#CFD4DC" fill-rule="evenodd"/>
<path d="m265.55 469.67l-7.261 7.134s6.598 2.841 8.567 8.628c0 0 8.123 1.309 8.789-1.637 0.663-2.95-0.277-10.31 0.606-13.608 0.885-3.295-10.701-0.517-10.701-0.517z" clip-rule="evenodd" fill="#10265E" fill-rule="evenodd"/>
<path d="m275.34 483.63s1.532 6.051 3.103 8.523c1.572 2.475 3.186 5.251 3.186 5.251l0.703 35.674s-13.786-26.715-16.769-32.119c0 0 0.114-13.036 1.291-15.531 1.177-2.494 8.486-1.798 8.486-1.798z" clip-rule="evenodd" fill="#10265E" fill-rule="evenodd"/>
<path d="m238.82 431.8c9.232 24.654 33.656 31.43 33.656 31.43s-4.228 4.319-5.571 4.553c-1.346 0.234-5.321-2.101-5.321-2.101s-18.618-4.035-24.152-11.757c-5.538-7.726-3.698-15.86-3.698-15.86l-0.845-5.276c3.877 1.166 5.931-0.989 5.931-0.989z" clip-rule="evenodd" fill="#E6B9AD" fill-rule="evenodd"/>
<path d="m219.83 461.39s3.695 11.65 4.144 12.081c0.448 0.431 8.534-0.708 8.534-0.708l-3.752 7.559s41.888 42.754 50.929 66.087c0 0-20.047-29.361-54.912-64.155l4.626-7.4-8.3 1.835-1.269-15.299z" clip-rule="evenodd" fill="#10265E" fill-rule="evenodd"/>
<path d="m286.59 449.37l2.226 2.418-2.486 2.438 7.715 6.634s3.494 47.818-4.932 79.763c0 0 11.786-29.404 7.663-81.136l-8.303-5.335 2.609-2.695-4.492-2.087z" clip-rule="evenodd" fill="#10265E" fill-rule="evenodd"/>
<path d="m267.44 714.22l-0.277 0.228 10.29-11.518c-4.709 7.005 1.694 38.378 2.457 45.578 0.763 7.199-5.097 22.259-6.995 39.772-1.891 17.49 3.495 42.26 3.512 42.335-3.066-1.676-5.544-4.531-6.655-9.029-4.011-16.223-3.383-46.775 0.266-59.599 3.646-12.824-2.598-47.767-2.598-47.767z" clip-rule="evenodd" fill="#0E2253" fill-rule="evenodd"/>
<path d="m238.07 618.58c-23.033 0.3-54.124-74.698-57.73-90.269-0.599-2.598-1.208-5.337-1.768-8.115 0.089 0.226 6.46 16.426 12.572 30.776 6.157 14.453 38.026 57.931 53.818 60.423 14.244 2.249 64.658-22.836 74.418-27.781 1.026 5.294 0.646 5.354 0.646 5.354s-58.926 29.315-81.956 29.612z" fill="url(#p)"/>
<path d="m240.69 422.96c-1.123 0.094-2.14-0.672-2.361-1.779l-1.299-6.473s-3.695-8.663-10.955-5.041c0 0-4.789-6.157-3.869-19.529 8.472 12.06 26.733 17.271 26.733 17.271l-4.217 6.473c-0.477 0.732-0.749 1.575-0.789 2.446l-0.203 4.436c-0.048 1.115-0.92 2.021-2.034 2.112l-1.006 0.084z" clip-rule="evenodd" fill="#9B6F6B" fill-rule="evenodd"/>
<path d="m437.43 99.016l-133.45 77.069c-6.203 3.581-11.235 13.195-11.235 21.472v127.3c0 8.277 5.032 12.081 11.235 8.497l157.61-91.021-24.159-143.32z" clip-rule="evenodd" fill="#10265E" fill-rule="evenodd"/>
<path d="m561.33 26.43l-6.498-4.6437v0.0022c-2.034-1.5513-4.851-1.6145-7.963 0.1833l-227.06 131.13c-6.204 3.584-11.235 13.198-11.235 21.472v127.3c0 4.33 1.386 7.42 3.586 8.884l-0.02 8e-3 6.749 4.822 0.371-4.936 0.549-0.28 227.06-131.13c6.207-3.584 11.238-13.199 11.238-21.473v-127.3c0-1.2201-0.123-2.3325-0.329-3.35l3.552-0.6888z" fill="url(#o)"/>
<path d="m309.16 169.49l59.934 34.611 15.093-8.717-68.064-39.307c-3.277 3.413-5.861 8.383-6.963 13.413z" fill="url(#n)"/>
<path d="m553.65 184.09l-227.06 131.13c-6.203 3.584-11.235-0.22-11.235-8.497v-127.3c0-8.278 5.032-17.892 11.235-21.476l227.06-131.13c6.205-3.584 11.234 0.2173 11.234 8.4939v127.3c0 8.277-5.029 17.891-11.234 21.476z" fill="url(#m)"/>
<path d="m316.58 307.37v-127.3c0-8.276 5.032-17.891 11.238-21.476l227.06-131.13c2.446-1.4114 4.704-1.66 6.549-0.9569-2.02-1.4211-4.757-1.4379-7.777 0.3086l-227.06 131.13c-6.203 3.584-11.235 13.198-11.235 21.476v127.3c0 5.016 1.855 8.374 4.692 9.454-2.132-1.495-3.463-4.552-3.463-8.802z" clip-rule="evenodd" fill="#fff" fill-rule="evenodd"/>
<path d="m532.64 103.93l-185.32 106.92c-1.431 0.829-2.651 1.272-3.486-0.017-0.131-0.2-0.062-0.492-0.062-0.769v-28.115c0-2.183 1.328-4.722 2.966-5.667l186.76-107.85 0.429-0.2083c1.403 0.2286 1.457 1.523 1.457 3.5128l0.451 26.969c0 2.1835-1.557 4.2835-3.194 5.2305z" clip-rule="evenodd" fill="#575DA3" fill-rule="evenodd"/>
<path d="m533.03 165.06l-185.63 107.01c-1.428 0.827-3.277 1.695-3.558 0.06-0.039-0.237-0.062-0.497-0.062-0.774v-28.118c0-2.183 1.328-4.718 2.966-5.665l186.76-107.85 0.429-0.21c1.434-0.548 1.811 1.304 1.811 3.293l0.097 26.635c0 2.183-1.171 4.67-2.808 5.616z" clip-rule="evenodd" fill="#575DA3" fill-rule="evenodd"/>
<path d="m533.93 68.232c0.04 0.2367 0.06 0.4911 0.06 0.7657v28.115c0 2.1864-1.325 4.7217-2.962 5.6667l-186.76 107.85-0.437 0.194c0.277 1.64 1.474 2.304 2.906 1.477l186.76-107.85c1.637-0.946 2.963-3.483 2.963-5.6668v-28.118c0-1.9832-1.1-2.9781-2.529-2.4345z" clip-rule="evenodd" fill="#fff" fill-rule="evenodd"/>
<path d="m533.93 129.54c0.04 0.234 0.06 0.492 0.06 0.766v28.115c0 2.183-1.325 4.721-2.962 5.668l-186.76 107.85-0.437 0.195c0.277 1.641 1.474 2.303 2.906 1.478l186.76-107.85c1.637-0.946 2.963-3.484 2.963-5.667v-28.118c0-1.984-1.1-2.978-2.529-2.435z" clip-rule="evenodd" fill="#fff" fill-rule="evenodd"/>
<path d="m397.16 168.94l2.284 4.321 4.342-5.456-3.299-3.401 4.94-5.033-1.614-4.17-4.458 5.471 0.6-6.525-5.46 3.152 0.571 5.822-4.46-0.269-1.654 6.008 4.871-0.635-3.268 7.245 4.271 0.458 2.334-6.988z" clip-rule="evenodd" fill="#fff" fill-rule="evenodd"/>
<path d="m418.62 156.55l2.283 4.324 4.343-5.455-3.301-3.401 4.944-5.036-1.617-4.168-4.458 5.471 0.603-6.525-5.463 3.153 0.574 5.821-4.463-0.269-1.651 6.009 4.871-0.638-3.269 7.248 4.27 0.457 2.334-6.991z" clip-rule="evenodd" fill="#fff" fill-rule="evenodd"/>
<path d="m440.09 144.15l2.283 4.324 4.343-5.456-3.3-3.404 4.94-5.033-1.614-4.17-4.458 5.471 0.6-6.525-5.46 3.155 0.571 5.822-4.46-0.271-1.654 6.007 4.872-0.634-3.269 7.245 4.271 0.457 2.335-6.988z" clip-rule="evenodd" fill="#fff" fill-rule="evenodd"/>
<path d="m461.55 131.76l2.283 4.321 4.343-5.456-3.3-3.401 4.943-5.033-1.618-4.17-4.457 5.47 0.603-6.525-5.463 3.156 0.574 5.818-4.463-0.268-1.651 6.007 4.871-0.634-3.268 7.245 4.269 0.457 2.334-6.987z" clip-rule="evenodd" fill="#fff" fill-rule="evenodd"/>
<path d="m483.02 119.36l2.286 4.325 4.34-5.457-3.298-3.403 4.941-5.034-1.614-4.167-4.458 5.471 0.6-6.528-5.463 3.155 0.574 5.822-4.46-0.269-1.654 6.008 4.872-0.637-3.269 7.248 4.272 0.457 2.331-6.991z" clip-rule="evenodd" fill="#fff" fill-rule="evenodd"/>
<path d="m397.16 230.24l2.284 4.325 4.342-5.456-3.299-3.401 4.94-5.036-1.614-4.167-4.458 5.47 0.6-6.525-5.46 3.153 0.571 5.822-4.46-0.269-1.654 6.008 4.871-0.638-3.268 7.249 4.271 0.457 2.334-6.992z" clip-rule="evenodd" fill="#fff" fill-rule="evenodd"/>
<path d="m418.62 217.85l2.283 4.325 4.343-5.457-3.301-3.403 4.944-5.034-1.617-4.17-4.458 5.474 0.603-6.528-5.463 3.155 0.574 5.822-4.463-0.271-1.651 6.007 4.871-0.635-3.269 7.246 4.27 0.46 2.334-6.991z" clip-rule="evenodd" fill="#fff" fill-rule="evenodd"/>
<path d="m440.09 205.45l2.283 4.321 4.343-5.456-3.3-3.401 4.94-5.033-1.614-4.17-4.458 5.47 0.6-6.525-5.46 3.156 0.571 5.819-4.46-0.269-1.654 6.008 4.872-0.635-3.269 7.245 4.271 0.458 2.335-6.988z" clip-rule="evenodd" fill="#fff" fill-rule="evenodd"/>
<path d="m461.55 193.06l2.283 4.321 4.343-5.455-3.3-3.401 4.943-5.036-1.618-4.168-4.457 5.471 0.603-6.525-5.463 3.153 0.574 5.822-4.463-0.269-1.651 6.007 4.871-0.634-3.268 7.245 4.269 0.458 2.334-6.989z" clip-rule="evenodd" fill="#fff" fill-rule="evenodd"/>
<path d="m483.02 180.66l2.286 4.324 4.34-5.455-3.298-3.405 4.941-5.032-1.614-4.17-4.458 5.472 0.6-6.527-5.463 3.155 0.574 5.822-4.46-0.271-1.654 6.007 4.872-0.634-3.269 7.247 4.272 0.458 2.331-6.991z" clip-rule="evenodd" fill="#fff" fill-rule="evenodd"/>
<path d="m519.26 822.6l28.322-16.357-28.322-16.354-28.322 16.354 28.322 16.357z" clip-rule="evenodd" fill="#122964" fill-rule="evenodd"/>
<path d="m424.88 695.44l28.322-16.356-28.319-16.354-28.322 16.354 28.319 16.356z" clip-rule="evenodd" fill="#102559" fill-rule="evenodd"/>
<path d="m550.71 261.29l28.321-16.357-28.321-16.357-28.322 16.357 28.322 16.357z" clip-rule="evenodd" fill="#102559" fill-rule="evenodd"/>
<path d="m393.43 749.94l28.321-16.354-28.318-16.356-28.322 16.356 28.319 16.354z" clip-rule="evenodd" fill="#122964" fill-rule="evenodd"/>
<path d="m47.44 659.12l28.322-16.356-28.322-16.354-28.321 16.354 28.321 16.356z" clip-rule="evenodd" fill="#122964" fill-rule="evenodd"/>
<path d="m714.26 403.37l28.321-16.354-28.321-16.356-28.321 16.356 28.321 16.354z" clip-rule="evenodd" fill="#122964" fill-rule="evenodd"/>
<path d="m28.465 402.93l28.322-16.354-28.322-16.357-28.321 16.357 28.321 16.354z" clip-rule="evenodd" fill="#122964" fill-rule="evenodd"/>
<path d="m899.85 432.05l28.321-16.357-28.321-16.354-28.322 16.357 28.322 16.354z" clip-rule="evenodd" fill="#102559" fill-rule="evenodd"/>
<path d="m769.84 353.15c0.906 0 1.8-0.238 2.583-0.687l119.32-68.911c1.601-0.926 2.592-2.643 2.592-4.489 0-1.841-0.991-3.562-2.586-4.485l-24.947-14.408-5.692 3.287 27.018 15.606-118.29 68.316-118.28-68.314 27.022-15.605-5.695-3.286-24.944 14.404c-1.594 0.921-2.589 2.641-2.589 4.487 0 1.85 0.995 3.567 2.594 4.487l119.31 68.909c0.791 0.451 1.685 0.689 2.588 0.689zm-0.254-5.625h-0.032 0.032z" fill="url(#l)"/>
<path d="m769.84 316.17l91.268-52.708 5.692-3.287 10.529-6.079v-21.698l-107.49 62.077-107.49-62.074v21.695l10.526 6.083 5.695 3.286 91.265 52.705z" fill="url(#k)"/>
<path d="m769.84 292.68l105.94-61.183-39.488-22.804v23.702l-66.453 38.375-66.45-38.375v-23.699l-39.49 22.804 105.94 61.18z" fill="url(#j)"/>
<path d="m769.84 294.47l107.49-62.077-1.548-0.895-105.94 61.183-105.94-61.18-1.546 0.895 107.49 62.074z" fill="url(#h)"/>
<path d="m769.84 270.77l66.449-38.375-66.446-38.372-66.453 38.375 66.45 38.372z" clip-rule="evenodd" fill="#0D1E48" fill-rule="evenodd"/>
<path d="m769.82 270.77l66.487-38.378-66.487 38.378-13.289-7.678 13.289 7.678z" clip-rule="evenodd" fill="#94D3EB" fill-rule="evenodd"/>
<path d="m756.54 263.09l-53.158-30.7 53.158 30.7z" clip-rule="evenodd" fill="#A2B9DE" fill-rule="evenodd"/>
<path d="m737.84 188.79v-29.977l31.992-18.477v29.976l-31.992 18.478z" clip-rule="evenodd" fill="#2993BE" fill-rule="evenodd"/>
<path d="m711.37 183.32v-9.206l14.676-8.485v26.176l-14.676-8.485z" clip-rule="evenodd" fill="#4161A7" fill-rule="evenodd"/>
<path d="m726.05 191.81v-26.176l11.796-6.814v29.977l-8.499 4.914-3.297-1.901z" clip-rule="evenodd" fill="#2F78B7" fill-rule="evenodd"/>
<path d="m711.37 174.12v9.206l-7.983-4.603 7.983-4.603z" clip-rule="evenodd" fill="#4161A7" fill-rule="evenodd"/>
<path d="m783.25 178.06v-29.976l53.039 30.631-25.96 14.989-27.079-15.644z" clip-rule="evenodd" fill="#20A3BC" fill-rule="evenodd"/>
<path d="m783.25 148.09v29.976l-13.407-7.748v-29.976l13.407 7.748z" clip-rule="evenodd" fill="#2685BD" fill-rule="evenodd"/>
<path d="m721.1 222.18l28.778-16.621-28.778 16.621z" clip-rule="evenodd" fill="#9CCFED" fill-rule="evenodd"/>
<path d="m703.39 232.4l17.709-10.222-17.709 10.222v-23.7 23.7z" clip-rule="evenodd" fill="#A5B4DA" fill-rule="evenodd"/>
<path d="m769.84 270.78l-41.723-24.092 41.723 24.092zm-41.723-52.66l21.765-12.564-21.765 12.564z" clip-rule="evenodd" fill="#76C8E5" fill-rule="evenodd"/>
<path d="m728.11 246.69l-14.119-8.168 14.119 8.168zm-14.119-20.4l14.119-8.168-14.119 8.168z" clip-rule="evenodd" fill="#7AA7D5" fill-rule="evenodd"/>
<path d="m713.99 238.52l-10.605-6.116 10.605-6.116-10.605 6.116 10.605 6.116z" clip-rule="evenodd" fill="#7E8DC3" fill-rule="evenodd"/>
<path d="m732.54 249.24v-33.687l17.336-10.004 19.958 11.529v53.695l-37.294-21.533z" clip-rule="evenodd" fill="#2598BA" fill-rule="evenodd"/>
<path d="m712.72 227.01v10.786l-9.334-5.393 9.334-5.393z" clip-rule="evenodd" fill="#414F9A" fill-rule="evenodd"/>
<path d="m722.2 243.27v-21.728l10.347-5.98v33.687l-10.347-5.979z" clip-rule="evenodd" fill="#2D79B7" fill-rule="evenodd"/>
<path d="m712.72 237.8v-10.786l9.472-5.471v21.728l-9.472-5.471z" clip-rule="evenodd" fill="#3A64A9" fill-rule="evenodd"/>
<path d="m718.42 200.02v-12.627l10.932 6.313-10.932 6.314z" clip-rule="evenodd" fill="#2F81BD" fill-rule="evenodd"/>
<path d="m708.75 205.61v-23.8l9.667 5.587v12.627l-9.667 5.586z" clip-rule="evenodd" fill="#4161A7" fill-rule="evenodd"/>
<path d="m708.75 181.81v23.8l-5.358 3.093v-29.986l5.358 3.093z" clip-rule="evenodd" fill="#444E99" fill-rule="evenodd"/>
<path d="m725.02 219.9v-23.703l4.33-2.494 20.523 11.851-24.853 14.346z" clip-rule="evenodd" fill="#76C8E5" fill-rule="evenodd"/>
<path d="m711.42 227.76v-23.703l13.595-7.861v23.703l-13.595 7.861z" clip-rule="evenodd" fill="#7AA7D5" fill-rule="evenodd"/>
<path d="m711.42 204.06v23.703l-8.039 4.636v-23.703l8.039-4.636z" clip-rule="evenodd" fill="#7E8DC3" fill-rule="evenodd"/>
<path d="m786.62 261.09l49.661-28.684-46.04-26.594-0.427-0.254 46.467 26.848-49.661 28.684z" clip-rule="evenodd" fill="#76CCDE" fill-rule="evenodd"/>
<path d="m769.84 270.78l16.784-9.692-16.784 9.692z" clip-rule="evenodd" fill="#74A4D3" fill-rule="evenodd"/>
<path d="m796.51 255.38v-45.958l39.774 22.979-39.774 22.979z" clip-rule="evenodd" fill="#1FA4BA" fill-rule="evenodd"/>
<path d="m774.97 267.81v-53.676l14.852-8.578 6.693 3.869v45.958l-21.545 12.427z" clip-rule="evenodd" fill="#2D80B8" fill-rule="evenodd"/>
<path d="m774.97 214.13v53.676l-5.127 2.97v-53.696l5.127-2.95z" clip-rule="evenodd" fill="#3C61A7" fill-rule="evenodd"/>
<path d="m794.56 208.31v-5.488l15.761-9.113 25.964 14.991v23.703l-41.725-24.093z" clip-rule="evenodd" fill="#79CDDC" fill-rule="evenodd"/>
<path d="m794.56 202.82v5.488l-4.311-2.494-0.435-0.256 4.746-2.738z" clip-rule="evenodd" fill="#73B4DD" fill-rule="evenodd"/>
<path d="m790.26 205.81l-0.443-0.257 0.443 0.257z" clip-rule="evenodd" fill="#5CACDB" fill-rule="evenodd"/>
<path d="m836.29 208.7v-29.995l-25.959 15.002 25.959 14.993z" clip-rule="evenodd" fill="#29AABE" fill-rule="evenodd"/>
<path d="m836.29 232.39l-46.036-26.583 46.036 26.592v-9e-3z" clip-rule="evenodd" fill="#94CDEB" fill-rule="evenodd"/>
<path d="m769.84 194.02v-23.699l-3e-3 23.699h3e-3z" clip-rule="evenodd" fill="#5EB4DE" fill-rule="evenodd"/>
<path d="m769.84 170.33v-29.986l-3e-3 29.986h3e-3z" clip-rule="evenodd" fill="#389BCD" fill-rule="evenodd"/>
<path d="m789.81 205.56l-19.965-11.529 18.432 10.647 1.533 0.882zm-19.965-11.529l-6e-3 -6e-3 6e-3 6e-3z" clip-rule="evenodd" fill="#61BAE0" fill-rule="evenodd"/>
<path d="m789.82 205.56l20.514-11.858-40.486-23.374v23.692l19.972 11.54z" clip-rule="evenodd" fill="#71C6E5" fill-rule="evenodd"/>
<path d="m749.87 205.56l19.97-11.54v-23.692l-40.488 23.386 20.518 11.846z" clip-rule="evenodd" fill="#77C2E5" fill-rule="evenodd"/>
<path d="m769.85 217.09l19.969-11.536-1.536-0.882-18.433-10.654-19.97 11.536 19.97 11.536z" clip-rule="evenodd" fill="#2492BA" fill-rule="evenodd"/>
<path d="m749.88 205.56l19.97-11.529v-6e-3l-19.97 11.535zm39.939 0l-1.536-0.882 1.536 0.882z" clip-rule="evenodd" fill="#71C6E5" fill-rule="evenodd"/>
<path d="m749.87 205.56l19.972-11.529v-6e-3l-19.972 11.534v1e-3z" clip-rule="evenodd" fill="#9BC8E8" fill-rule="evenodd"/>
<defs>
<linearGradient id="ae" x1="475.04" x2="53.941" y1="739.75" y2="739.75" gradientUnits="userSpaceOnUse">
<stop stop-color="#75C9CB" offset="0"/>
<stop stop-color="#fff" offset="1"/>
</linearGradient>
<linearGradient id="t" x1="544.12" x2="490.94" y1="-242.22" y2="-189.06" gradientUnits="userSpaceOnUse">
<stop stop-color="#75C9CB" offset="0"/>
<stop stop-color="#fff" offset="1"/>
</linearGradient>
<linearGradient id="i" x1="1022" x2="806.75" y1="315.75" y2="315.75" gradientUnits="userSpaceOnUse">
<stop stop-color="#75C9CB" offset="0"/>
<stop stop-color="#fff" offset="1"/>
</linearGradient>
<linearGradient id="g" x1="2031.9" x2="2031.9" y1="-358.84" y2="-564.08" gradientUnits="userSpaceOnUse">
<stop stop-color="#CCC9E3" offset="0"/>
<stop stop-color="#fff" offset="1"/>
</linearGradient>
<linearGradient id="f" x1="1827" x2="2158.3" y1="442.86" y2="442.86" gradientUnits="userSpaceOnUse">
<stop stop-color="#75C9CB" offset="0"/>
<stop stop-color="#fff" offset="1"/>
</linearGradient>
<linearGradient id="e" x1="1465.9" x2="1690.9" y1="698.42" y2="698.42" gradientUnits="userSpaceOnUse">
<stop stop-color="#CCC9E3" offset="0"/>
<stop stop-color="#fff" offset="1"/>
</linearGradient>
<linearGradient id="d" x1="1686.3" x2="1975.1" y1="1030.9" y2="1030.9" gradientUnits="userSpaceOnUse">
<stop stop-color="#545DA3" offset="0"/>
<stop stop-color="#fff" offset="1"/>
</linearGradient>
<linearGradient id="c" x1="1783.6" x2="2125.6" y1="420.7" y2="420.7" gradientUnits="userSpaceOnUse">
<stop stop-color="#545DA3" offset="0"/>
<stop stop-color="#fff" offset="1"/>
</linearGradient>
<linearGradient id="b" x1="1759.1" x2="2109.6" y1="420.5" y2="420.5" gradientUnits="userSpaceOnUse">
<stop stop-color="#CCC9E3" offset="0"/>
<stop stop-color="#fff" offset="1"/>
</linearGradient>
<linearGradient id="a" x1="1924" x2="2013.7" y1="565.43" y2="565.43" gradientUnits="userSpaceOnUse">
<stop stop-color="#CCC9E3" offset="0"/>
<stop stop-color="#fff" offset="1"/>
</linearGradient>
<linearGradient id="ad" x1="1624.6" x2="1956.9" y1="663.1" y2="663.1" gradientUnits="userSpaceOnUse">
<stop stop-color="#373083" offset="0"/>
<stop stop-color="#fff" offset="1"/>
</linearGradient>
<linearGradient id="ac" x1="1713.1" x2="1800.1" y1="940.25" y2="940.25" gradientUnits="userSpaceOnUse">
<stop stop-color="#373083" offset="0"/>
<stop stop-color="#fff" offset="1"/>
</linearGradient>
<linearGradient id="ab" x1="1711.8" x2="1739.3" y1="1010.7" y2="1010.7" gradientUnits="userSpaceOnUse">
<stop stop-color="#373083" offset="0"/>
<stop stop-color="#fff" offset="1"/>
</linearGradient>
<linearGradient id="aa" x1="1989.9" x2="2206.1" y1="282.89" y2="282.89" gradientUnits="userSpaceOnUse">
<stop stop-color="#75C9CB" offset="0"/>
<stop stop-color="#fff" offset="1"/>
</linearGradient>
<linearGradient id="z" x1="2076.7" x2="2283" y1="-62.296" y2="-201.37" gradientUnits="userSpaceOnUse">
<stop stop-color="#545DA3" offset="0"/>
<stop stop-color="#fff" offset="1"/>
</linearGradient>
<radialGradient id="y" cx="0" cy="0" r="1" gradientTransform="translate(521.37 659.5) rotate(180) scale(125.37 117.44)" gradientUnits="userSpaceOnUse">
<stop stop-color="#fff" offset="0"/>
<stop stop-color="#0E2353" offset="1"/>
</radialGradient>
<linearGradient id="x" x1="1885.3" x2="2164.9" y1="310.61" y2="310.61" gradientUnits="userSpaceOnUse">
<stop stop-color="#545DA3" offset="0"/>
<stop stop-color="#fff" offset="1"/>
</linearGradient>
<linearGradient id="w" x1="2072.2" x2="2278.5" y1="-129.07" y2="-268.14" gradientUnits="userSpaceOnUse">
<stop stop-color="#CCC9E3" offset="0"/>
<stop stop-color="#fff" offset="1"/>
</linearGradient>
<linearGradient id="v" x1="2182" x2="2272.1" y1="615.21" y2="615.21" gradientUnits="userSpaceOnUse">
<stop stop-color="#545DA3" offset="0"/>
<stop stop-color="#fff" offset="1"/>
</linearGradient>
<linearGradient id="u" x1="2086.7" x2="2267.2" y1="908.4" y2="908.4" gradientUnits="userSpaceOnUse">
<stop stop-color="#75C9CB" offset="0"/>
<stop stop-color="#fff" offset="1"/>
</linearGradient>
<linearGradient id="s" x1="2454.6" x2="2506.5" y1="-772.76" y2="-923.36" gradientUnits="userSpaceOnUse">
<stop stop-color="#75C9CB" offset="0"/>
<stop stop-color="#fff" offset="1"/>
</linearGradient>
<linearGradient id="r" x1="349.27" x2="330.43" y1="-984.16" y2="-981.17" gradientUnits="userSpaceOnUse">
<stop stop-color="#545DA3" offset="0"/>
<stop stop-color="#fff" offset="1"/>
</linearGradient>
<linearGradient id="q" x1="283.39" x2="251.18" y1="-982.79" y2="-975.94" gradientUnits="userSpaceOnUse">
<stop stop-color="#545DA3" offset="0"/>
<stop stop-color="#fff" offset="1"/>
</linearGradient>
<linearGradient id="p" x1="497.57" x2="399.94" y1="-1054.2" y2="-1042.2" gradientUnits="userSpaceOnUse">
<stop stop-color="#545DA3" offset="0"/>
<stop stop-color="#fff" offset="1"/>
</linearGradient>
<linearGradient id="o" x1="1883.1" x2="2121.7" y1="319.65" y2="146.34" gradientUnits="userSpaceOnUse">
<stop stop-color="#545DA3" offset="0"/>
<stop stop-color="#fff" offset="1"/>
</linearGradient>
<linearGradient id="n" x1="2222.7" x2="2251.6" y1="125.86" y2="87.518" gradientUnits="userSpaceOnUse">
<stop stop-color="#CCC9E3" offset="0"/>
<stop stop-color="#fff" offset="1"/>
</linearGradient>
<linearGradient id="m" x1="2031.9" x2="2031.9" y1="-358.84" y2="-649.94" gradientUnits="userSpaceOnUse">
<stop stop-color="#CCC9E3" offset="0"/>
<stop stop-color="#fff" offset="1"/>
</linearGradient>
<linearGradient id="l" x1="894.34" x2="645.35" y1="260.17" y2="260.17" gradientUnits="userSpaceOnUse">
<stop stop-color="#75C9CB" offset="0"/>
<stop stop-color="#fff" offset="1"/>
</linearGradient>
<linearGradient id="k" x1="877.33" x2="662.36" y1="232.4" y2="232.4" gradientUnits="userSpaceOnUse">
<stop stop-color="#D6D6D6" offset="0"/>
<stop stop-color="#fff" offset=".12"/>
</linearGradient>
<linearGradient id="j" x1="875.78" x2="663.9" y1="208.7" y2="208.7" gradientUnits="userSpaceOnUse">
<stop stop-color="#CCC9E3" offset="0"/>
<stop stop-color="#fff" offset="1"/>
</linearGradient>
<linearGradient id="h" x1="877.33" x2="662.36" y1="231.5" y2="231.5" gradientUnits="userSpaceOnUse">
<stop stop-color="#E8E4F1" offset="0"/>
<stop stop-color="#fff" offset="1"/>
</linearGradient>
</defs>
</svg>
