<?xml version="1.0" encoding="utf-8"?>
<!-- Generator: Adobe Illustrator 23.0.0, SVG Export Plug-In . SVG Version: 6.00 Build 0)  -->
<svg version="1.1" xmlns="http://www.w3.org/2000/svg" xmlns:xlink="http://www.w3.org/1999/xlink" x="0px" y="0px"
	 viewBox="0 0 246 297" style="enable-background:new 0 0 246 297;" xml:space="preserve">
<style type="text/css">
	.st0{opacity:0.29;fill:#5476FF;}
	.st1{fill:#EEEEFA;}
	.st2{fill:#DDDFF4;}
	.st3{fill:#E89D9A;}
	.st4{fill:#3B3A59;}
	.st5{fill:#474463;}
	.st6{opacity:0.2;}
	.st7{fill:#FFADAD;}
	.st8{fill:url(#SVGID_1_);}
	.st9{fill:url(#SVGID_2_);}
	.st10{fill:#4956C8;}
	.st11{fill:url(#SVGID_3_);}
	.st12{fill:#3931A3;}
	.st13{fill:#544DFF;}
	.st14{fill:#5476FF;}
	.st15{fill:#47272A;}
	.st16{opacity:0.27;}
	.st17{fill:#48587A;}
	.st18{fill:#5768CE;}
	.st19{fill:#D48A9B;}
	.st20{fill:#EAC5CE;}
	.st21{fill:#F7DCE2;}
	.st22{fill:#8C6084;}
	.st23{display:none;fill:#FFFFFF;}
	.st24{fill:#FFFFFF;}
	.st25{fill:#EDF4F9;}
	.st26{fill:#B6C6D3;}
	.st27{fill:#D3DFEB;}
	.st28{font-family:'Gilroy-ExtraBold';}
	.st29{font-size:4px;}
	.st30{display:none;fill:none;}
	.st31{fill:#303D5F;}
</style>
<g id="Слой_1">
	<path class="st0" d="M76.44,89.29c6.9-3.01,11.67-9.33,13.67-15.67c2-6.33,0.5-9-2-8.67c-2.5,0.33-2.29,7.54-6.83,12.15
		c-6.97,7.08-13,4.35-14.17,8.51C65.94,89.79,69.94,92.13,76.44,89.29z"/>
	<path class="st0" d="M46.92,110.59c0,0,8.38-7.66,20.14-4.96c11.76,2.7,20.32,13.23,37.75,10.75c17.43-2.47,25.87-3.04,35.78,4.12
		c9.9,7.16,8.47,23.56,24.19,21.36c15.72-2.2,20.2-25.93,39.46-22.9c19.26,3.03,37.59-14.74,41.59-0.85c4,13.89-13,29.22-27,22.22
		S183,138,174,144c-20.59,13.73-24,17-28.59,15.03c-25.46-10.92-16.29-33.79-28.87-29.01c-19.14,7.27-34.57,3.8-44.53-8.35
		c-9.95-12.16-16.5-10.61-25.01-6.14L46.92,110.59z"/>
	<ellipse class="st1" cx="113.5" cy="281.79" rx="113.5" ry="14"/>
	<path class="st2" d="M89.94,281.79c0,2.12-14.79,3.83-33.03,3.83c-18.24,0-33.03-1.72-33.03-3.83s14.79-3.83,33.03-3.83
		C75.15,277.96,89.94,279.67,89.94,281.79z"/>
	<path class="st3" d="M47.18,264.49v8.46l-5.09,4.06l-9.56,3.23l-1.31,3.65h25.92c0,0-0.19-4.54-3.15-10.6v-8.81H47.18z"/>
	<path class="st3" d="M67.77,261.32l3.51,8.81l-2.96,5.92l-7.36,3.16l-1.24,3.37h13.97l10.32-8.74c0,0-2.89-3.37-6.81-5.37L75,260.7
		L67.77,261.32z"/>
	<path class="st4" d="M32.53,280.24l-1.31,3.65h25.92c0,0-0.19-4.54-3.15-10.6l-6.81-0.34l-5.09,4.06L32.53,280.24z"/>
	<path class="st5" d="M55.07,180.69H73.6L64,224c0,0,10,5,13,39l-9,1l-15.68-38.18L55.07,180.69z"/>
	<path class="st6" d="M55.07,181l-2.75,45.13L68,264l9-1c-4-36-13-39-13-39l9.6-43H55.07z"/>
	<polygon class="st7" points="39.66,154.49 37.04,153.21 39.5,150.15 40.79,151.87 	"/>
	<linearGradient id="SVGID_1_" gradientUnits="userSpaceOnUse" x1="22.919" y1="146.5607" x2="42.6246" y2="146.5607">
		<stop  offset="0" style="stop-color:#FFE7DB"/>
		<stop  offset="0.326" style="stop-color:#FFE4D9"/>
		<stop  offset="0.5573" style="stop-color:#FFDBD1"/>
		<stop  offset="0.7592" style="stop-color:#FFCBC5"/>
		<stop  offset="0.9434" style="stop-color:#FFB5B4"/>
		<stop  offset="1" style="stop-color:#FFADAD"/>
	</linearGradient>
	<path class="st8" d="M22.92,145.55l1.51-3.3c0,0,1.19-5.14,9.59-4.95l8.61,14.9c0,0-4.25-0.59-7.83,3.63L22.92,145.55z"/>
	<linearGradient id="SVGID_2_" gradientUnits="userSpaceOnUse" x1="11.0396" y1="149.5868" x2="34.7985" y2="149.5868">
		<stop  offset="0" style="stop-color:#FFE7DB"/>
		<stop  offset="0.326" style="stop-color:#FFE4D9"/>
		<stop  offset="0.5573" style="stop-color:#FFDBD1"/>
		<stop  offset="0.7592" style="stop-color:#FFCBC5"/>
		<stop  offset="0.9434" style="stop-color:#FFB5B4"/>
		<stop  offset="1" style="stop-color:#FFADAD"/>
	</linearGradient>
	<path class="st9" d="M24.43,142.25l10.37,13.58c0,0-8.43-2.82-12.38,1.48l-11.38-11.03C11.04,146.28,16.08,140.33,24.43,142.25z"/>
	<path class="st3" d="M33.06,119.55l1.01,1.05c0,0,1.28,1.7,1.56,2.52s0,2.39,0,2.39l2.16-0.23c0,0,2.94,3.99,3.9,4.4
		s3.94-1.51,5-1.61c1.05-0.09,3.07,2.29,3.07,2.29l6.93-4.31l-4.95-6.01l-2.52-8.03l-17.25,0.92l-2.94,5.05L33.06,119.55z"/>
	<path class="st3" d="M51.39,118.99c0,0-3.24,0.7-3.29,1.61c-0.28,4.76-4.24,8.59-4.24,8.59c1.09-0.47,2.24-1.06,2.82-1.11
		c1.05-0.09,3.07,2.29,3.07,2.29l6.93-4.31l-4.95-6.01L51.39,118.99z"/>
	<path class="st10" d="M48.56,132.87c0,0-1.1-6.05,10.46-8.39l2.41,4.68c0,0,4.47,3.3,6.6,11.7c2.13,8.39,3.1,23.94,4.06,28.55
		c0.96,4.61,2.55,13.69,2.55,13.69H44.89C44.89,183.1,43.95,140.1,48.56,132.87z"/>
	<path class="st5" d="M48,183l-3.19,40.4l1.13,43.84h10.07c0,0,4.01-30.76,0-40.53L69,183H48z"/>
	<path class="st3" d="M24.19,156.81c0,0-2.91-5.03-4.72-7.25c0,0-3.85-0.87-3.85-0.18c0,0.69,3.51,0.96,2.64,2.29
		c-0.87,1.33-5.34-3.49-5.34-3.49s-1.88,6.8,1.01,8.63c2.89,1.83,9.68,3.67,9.68,3.67L24.19,156.81z"/>
	<path class="st3" d="M41.08,149.36c0,0,0.03-1.66-1.61-3.99c-1.45-2.06-5.46-2.2-5.46-2.2s1.38,2.29,3.07,3.1
		c0,0,0.76,4.67,2.84,5.23C40.31,151.6,41,150.07,41.08,149.36z"/>
	<polygon class="st10" points="38.48,154.18 41.08,149.36 46.77,152.2 43.74,158.17 	"/>
	<linearGradient id="SVGID_3_" gradientUnits="userSpaceOnUse" x1="326.5255" y1="15.207" x2="-5.1565" y2="137.8637">
		<stop  offset="0" style="stop-color:#3931A3"/>
		<stop  offset="0.2745" style="stop-color:#3A32A6"/>
		<stop  offset="0.4693" style="stop-color:#3D35AF"/>
		<stop  offset="0.6394" style="stop-color:#4139BF"/>
		<stop  offset="0.7953" style="stop-color:#4840D5"/>
		<stop  offset="0.9403" style="stop-color:#5049F1"/>
		<stop  offset="1" style="stop-color:#544DFF"/>
	</linearGradient>
	<path class="st11" d="M235.65,46.5c-0.09,5.45,1.05,10.85,3.22,15.85C252.3,93.33,227,131,211,130
		c-27.74-1.73-51.32,21.34-61.31,17.99c-9.99-3.35-6.2-15.16-18.25-23.51c-8.15-5.65-20.27-1.2-31.69-0.77
		c-20.73,0.77-25.37-20.34-50.81-11.68l-3.38-4.81c0,0,2.92-11.01,14.67-12.17c19.45-1.92,25.3-6.11,35.2-23.92
		c9.9-17.82,27.02-20.62,36-33c8.98-12.38,4.92-31.7,36.91-35.87C229.79-5.76,235.91,30.33,235.65,46.5z"/>
	<path class="st12" d="M122.11,130.37c5.36-2.09,9.83,5.66,11,10.16c1.17,4.5,3,9.01,8.5,13.26c5.5,4.24,4,9.84,0.67,10.79
		c-3.33,0.95-9.17-1.29-18.17-8.75C115.11,148.37,113.11,133.88,122.11,130.37z"/>
	<path class="st13" d="M205.11,144.37c0,2.95-2.39,5.33-5.33,5.33s-5.33-2.39-5.33-5.33c0-2.95,2.39-5.33,5.33-5.33
		S205.11,141.42,205.11,144.37z"/>
	<path class="st14" d="M213.82,137.98c0,1.21-0.98,2.19-2.19,2.19c-1.21,0-2.19-0.98-2.19-2.19c0-1.21,0.98-2.19,2.19-2.19
		C212.84,135.79,213.82,136.77,213.82,137.98z"/>
	<path class="st13" d="M76.44,86.03c6.9-3.01,11.67-9.33,13.67-15.67c2-6.33,0.5-9-2-8.67c-2.5,0.33-2.29,7.54-6.83,12.15
		c-6.97,7.08-13,4.35-14.17,8.51C65.94,86.53,69.94,88.87,76.44,86.03z"/>
	<circle class="st12" cx="95.25" cy="57.3" r="2.94"/>
	<circle class="st12" cx="119.61" cy="43.25" r="1"/>
	<path class="st15" d="M32.64,116.43c0,0,4.17,0.78,6.83,0.6c2.66-0.18,2.94,3.21,5.41,3.58c0,0-1.01-2.84,0-4.31
		c1.01-1.47,3.21-0.92,3.21,1.1c0,2.02,0,3.21,0,3.21s2.39,1.56,3.94,0c1.56-1.56-0.18-2.58,0-5.14c0.18-2.56,0.46-11.55-9.45-13.48
		c-9.91-1.93-12.11,6.11-12.57,9.66c-0.46,3.55-2.39,5.11-2.2,6.95c0.18,1.83,3.76,3.21,6.24,2.02L32.64,116.43z"/>
	<path class="st16" d="M29.5,117.49c-0.47,0.83-0.54,2.11,0.32,3.14c1.27,0.51,2.91,0.62,4.24-0.02l-1.42-4.17
		C32.64,116.43,30.32,116.05,29.5,117.49z"/>
	<path class="st17" d="M68.08,159.82c0.17,0.23,0.93,0.67-0.08,2.18c-2,3-8.41,2.3-8.91,2.2c-1.96-0.38-4.32-1.84-6.09-3.2
		c-1.69-1.3-3-3-3-3l-0.01-4.72c0,0,4.29,6.79,9.01,8.72c1.03,0.42,2.87,0.84,5,0C66.07,161.19,67.93,159.62,68.08,159.82z"/>
	<path class="st18" d="M23.17,155.23l17.61,3.72c0,0,4.47-14.93,5.57-18.71c1.1-3.78,3.05-6.95,6.34-6.19
		c3.29,0.76,4.25,7.29,2.33,13.97c-1.93,6.67-5.23,21.67-9.63,22.43s-24.22-9.7-24.22-9.7L23.17,155.23z"/>
	<path class="st4" d="M68.32,276.04l-7.36,3.16l-1.24,3.37h13.97l10.32-8.74c0,0-2.89-3.37-6.81-5.37l-5.92,1.65L68.32,276.04z"/>
	<g>
		
			<ellipse transform="matrix(0.4585 -0.8887 0.8887 0.4585 -40.6662 151.9256)" class="st19" cx="104.33" cy="109.33" rx="18.82" ry="18.82"/>
		
			<ellipse transform="matrix(0.4504 -0.8928 0.8928 0.4504 -39.034 153.5564)" class="st20" cx="105.21" cy="108.48" rx="17.73" ry="17.73"/>
		<path class="st21" d="M121.09,109.83c-0.35,4.16-3.42,7.31-6.86,7.02c-3.44-0.29-5.95-3.9-5.6-8.06c0.35-4.16,3.42-7.31,6.86-7.02
			C118.93,102.05,121.44,105.66,121.09,109.83z"/>
		<path class="st21" d="M114.91,96.46c1.31,1.01,1.85,2.52,1.2,3.36c-0.65,0.84-2.24,0.7-3.55-0.32c-1.31-1.01-1.85-2.52-1.2-3.36
			C112.01,95.31,113.6,95.45,114.91,96.46z"/>
		<path class="st21" d="M103.09,96.43c0.27,1.02-0.69,2.15-2.12,2.53c-1.44,0.37-2.82-0.15-3.09-1.17
			c-0.27-1.02,0.69-2.15,2.12-2.53C101.44,94.88,102.82,95.41,103.09,96.43z"/>
		<path class="st21" d="M108.36,98.29c0.49,0.23,0.8,0.6,0.68,0.84c-0.11,0.24-0.6,0.25-1.08,0.03c-0.49-0.23-0.79-0.6-0.68-0.84
			C107.38,98.07,107.87,98.06,108.36,98.29z"/>
		<path class="st21" d="M113.62,119.41c0.4-0.36,0.86-0.5,1.04-0.31c0.18,0.19,0,0.65-0.39,1.01c-0.4,0.36-0.86,0.5-1.04,0.31
			S113.23,119.77,113.62,119.41z"/>
		<path class="st21" d="M93.85,103.61c-0.35,1.31-1.28,2.2-2.08,1.99c-0.8-0.21-1.17-1.45-0.82-2.76c0.35-1.31,1.28-2.2,2.08-1.99
			C93.84,101.07,94.2,102.3,93.85,103.61z"/>
		<path class="st22" d="M119.65,98.41c0.43,0.6,0.82,1.22,1.18,1.87c7.63-1.64,12.81-2.04,13.2-0.79c0.66,2.1-12.17,8-28.65,13.19
			c-16.48,5.19-30.38,7.69-31.04,5.59c-0.4-1.26,4.07-3.89,11.27-6.92c-0.08-0.74-0.11-1.48-0.11-2.21
			c-11.07,4.56-18.21,8.92-17.52,11.13c1.01,3.2,18.03,0.69,38.01-5.6c19.99-6.29,35.38-13.98,34.37-17.18
			C139.69,95.29,131.34,95.8,119.65,98.41z"/>
		<path class="st21" d="M91.92,109.71c0.06,0.44-0.14,0.83-0.45,0.88c-0.31,0.05-0.62-0.27-0.69-0.71
			c-0.06-0.44,0.14-0.83,0.45-0.88C91.55,108.95,91.86,109.27,91.92,109.71z"/>
	</g>
	<path class="st23" d="M157.51,127.02c-0.86,0.05-1.65-0.44-2-1.22l-1.4-3.16l0.2,3.45c0.05,0.86-0.44,1.65-1.22,2l-3.16,1.4
		l3.45-0.2c0.86-0.05,1.65,0.44,2,1.22l1.4,3.16l-0.2-3.45c-0.05-0.86,0.44-1.65,1.22-2l3.16-1.4L157.51,127.02z"/>
	<path class="st23" d="M217.54,132.64c-1-0.34-1.69-1.28-1.72-2.34l-0.12-4.28l-1.39,4.05c-0.34,1-1.27,1.69-2.34,1.72l-4.28,0.12
		l4.05,1.39c1,0.34,1.69,1.27,1.72,2.34l0.12,4.28l1.39-4.05c0.34-1,1.28-1.69,2.34-1.72l4.28-0.12L217.54,132.64z"/>
	<path class="st23" d="M109.46,76.35c-0.53,0.01-1.01-0.31-1.2-0.8l-0.78-1.98l0.04,2.13c0.01,0.53-0.31,1.01-0.8,1.2l-1.98,0.78
		l2.13-0.04c0.53-0.01,1.01,0.31,1.2,0.8l0.78,1.98l-0.04-2.13c-0.01-0.53,0.31-1.01,0.8-1.2l1.98-0.78L109.46,76.35z"/>
	<path class="st23" d="M185.25,127.44c-0.45,0.07-0.9-0.14-1.13-0.54l-0.92-1.61l0.3,1.83c0.07,0.45-0.14,0.9-0.54,1.13l-1.61,0.92
		l1.83-0.3c0.45-0.07,0.9,0.14,1.13,0.54l0.92,1.61l-0.3-1.83c-0.07-0.45,0.14-0.9,0.54-1.13l1.61-0.92L185.25,127.44z"/>
	<path class="st23" d="M162.03,36.38c-0.43-0.17-0.7-0.59-0.69-1.04l0.04-1.85l-0.69,1.72c-0.17,0.43-0.59,0.7-1.04,0.69l-1.85-0.04
		l1.72,0.69c0.43,0.17,0.7,0.59,0.69,1.04l-0.04,1.85l0.69-1.72c0.17-0.43,0.59-0.7,1.04-0.69l1.85,0.04L162.03,36.38z"/>
	<path class="st24" d="M193.22,95.53c-0.46,0.02-0.88-0.25-1.05-0.68l-0.71-1.71l0.06,1.85c0.02,0.46-0.25,0.88-0.68,1.05
		l-1.71,0.71l1.85-0.06c0.46-0.02,0.88,0.25,1.05,0.68l0.71,1.71l-0.06-1.85c-0.02-0.46,0.25-0.88,0.68-1.05l1.71-0.71L193.22,95.53
		z"/>
	<g>
		<g>
			<g>
				<g>
					<path class="st22" d="M153.67,94.15l2.9-3.17l-13.85-6.57l3.47,10.53c0.62,1.88,2.07,3.36,3.94,4.02l14.81,5.24l-10.83-6.82
						C152.99,96.67,152.78,95.12,153.67,94.15z"/>
				</g>
				<g>
					<path class="st22" d="M164.42,80.33l-2.36,3.59l-9.78-11.81l11.06,0.78c1.97,0.14,3.77,1.18,4.87,2.83l8.72,13.06l-9.28-8.82
						C166.7,79.04,165.15,79.22,164.42,80.33z"/>
				</g>
			</g>
		</g>
		<path class="st25" d="M138.57,58.7c-10.09-8.2-22.82-9.55-27.22-9.76c-0.8-0.04-1.39,0.72-1.15,1.48
			c1.29,4.21,5.73,16.22,16.16,23.99c8.25,6.14,22.98,14.18,29.44,17.62c1.83,0.97,4.09,0.49,5.37-1.15l1.94-2.49
			c1.27-1.64,1.19-3.95-0.21-5.48C157.98,77.49,146.55,65.19,138.57,58.7z"/>
		<path class="st26" d="M133.98,55.53c-9.07-5.38-18.88-6.4-22.63-6.59c-0.8-0.04-1.39,0.72-1.15,1.48
			c1.1,3.59,4.51,12.85,11.95,20.32C128,68,133,61,133.98,55.53z"/>
		<path class="st22" d="M151.24,79.36l-4.41-1.63l2.66,3.87c1.22,1.78,2.9,3.37,4.82,4.56l16.62,10.32l-14.09-13.57
			C155.22,81.35,153.27,80.11,151.24,79.36z"/>
		<g>
			<polygon class="st19" points="178.64,107.01 159.17,94.78 161.72,93.85 			"/>
			<polygon class="st19" points="183.04,101.36 166.39,85.5 166.12,88.19 			"/>
		</g>
		<polygon class="st19" points="190.03,111.34 172.49,98.97 173.73,97.38 		"/>
	</g>
	<g>
		<rect x="173.18" y="17.13" class="st19" width="46.85" height="31.81"/>
		<g>
			<polygon class="st25" points="220.03,48.94 173.18,48.94 170.33,54.41 222.88,54.41 			"/>
			<polygon class="st26" points="218.83,50.73 174.38,50.73 173.61,52.33 219.6,52.33 			"/>
		</g>
		<rect x="175.84" y="19.86" class="st12" width="41.53" height="26.34"/>
		<rect x="170.33" y="54.41" class="st27" width="52.55" height="2.15"/>
		<g>
			<g>
				<text transform="matrix(1 0 0 1 188.0489 27.3929)" class="st24 st28 st29">011100</text>
			</g>
			<g>
				<text transform="matrix(1 0 0 1 188.0489 31.9271)" class="st24 st28 st29">101100</text>
			</g>
			<g>
				<text transform="matrix(1 0 0 1 188.6133 36.4613)" class="st24 st28 st29">001100</text>
			</g>
			<g>
				<text transform="matrix(1 0 0 1 187.5327 40.9956)" class="st24 st28 st29">011110</text>
			</g>
		</g>
	</g>
	<g>
		
			<rect x="219.98" y="81.47" transform="matrix(0.9883 0.1523 -0.1523 0.9883 15.2894 -33.0293)" class="st19" width="6.42" height="3.58"/>
		<g>
			<g>
				
					<rect x="185.95" y="73.11" transform="matrix(0.9883 0.1523 -0.1523 0.9883 14.1612 -28.1964)" class="st27" width="10.27" height="10.42"/>
				
					<rect x="185.99" y="72.52" transform="matrix(0.9883 0.1523 -0.1523 0.9883 14.0266 -27.6206)" class="st19" width="2.54" height="10.42"/>
			</g>
			<g>
				
					<rect x="196.11" y="75.18" transform="matrix(0.9883 0.1523 -0.1523 0.9883 14.4922 -29.6134)" class="st27" width="8.77" height="9.17"/>
				
					<rect x="196.15" y="74.71" transform="matrix(0.9883 0.1523 -0.1523 0.9883 14.3835 -29.1493)" class="st19" width="2.54" height="9.17"/>
			</g>
			<g>
				
					<rect x="204.73" y="77.87" transform="matrix(0.9883 0.1523 -0.1523 0.9883 14.9333 -31.5051)" class="st27" width="16.69" height="7.66"/>
				
					<rect x="204.81" y="76.8" transform="matrix(0.9883 0.1523 -0.1523 0.9883 14.6881 -30.4537)" class="st19" width="2.54" height="7.66"/>
			</g>
		</g>
		<path class="st7" d="M208.7,93.59L208.7,93.59c-0.61-0.09-1.04-0.67-0.94-1.28l1.17-7.61l2.22,0.34l-1.17,7.61
			C209.89,93.27,209.31,93.69,208.7,93.59z"/>
		
			<rect x="205.5" y="83.03" transform="matrix(0.9883 0.1523 -0.1523 0.9883 15.3638 -31.0136)" class="st14" width="9.17" height="3.46"/>
		
			<rect x="205.86" y="90.86" transform="matrix(0.9883 0.1523 -0.1523 0.9883 16.4474 -30.7583)" class="st14" width="6.19" height="2.19"/>
		<g>
			<path class="st14" d="M198.33,115.79L198.33,115.79c-0.39-0.12-0.6-0.54-0.48-0.92l7.83-24.46c0.12-0.39,0.54-0.6,0.92-0.48l0,0
				c0.39,0.12,0.6,0.54,0.48,0.92l-7.83,24.46C199.13,115.7,198.71,115.92,198.33,115.79z"/>
			<path class="st14" d="M211.91,117.89L211.91,117.89c0.41,0,0.73-0.33,0.73-0.74l-0.1-25.68c0-0.41-0.33-0.73-0.74-0.73l0,0
				c-0.41,0-0.73,0.33-0.73,0.74l0.1,25.68C211.17,117.56,211.5,117.89,211.91,117.89z"/>
		</g>
	</g>
	<path class="st30" d="M231.5-0.33h-441c-3.32,0-6.01,2.69-6.01,6.01V289c0,3.32,2.69,6.01,6.01,6.01h441
		c3.32,0,6.01-2.69,6.01-6.01V5.68C237.51,2.36,234.82-0.33,231.5-0.33z"/>
	<path class="st17" d="M47,137c-0.21-0.19,0.62-2.81,2-4c2.4-2.08,5.49-2,6-2c2,0,5,1,7,2c1.91,0.95,3,1,3,1l1,6c0,0-7-7-12-8
		c-1.09-0.22-2.07-0.23-4,1C48.12,134.19,47.18,137.17,47,137z"/>
	<path class="st31" d="M65,134c1-3,2.95-5.23,6.29-3.69c1.38,0.64,2.33,2.16,4.23,5.2c2.13,3.4,1.81,4,3.47,6.4
		c2.52,3.64,3.88,3.19,5.43,5.96c0.25,0.44,2.71,5.01,0.98,9c-0.64,1.48,1.5,2.7-6.72,6.62c-8.46,4.04-8.65,3.11-9.76,2.18
		c-0.8-0.67-0.75-1.72-0.87-3.9c-0.19-3.68-1.1-7.29-1.42-10.95C65.57,138.39,63.8,137.59,65,134z"/>
	<path class="st17" d="M79,141.91c3-0.91,4.45,1.31,6,4.09c0.25,0.44,4,8,0.41,10.88C84.15,157.89,76.21,142.77,79,141.91z"/>
</g>
<g id="Слой_2">
</g>
<g id="Слой_3">
</g>
<g id="Слой_4">
</g>
<g id="Слой_5">
</g>
</svg>
