<svg width="937" height="787" viewBox="0 0 937 787" fill="none" xmlns="http://www.w3.org/2000/svg">
<path d="M15 64C49 -25 330 4 369.5 9.99999C409 16 362.5 69.5 461 69.5C559.5 69.4999 482.5 116.5 482.5 116.5L651 600.999C641 643.999 481.3 769.5 252.5 785.5C-33.5 805.5 36 377 25 324C14 271 -19 153 15 64Z" fill="#CED8FF"/>
<path d="M63 16.875H62.8561L62.8762 17.0175L63 17C62.8762 17.0175 62.8766 17.0198 62.8772 17.0245L62.8802 17.0455L62.892 17.1291L62.939 17.4616L63.125 18.7757C63.2894 19.9357 63.5336 21.6575 63.8532 23.9049C64.4924 28.3998 65.433 34.9969 66.6384 43.4061C69.0492 60.2245 72.5197 84.2911 76.758 113.284C85.2346 171.27 96.7826 248.962 109.068 327.784C121.354 406.607 134.378 486.561 145.806 549.071C151.52 580.326 156.835 607.221 161.46 627.435C163.772 637.541 165.912 645.979 167.843 652.456C169.773 658.928 171.499 663.457 172.985 665.736C174.473 668.017 177.054 670.436 180.573 672.968C184.094 675.502 188.563 678.154 193.835 680.897C204.38 686.384 218.149 692.241 234.004 698.249C265.715 710.267 305.78 722.897 345.104 734.395C384.43 745.894 423.017 756.262 451.772 763.755C466.15 767.501 478.07 770.529 486.396 772.62C490.559 773.666 493.823 774.477 496.047 775.028C497.159 775.303 498.01 775.512 498.584 775.653L499.234 775.813L499.392 775.851V776V776.159L499.547 776.121L499.517 776C499.547 776.121 499.548 776.121 499.55 776.121L499.561 776.118L499.602 776.108L499.766 776.068L500.416 775.908C500.99 775.767 501.841 775.558 502.953 775.283C505.177 774.733 508.441 773.921 512.604 772.875C520.93 770.784 532.85 767.756 547.228 764.01C575.983 756.517 614.57 746.149 653.896 734.65C693.22 723.152 733.285 710.522 764.996 698.504C780.851 692.496 794.62 686.639 805.165 681.152C810.437 678.409 814.906 675.757 818.427 673.224C821.946 670.691 824.527 668.272 826.015 665.991C827.501 663.713 829.227 659.183 831.157 652.711C833.088 646.234 835.228 637.796 837.54 627.69C842.165 607.477 847.48 580.581 853.194 549.326C864.622 486.816 877.646 406.862 889.932 328.039C902.217 249.217 913.765 171.525 922.242 113.539C926.48 84.5462 929.951 60.4795 932.362 43.6612C933.567 35.252 934.508 28.6548 935.147 24.16C935.466 21.9126 935.711 20.1907 935.875 19.0307L936.061 17.7166L936.108 17.3842L936.12 17.3005L936.123 17.2796C936.123 17.2749 936.124 17.2726 936 17.2551L936.124 17.2726L936.144 17.1301H936L499.608 17.1301V17V16.875H499.483L63 16.875Z" fill="#4956C7" stroke="#4956C7" stroke-width="0.25"/>
</svg>
