<?xml version="1.0" encoding="UTF-8"?>
<svg width="469px" height="170px" viewBox="0 0 469 170" version="1.1" xmlns="http://www.w3.org/2000/svg" xmlns:xlink="http://www.w3.org/1999/xlink">
    <!-- Generator: Sketch 52.2 (67145) - http://www.bohemiancoding.com/sketch -->
    <title>Logo</title>
    <desc>Created with Sketch.</desc>
    <g id="Logo" stroke="none" stroke-width="1" fill="none" fill-rule="evenodd">
        <g id="Symbol" fill="#4956C7">
            <path d="M85,169.998626 C63.1656269,170.234611 34.9246965,140.027312 19.7550537,111.490827 C4.58541093,82.9543421 -4.5928104,28.3955563 2.36237009,13.2655292 C6.47167843,4.32630088 34.0175551,-0.095026092 85,0.00154827559 C135.982445,-0.095026092 163.528322,4.32630088 167.63763,13.2655292 C174.59281,28.3955563 165.414589,82.9543421 150.244946,111.490827 C135.075304,140.027312 106.834373,170.234611 85,169.998626 Z M72.9392878,45.4779092 C95.6654845,45.4779092 107.375679,45.4779092 108.069872,45.4779092 C109.111161,45.4779092 113.921739,45.1254288 113.392189,49.626594 C113.061882,50.9916401 110.8814,52.201497 108.338407,50.6835485 C101.565537,45.7444411 68.3457746,46.3021058 52.206503,63.1188525 C38.5593575,77.3388618 43,108.215216 46.7426489,94.4764792 C53.4146793,73.8558838 67.7211422,65.5182622 89,59.6420908 C110.278858,53.7659193 127.116402,59.6420908 129.766174,72.4574548 C129.766174,74.3849455 132.752983,71.6675213 134.154008,70.5376151 C135.715151,69.2462937 136.275561,67.5514343 135.875268,65.4933908 C135.434946,63.2739322 134.274096,61.4176577 132.9131,59.6420908 C130.151078,56.0506031 126.6285,53.2661913 123.025863,50.6835485 C122.345365,50.199303 121.905043,49.7554113 121.905043,48.7465664 C121.865014,45.8007395 123.025863,38 97.0068199,38.1738725 C77.8370543,38.3019746 72.5009665,43.8955855 72.5009665,45.0575802 C72.5009665,45.3932806 72.6338551,45.4779092 72.9392878,45.4779092 Z M113.964823,61.4928057 C113.964823,58.2915271 74.1915621,60.2832231 59.2144688,79.8815808 C38.2249725,107.347502 59.1974627,120.49248 68.4623053,129.680184 C70.5719941,131.561311 74.1915621,133 74.1915621,122.632759 C72.9209683,70.868991 113.964823,64.6940843 113.964823,61.4928057 Z" id="Combined-Shape-Copy-3"></path>
        </g>
        <path d="M285.491381,133 L270.735231,133 L234.48954,90.2713643 L224.890879,101.095952 L224.890879,133 L213,133 L213,38 L224.890879,38 L224.890879,87.137931 L267.153641,38 L282.053055,38 L242.225774,83.149925 L285.491381,133 Z M314.461088,133 L303,133 L303,38 L314.890879,38 L314.890879,112.205397 L369.904101,38 L382.081507,38 L382.081507,133 L370.190628,133 L370.190628,57.2278861 L314.461088,133 Z M400,38 L462.033139,38 L462.033139,48.5397301 L411.890879,48.5397301 L411.890879,75.7436282 L438.394645,75.7436282 C447.563561,75.7436282 454.846054,78.4972238 460.242344,84.0044978 C465.638633,89.5117717 468.336737,96.3008092 468.336737,104.371814 C468.336737,112.442819 465.66251,119.231857 460.313975,124.73913 C454.965441,130.246404 447.65907,133 438.394645,133 L400,133 L400,38 Z M437.06113,86.2833583 L411.99,86.2833583 L411.99,122.46027 L437.06113,122.46027 C442.696193,122.46027 447.280582,120.774879 450.814435,117.404048 C454.348289,114.033217 456.115189,109.689182 456.115189,104.371814 C456.115189,99.0544462 454.348289,94.7104117 450.814435,91.3395802 C447.280582,87.9687488 442.696193,86.2833583 437.06113,86.2833583 Z" id="КИБ" fill="#000000"></path>
    </g>
</svg>