<?xml version="1.0" encoding="UTF-8"?>
<svg width="170px" height="170px" viewBox="0 0 170 170" version="1.1" xmlns="http://www.w3.org/2000/svg" xmlns:xlink="http://www.w3.org/1999/xlink">
    <!-- Generator: Sketch 52.2 (67145) - http://www.bohemiancoding.com/sketch -->
    <title>Symbol</title>
    <desc>Created with Sketch.</desc>
    <g id="Page-1" stroke="none" stroke-width="1" fill="none" fill-rule="evenodd">
        <g id="Symbol" fill="#4956C7">
            <path d="M85,169.998626 C63.1656269,170.234611 34.9246965,140.027312 19.7550537,111.490827 C4.58541093,82.9543421 -4.5928104,28.3955563 2.36237009,13.2655292 C6.47167843,4.32630088 34.0175551,-0.095026092 85,0.00154827559 C135.982445,-0.095026092 163.528322,4.32630088 167.63763,13.2655292 C174.59281,28.3955563 165.414589,82.9543421 150.244946,111.490827 C135.075304,140.027312 106.834373,170.234611 85,169.998626 Z M72.9392878,45.4779092 C95.6654845,45.4779092 107.375679,45.4779092 108.069872,45.4779092 C109.111161,45.4779092 113.921739,45.1254288 113.392189,49.626594 C113.061882,50.9916401 110.8814,52.201497 108.338407,50.6835485 C101.565537,45.7444411 68.3457746,46.3021058 52.206503,63.1188525 C38.5593575,77.3388618 43,108.215216 46.7426489,94.4764792 C53.4146793,73.8558838 67.7211422,65.5182622 89,59.6420908 C110.278858,53.7659193 127.116402,59.6420908 129.766174,72.4574548 C129.766174,74.3849455 132.752983,71.6675213 134.154008,70.5376151 C135.715151,69.2462937 136.275561,67.5514343 135.875268,65.4933908 C135.434946,63.2739322 134.274096,61.4176577 132.9131,59.6420908 C130.151078,56.0506031 126.6285,53.2661913 123.025863,50.6835485 C122.345365,50.199303 121.905043,49.7554113 121.905043,48.7465664 C121.865014,45.8007395 123.025863,38 97.0068199,38.1738725 C77.8370543,38.3019746 72.5009665,43.8955855 72.5009665,45.0575802 C72.5009665,45.3932806 72.6338551,45.4779092 72.9392878,45.4779092 Z M113.964823,61.4928057 C113.964823,58.2915271 74.1915621,60.2832231 59.2144688,79.8815808 C38.2249725,107.347502 59.1974627,120.49248 68.4623053,129.680184 C70.5719941,131.561311 74.1915621,133 74.1915621,122.632759 C72.9209683,70.868991 113.964823,64.6940843 113.964823,61.4928057 Z" id="Combined-Shape-Copy-3"></path>
        </g>
    </g>
</svg>